<?xml version="1.0" encoding="UTF-8"?>
<svg id="_圖層_1" xmlns="http://www.w3.org/2000/svg" xmlns:xlink="http://www.w3.org/1999/xlink" version="1.1" viewBox="0 0 453.65 151.05">
  <!-- Generator: Adobe Illustrator 30.0.0, SVG Export Plug-In . SVG Version: 2.1.1 Build 123)  -->
  <defs>
    <style>
      .st0 {
        fill: #c0a209;
      }

      .st1 {
        fill: url(#_未命名漸層_445);
        opacity: .65;
      }

      .st2 {
        fill: url(#_未命名漸層_436);
        opacity: .6;
      }

      .st3 {
        fill: url(#_未命名漸層_317);
        opacity: .45;
      }

      .st4 {
        fill: url(#_未命名漸層_318);
      }

      .st4, .st5 {
        opacity: .44;
      }

      .st6 {
        fill: url(#_未命名漸層_439);
        opacity: .7;
      }

      .st7 {
        fill: url(#_未命名漸層_4341);
      }

      .st8 {
        fill: #fff;
      }

      .st5 {
        fill: url(#_未命名漸層_3181);
      }

      .st9 {
        fill: url(#_未命名漸層_434);
      }
    </style>
    <linearGradient id="_未命名漸層_434" data-name="未命名漸層 434" x1="58.64" y1="94.86" x2="58.64" y2="72.42" gradientUnits="userSpaceOnUse">
      <stop offset="0" stop-color="#b72d7a"/>
      <stop offset=".22" stop-color="#c5377a"/>
      <stop offset=".71" stop-color="#de4b7a"/>
      <stop offset="1" stop-color="#e8537b"/>
    </linearGradient>
    <linearGradient id="_未命名漸層_318" data-name="未命名漸層 318" x1="69.03" y1="74.49" x2="51.99" y2="57.93" gradientUnits="userSpaceOnUse">
      <stop offset="0" stop-color="#f5bcb7" stop-opacity=".4"/>
      <stop offset=".14" stop-color="#f3b2b1" stop-opacity=".45"/>
      <stop offset=".4" stop-color="#f097a2" stop-opacity=".58"/>
      <stop offset=".73" stop-color="#eb6c89" stop-opacity=".8"/>
      <stop offset="1" stop-color="#e74473"/>
    </linearGradient>
    <linearGradient id="_未命名漸層_445" data-name="未命名漸層 445" x1="26.85" y1="77.7" x2="57.38" y2="91.17" gradientUnits="userSpaceOnUse">
      <stop offset="0" stop-color="#24804f"/>
      <stop offset=".11" stop-color="#308648"/>
      <stop offset=".31" stop-color="#509836"/>
      <stop offset=".57" stop-color="#83b51b"/>
      <stop offset=".84" stop-color="#aab827" stop-opacity=".37"/>
      <stop offset=".99" stop-color="#c1bb2f" stop-opacity="0"/>
    </linearGradient>
    <linearGradient id="_未命名漸層_439" data-name="未命名漸層 439" x1="41.28" y1="81.01" x2="41.28" y2="48.37" gradientUnits="userSpaceOnUse">
      <stop offset="0" stop-color="#0091c1" stop-opacity=".7"/>
      <stop offset=".27" stop-color="#008ec2" stop-opacity=".76"/>
      <stop offset=".75" stop-color="#0086c5" stop-opacity=".91"/>
      <stop offset="1" stop-color="#0082c8"/>
    </linearGradient>
    <linearGradient id="_未命名漸層_4341" data-name="未命名漸層 434" x1="93.31" x2="93.31" xlink:href="#_未命名漸層_434"/>
    <linearGradient id="_未命名漸層_436" data-name="未命名漸層 436" x1="131.83" y1="79.3" x2="91.14" y2="83.01" gradientUnits="userSpaceOnUse">
      <stop offset=".3" stop-color="#e95530"/>
      <stop offset=".36" stop-color="#e85232" stop-opacity=".98"/>
      <stop offset=".45" stop-color="#e74b38" stop-opacity=".91"/>
      <stop offset=".55" stop-color="#e63f43" stop-opacity=".8"/>
      <stop offset=".65" stop-color="#e52f52" stop-opacity=".65"/>
      <stop offset=".76" stop-color="#e21a66" stop-opacity=".45"/>
      <stop offset=".87" stop-color="#e0017d" stop-opacity=".21"/>
      <stop offset=".87" stop-color="#e0007f" stop-opacity=".2"/>
    </linearGradient>
    <linearGradient id="_未命名漸層_317" data-name="未命名漸層 317" x1="1496.2" y1="81.01" x2="1496.2" y2="48.37" gradientTransform="translate(1606.86) rotate(-180) scale(1 -1)" gradientUnits="userSpaceOnUse">
      <stop offset="0" stop-color="#f9bf3d"/>
      <stop offset=".23" stop-color="#f5ab2e"/>
      <stop offset="1" stop-color="#ec6c00"/>
    </linearGradient>
    <linearGradient id="_未命名漸層_3181" data-name="未命名漸層 318" x1="1529.52" y1="63.07" x2="1506.67" y2="63.07" gradientTransform="translate(1606.86) rotate(-180) scale(1 -1)" xlink:href="#_未命名漸層_318"/>
  </defs>
  <g>
    <g>
      <path class="st8" d="M200.57,95.67c10.51-11.57-14.16-29.59-38.26-13.57v-4.16h-8.8v30.24h8.8v-16.12c7.09-7.74,34.32-9.11,31.26-.98-3.26,8.66-27.36,7.44-27.36,7.44v9.66h35.43v-6.68h-9.34c5.43-1.99,6.22-3.57,8.26-5.82Z"/>
      <path class="st8" d="M191.08,49.87l-6.64,4.98c2.91,2.53,5.19,4.63,6.85,6.29-10.83.46-18.83.78-24,.97,3.28-5.04,6.2-9.97,8.86-14.83h.02c1.61.08,2.15-1.48,2.15-1.48l-1.64-.52-9.18-2.95c-2.54,6.45-6.02,13.16-10.44,20.12-1.48.05-10.01.28-10.93.28l.2.77c.65,2.53.77,5.16.36,7.73,20.52-.74,37.71-1.47,51.59-2.21,2.12,2.54,3.64,4.68,4.56,6.43l7.26-5.6c-.46-.78-1.04-1.66-1.73-2.63-3.92-5.3-9.68-11.09-17.29-17.36Z"/>
    </g>
    <g>
      <path class="st8" d="M294.74,76.77c2.17-4.7,3.09-10.9,2.77-18.6l-5.53-.69v.28c.04,7.75-2.07,12.34-4.05,16.07l6.54,3.5c.09-.14.18-.32.28-.55Z"/>
      <path class="st8" d="M355.39,55.75l-5.26-4.36c-.92,1.2-2.61,2.88-5.05,5.05-.78-1.01-1.45-2.01-2.01-2.98.55-.41,2.95-2.28,7.19-5.6l-5.05-4.49c-1.38,1.8-2.97,3.53-4.77,5.19-.88-2.03-1.61-3.97-2.21-5.81l-6.29,1.52c.37,1.24.67,2.19.9,2.84l-4.36-1.66-1.18.28h-11.89v.05l-.07,7.15s1.17-.03,1.54-1.11h7.66c-.28.65-1.01,2.08-2.21,4.29-.97-.88-2.35-1.96-4.15-3.25l-2.21,2.56-7.35-2.42c-.6,2.03-.47,4.63-1.99,7.81v-15.66h.02c1.18-.32,1.21-1.56,1.21-1.56l-8.52.03v.04s-.04,0-.04,0v24.14c0,3.18-.07,5.99-.21,8.44-.78,11.62-5.7,18.88-11.37,25.15.21.16,5.64,5.05,7.01,7.42,4.24-4.52,7.33-10.14,9.27-16.87,2.86,4.7,4.75,8.05,5.67,10.03l7.21-7.28c-4.84-7.01-9.49-10.06-11.01-12.09.51-4.47.76-9.38.76-14.73v-2.28l2.7,1.31c.74-.97,2.63-3.92,5.67-8.85,1.57,1.29,2.77,2.37,3.6,3.25-2.81,3.23-6.09,5.77-9.82,7.61,1.94,1.84,3.36,3.69,4.29,5.53,4.06-2.21,7.72-5.25,11-9.13v2.7h18.81v-2.77c2.15,2.45,4.54,4.55,7.14,6.36h-32.45s-.1,0-.1,0v18.02h6.85v-2.07c2.91.76,7.31,1.7,11.71,1.92-4.71,1.27-6.13,5.29-6.13,5.29-.34-3.51-2.37-5.52-2.37-5.52l-7.46,1.62c2.52,3.65,3.35,5.72,3.58,7.4.22,1.64,1.27,2.49,2.33,2.95h-13.86v7.26h42.77v-7.26h-13.3c4.88-4.6,6.76-10.75-.15-11.91,2.9-.4,5.48-1.36,7.23-3.21,3.46-3.66,2.87-11.17,2.56-13.65.3.19.6.37.91.56.04-.04.09-.12.14-.21,1.43-2.44,3.06-4.4,4.91-5.88-3.09-1.57-5.95-3.64-8.58-6.22,1.61-1.11,3.87-2.74,6.78-4.91ZM326.9,61.42c2.72-4.15,4.73-8.83,6.02-14.04,1.84,5.26,4.17,9.94,6.98,14.04h-13ZM333.99,101.18h-3.84c.89-.43,1.64-1.08,2.09-1.91,2.12-3.94,4.98-6.61,6.35-5.93,1.57.78-1.88,4.92-4.6,7.84ZM329.59,81.56l-5.27-1.19v-3.04h19.68c.29,1.13,3.24,8.63-14.41,4.24Z"/>
    </g>
    <g>
      <path class="st8" d="M273.44,85c-.28,6.13-.62,10.05-1.04,11.76-.46,1.66-1.31,2.49-2.56,2.49h-7.4c-.92,0-1.61-.12-2.07-.35-.6-.42-.9-1.8-.9-4.15v-20.68c7.48-3.89,13.83-7.58,19.14-11.08h0c1.14.82,2.27-.06,2.27-.06l-3.63-4.38-3.27-4.05c-4.33,3.73-9.17,7.31-14.52,10.72v-21.23h-8.71v50.62c0,4.57.6,7.79,1.8,9.68,1.43,2.17,4.31,3.25,8.64,3.25h9.48c3.37,0,5.83-1.06,7.4-3.18,1.8-2.49,2.93-7.68,3.39-15.56-.09-.04-.21-.07-.35-.07-3.04-.83-5.6-2.08-7.68-3.73Z"/>
      <path class="st8" d="M232.98,59.48h-16.74v8.44h16.74v17.15c-8.67,3.09-15.05,5.24-19.16,6.43l3.73,8.65c8.16-3.41,13.3-5.58,15.42-6.5v14.52h8.85V43.92h-8.85v15.56Z"/>
    </g>
    <path class="st8" d="M428.68,48.2h-20.57c.53-1,1.43-2.47,1.43-2.47,1.22,0,1.57-1.2,1.57-1.2l-8.79-2.26c-2.09,5.15-4.66,9.03-6.74,11.66v-5.73h-15.81c.53-1,1.39-2.47,1.39-2.47,1.22,0,1.57-1.2,1.57-1.2l-8.75-2.26c-4.26,10.49-10.51,15.77-10.51,15.77,4.31,2.12,6.79,4.85,6.79,4.85,1.71-1.48,3.99-4.94,6.07-8.48h1.01c1.37,1.37,4.3,4.69,5.29,8.46-2.41.31-4.58.92-6.01,1.4v-1.21h-7.69v35.21l-5.04.71.08.24c.8,2.33,1.22,4.77,1.23,7.23l24.62-4.08,2.01,4.63,6.92-3.46s-3.94-9.21-9.68-15.51l-6.57,3.2,3.46,4.63-9.34,1.32v-11.35c5.96-.87,10.44-.45,12.93,0v2.19h7.26v-14.66c-.68-8.72-6.25-10.79-11.61-10.71l4.95-2.21s-1.36-3.26-3.54-6.05h8.6c-1.95,2.39-3.39,3.63-3.39,3.63,4.31,2.12,6.79,4.85,6.79,4.85,1.71-1.48,3.99-4.94,6.07-8.48h2.84c1.36,1.36,4.23,4.61,5.25,8.33h-12.77v45.23h8v-37.38h11v21.33s.1.91-1.38.97h-7.75s2.43,5.53,2.42,7.68h7.25c3.87,0,7.09-3,7.36-6.86l.13-30.97h-11.8l5.12-2.28s-1.36-3.26-3.54-6.05h11.91v-6.2ZM376.6,80.46v-2.92c1.81-.53,4.12-1.06,4.99-.64,1.17.58-3.09,2.68-4.99,3.56ZM389.54,73.19v7.59h-3.58s4.27-.95,2.58-6.23c-1.17-3.66-7.9-3.13-11.93-2.46v-2.16c1.18-1.18,3.07-2.28,6.1-2.18,7.06.24,6.83,5.42,6.83,5.42Z"/>
  </g>
  <g>
    <g>
      <path class="st8" d="M74.95,71.52c0-3.75,0-7.43,0-7.43-.01-.72.02-1.42-.05-2.14,0-.09-.03-.17-.04-.26-.03-.28-.07-.57-.12-.85,0-.03-.01-.05-.02-.08-.04-.21-.08-.41-.13-.61-.03-.14-.06-.28-.1-.42-.02-.06-.04-.13-.05-.19-.06-.24-.14-.48-.21-.72-.02-.07-.04-.13-.06-.2-.04-.13-.09-.26-.14-.4-.08-.24-.17-.47-.26-.7-.07-.18-.14-.37-.22-.55-.02-.04-.04-.08-.05-.12-.1-.22-.2-.44-.31-.66-.05-.1-.09-.19-.14-.29-.05-.09-.1-.18-.15-.27-.32-.6-.66-1.17-1.03-1.72-.03-.04-.06-.08-.08-.13,0,0,0,0,0,0,0-.01-.02-.02-.03-.03-.41-.62-.88-1.19-1.38-1.73-.02-.02-.04-.05-.07-.08-.14-.15-.3-.3-.45-.45-.04-.04-.08-.08-.13-.12-1.19-1.13-2.58-2.04-4.05-2.78-.09-.05-.18-.09-.27-.14,0,0,0,0,0,0-.67-.32-1.34-.62-2.03-.88-1.09-.41-2.4-.83-3.49-.83-.23,0-1.14,0-2.31,0,0,0,0,0,0,0-.05,0-.25,0-.54,0-1.54,0-3.38,0-4.77,0-.47,0-.96,0-1.45,0-.56,0-1.34,0-2.24,0-.1,0-.2,0-.3,0-.17,0-.35,0-.52,0-.91,0-1.78,0-2.54,0-.15,0-.29,0-.44,0-.23,0-.45,0-.65,0h-.19c-.44,0-.8,0-1.08,0-.28,0-.47,0-.54,0h-.04c-.72.01-1.42-.02-2.14.05,0,0-.01,0-.02,0-.05,0-.09.01-.14.02-.32.03-.63.08-.95.13-.03,0-.07.01-.1.02-.18.03-.35.07-.53.11-.16.03-.32.07-.49.11-.07.02-.15.04-.22.06-.22.06-.44.13-.67.19-.07.02-.15.04-.22.07-.15.05-.3.1-.45.16-.21.08-.42.15-.63.24,0,0,0,0-.01,0-.19.07-.37.15-.55.23-.04.02-.09.04-.13.06-.22.1-.43.2-.64.3-.1.05-.2.09-.29.14-.09.05-.18.1-.27.15-.6.32-1.18.66-1.73,1.04-.04.03-.08.05-.12.08,0,0,0,0,0,0-.01,0-.02.02-.03.03-.62.41-1.19.87-1.72,1.37-.03.03-.06.05-.09.07-.18.16-.34.34-.51.51-.02.02-.03.03-.05.05-1.17,1.23-2.11,2.68-2.86,4.21-.02.04-.04.08-.07.12,0,0,0,0,0,0-.32.67-.62,1.35-.88,2.04-.41,1.09-.83,2.4-.83,3.49,0,.23,0,1.14,0,2.31,0,0,0,0,0,0,0,.05,0,.25,0,.54,0,1.54,0,3.38,0,4.77,0,.47,0,.96,0,1.45,0,.56,0,1.34,0,2.24,0,.1,0,.2,0,.3,0,.17,0,.35,0,.52,0,.91,0,1.78,0,2.54,0,.15,0,.28,0,.42,0,.24,0,.48,0,.7,0,.05,0,.11,0,.16,0,.44,0,.8,0,1.08,0,.27,0,.46,0,.54h0v.04h0c.01.73-.02,1.43.05,2.15,0,.05.02.1.02.15.03.32.08.63.13.95,0,.04.02.07.02.11.03.16.07.31.1.47.04.18.08.36.12.54.02.08.04.16.07.24.05.2.11.4.18.6.03.09.05.18.08.27.06.18.12.36.18.54.06.17.13.34.19.51,0,.02.01.03.02.05.07.19.15.37.23.55.02.05.05.11.07.16.08.19.17.38.26.56.05.11.11.23.16.34.06.11.11.21.17.32.21.4.44.78.68,1.16,0,0,0,0,0,.01,0,0,0,0,0,.01.1.15.19.3.29.45.03.05.07.11.1.16,0,0,0,0,0,0,0,.01.02.02.03.03.42.63.89,1.2,1.39,1.74.02.02.04.04.05.06.12.13.25.24.37.37.07.07.14.15.22.22.99.93,2.11,1.72,3.31,2.38.02,0,.03.02.05.03.21.11.41.22.62.33.11.05.21.11.32.17,0,0,0,0,0,0,.67.32,1.35.62,2.03.88,1.09.41,2.4.83,3.49.83.23,0,1.14,0,2.31,0,0,0,0,0,0,0,.05,0,.25,0,.54,0,1.54,0,3.38,0,4.77,0,.47,0,.96,0,1.45,0,.56,0,1.34,0,2.24,0,.1,0,.2,0,.3,0,.17,0,.35,0,.52,0,.82,0,1.59,0,2.29,0,.49,0,.95,0,1.35,0,.06,0,.12,0,.17,0,.11,0,.21,0,.31,0,.17,0,.33,0,.47,0,.1,0,.21,0,.3,0,.27,0,.46,0,.54,0h.04c.72-.01,1.42.02,2.14-.05.05,0,.1-.02.15-.02.32-.03.63-.08.95-.13.03,0,.07-.01.1-.02.17-.03.33-.07.5-.11.17-.04.34-.07.51-.12.08-.02.15-.04.23-.06.21-.06.42-.12.63-.18.08-.03.16-.05.25-.08.17-.05.33-.11.5-.17.19-.07.38-.14.56-.21.01,0,.02,0,.03-.01.19-.07.37-.15.55-.23.05-.02.1-.04.14-.07.2-.09.4-.18.6-.28.11-.05.21-.1.32-.15.1-.05.2-.11.3-.16.58-.31,1.15-.65,1.68-1.01.05-.03.09-.06.14-.09,0,0,0,0,0,0,.01,0,.02-.02.03-.03.62-.42,1.2-.88,1.73-1.38.02-.02.05-.04.07-.06.15-.14.29-.29.43-.44.05-.05.09-.09.14-.14,1.13-1.2,2.05-2.6,2.79-4.09.04-.08.08-.15.12-.23,0,0,0,0,0,0,.32-.67.62-1.35.88-2.03.41-1.09.83-2.4.83-3.49,0-.23,0-1.14,0-2.31,0,0,0,0,0,0,0-.05,0-.25,0-.54,0-1.54,0-3.38,0-4.77,0-.47,0-.96,0-1.45,0-.31,0-.68,0-1.1ZM42.19,79.51c0-.29.01-.58,0-.88v-14.65c.29,0,.58.01.89,0h14.65c0,.29-.01.58,0,.88v14.65c-.29,0-.58-.01-.88,0h-14.65Z"/>
      <g>
        <g>
          <polygon class="st0" points="56.1 44.01 56.1 42.26 44.33 42.26 44.33 44.01 41 44.01 41 45.92 59.43 45.92 59.43 44.01 56.1 44.01"/>
          <path class="st0" d="M59.25,97.86h-18.5v2.26h2.58s0,0,0,0c-.11,1.22.7,2.19,1.94,2.32l-.97,6.07c-.03.18.1.27.24.27s.3-.09.33-.27l.96-6.05h1.07l-.96,6.05c-.06.35.51.35.57,0l.96-6.05h1.07l-.96,6.05c-.06.35.51.35.57,0l.96-6.05h1.07l-.96,6.05c-.06.35.51.35.57,0l.96-6.05h1.07l-.96,6.05c-.06.35.51.35.57,0l.96-6.05h.97s.06,0,.09,0l-.96,6.06c-.06.35.51.35.57,0l.97-6.11c.94-.16,1.68-.63,2.14-1.37.18-.29.3-.6.38-.91h2.73v-2.26ZM54.95,101.06c-.54.46-1.12.45-1.74.45h-.17s-7.38,0-7.38,0c-.81-.02-1.35-.6-1.33-1.39h11.2c-.1.34-.26.66-.58.94Z"/>
        </g>
        <g>
          <path class="st9" d="M74.9,61.95c0-.05-.02-.1-.02-.15-.03-.32-.08-.63-.13-.95-.03-.16-.06-.31-.1-.47-.05-.22-.09-.43-.15-.65-.04-.18-.09-.35-.15-.53-.06-.19-.11-.39-.18-.58-.06-.18-.12-.37-.19-.55-.07-.18-.14-.36-.21-.54-.07-.19-.15-.37-.23-.55-.08-.17-.16-.34-.24-.51-.09-.18-.17-.37-.26-.55-.08-.15-.17-.3-.25-.46-.19-.35-.4-.7-.61-1.04-.08-.12-.15-.25-.23-.37,0,0,0,0,0,0-.06-.09-.11-.18-.17-.26,0,0,0,0,0,0,0-.01-.02-.02-.03-.03-1.55-2.32-3.73-4-6.34-5.29,0,0-4.38,1.75-6.53,8.21h-9.99c-.21.33-.4.66-.59,1-.26.48-.49.97-.7,1.47-.18.43-.34.87-.48,1.32-.12.36-.22.73-.31,1.09-.06.27-.12.53-.17.8-.05.28-.07.55-.07.84v.77h11.16c0,.29-.01.58,0,.88v15.57c0,.33-.02.63-.07.95-.05.3-.1.61-.17.91-.09.41-.19.83-.31,1.23-.14.5-.3,1-.48,1.49-.21.56-.44,1.12-.7,1.66-.29.6-.6,1.19-.95,1.76-.38.62-.79,1.21-1.24,1.78-.48.61-1.01,1.19-1.57,1.72-.6.58-1.25,1.11-1.93,1.59-.74.52-1.52.98-2.34,1.38-.89.44-1.83.8-2.78,1.09-.94.29-1.89.58-2.86.74.56,0,15.28,0,15.28,0,.72-.01,1.42.02,2.14-.05,3.62-.36,7.44-2.19,10-4.58,2.01-1.88,3.39-4.37,4.36-6.93.41-1.09.83-2.4.83-3.49,0-.23,0-1.14,0-2.31,0,0,0,0,0,0,0-.05,0-.25,0-.54,0-1.54,0-3.38,0-4.77,0-.47,0-.96,0-1.45,0-.56,0-1.34,0-2.24,0-.1,0-.2,0-.3,0-.17,0-.35,0-.52,0-.91,0-1.78,0-2.54,0-.47,0-.89,0-1.27,0-.44,0-.8,0-1.08,0-.28,0-.47,0-.55v-.03h0c-.01-.73.02-1.43-.05-2.15Z"/>
          <path class="st4" d="M74.95,64.09c-.01-.72.02-1.42-.05-2.14-.36-3.62-2.19-7.44-4.58-10-1.88-2.01-4.37-3.39-6.93-4.36-1.09-.41-2.4-.83-3.49-.83-.23,0-1.14,0-2.31,0,0,0,0,0,0,0-.05,0-.25,0-.54,0-1.54,0-3.38,0-4.77,0-.47,0-.96,0-1.45,0-.56,0-1.34,0-2.24,0-.1,0-.2,0-.3,0-.17,0-.35,0-.52,0-.91,0-1.78,0-2.54,0-.47,0-.89,0-1.27,0-.44,0-.8,0-1.08,0-.28,0-.47,0-.55,0h-.04c-.72.01-1.42-.02-2.14.05-.05,0-.1.02-.15.02-.32.03-.63.08-.95.13-.16.03-.31.06-.47.1-.22.05-.43.09-.65.15-.18.04-.35.09-.53.15-.19.06-.39.11-.58.18-.18.06-.37.12-.55.19-.18.07-.36.14-.54.21-.19.07-.37.15-.55.23-.17.08-.34.16-.51.24-.18.09-.37.17-.55.26-.15.08-.3.17-.46.25-.35.19-.7.4-1.04.61-.12.08-.25.15-.37.23,0,0,0,0,0,0-.09.06-.18.11-.26.17,0,0,0,0,0,0-.01,0-.02.02-.03.03-2.32,1.55-4,3.73-5.29,6.34,0,0,3.12,7.81,16.4,7.7h15.57c.33,0,.63.02.95.07.3.05.61.1.91.17.41.09.83.19,1.23.31.5.14,1,.3,1.49.48.56.21,1.12.44,1.66.7.6.29,1.19.6,1.76.95.62.38,1.21.79,1.78,1.24.61.48,1.19,1.01,1.72,1.57.58.6,1.11,1.25,1.59,1.93.52.74.98,1.52,1.38,2.34.44.89.8,1.83,1.09,2.78.29.94.58,1.89.74,2.86,0-.56,0-15.28,0-15.28Z"/>
          <path class="st1" d="M24.97,79.4c.01.72-.02,1.42.05,2.14.36,3.62,2.19,7.44,4.58,10,1.88,2.01,4.37,3.39,6.93,4.36,1.09.41,2.4.83,3.49.83.23,0,1.14,0,2.31,0,0,0,0,0,0,0,.05,0,.25,0,.54,0,1.54,0,3.38,0,4.77,0,.47,0,.96,0,1.45,0,.56,0,1.34,0,2.24,0,.1,0,.2,0,.3,0,.17,0,.35,0,.52,0,.91,0,1.78,0,2.54,0,.47,0,.89,0,1.27,0,.44,0,.8,0,1.08,0,.28,0,.47,0,.55,0h.04c.72-.01,1.42.02,2.14-.05.05,0,.1-.02.15-.02.32-.03.63-.08.95-.13.16-.03.31-.06.47-.1.22-.05.43-.09.65-.15.18-.04.35-.09.53-.15.19-.06.39-.11.58-.18.18-.06.37-.12.55-.19.18-.07.36-.14.54-.21.19-.07.37-.15.55-.23.17-.08.34-.16.51-.24.18-.09.37-.17.55-.26.15-.08.3-.17.46-.25.35-.19.7-.4,1.04-.61.12-.08.25-.15.37-.23,0,0,0,0,0,0,.09-.06.18-.11.26-.17,0,0,0,0,0,0,.01,0,.02-.02.03-.03,2.32-1.55,4-3.73,5.29-6.34,0,0-3.12-7.81-16.4-7.7h-15.57c-.33,0-.63-.02-.95-.07-.3-.05-.61-.1-.91-.17-.41-.09-.83-.19-1.23-.31-.5-.14-1-.3-1.49-.48-.56-.21-1.12-.44-1.66-.7-.6-.29-1.19-.6-1.76-.95-.62-.38-1.21-.79-1.78-1.24-.61-.48-1.19-1.01-1.72-1.57-.58-.6-1.11-1.25-1.59-1.93-.52-.74-.98-1.52-1.38-2.34-.44-.89-.8-1.83-1.09-2.78-.29-.94-.58-1.89-.74-2.86,0,.56,0,15.28,0,15.28Z"/>
          <path class="st6" d="M42.31,46.76c-.72.01-1.42-.02-2.14.05-3.62.36-7.44,2.19-10,4.58-2.01,1.88-3.39,4.37-4.36,6.93-.41,1.09-.83,2.4-.83,3.49,0,.23,0,1.14,0,2.31,0,0,0,0,0,0,0,.05,0,.25,0,.54,0,1.54,0,3.38,0,4.77,0,.47,0,.96,0,1.45,0,.56,0,1.34,0,2.24,0,.1,0,.2,0,.3,0,.17,0,.35,0,.52,0,.91,0,1.78,0,2.54,0,.47,0,.89,0,1.27,0,.44,0,.8,0,1.08,0,.28,0,.47,0,.55v.03h0c.01.73-.02,1.43.05,2.15,0,.05.02.1.02.15.03.32.08.63.13.95.03.16.06.31.1.47.05.22.09.43.15.65.04.18.09.35.15.53.06.19.11.39.18.58.06.18.12.37.19.55.07.18.14.36.21.54.07.19.15.37.23.55.08.17.16.34.24.51.09.18.17.37.26.55.08.15.17.3.25.46.19.35.4.7.61,1.04.08.12.15.25.23.37,0,0,0,0,0,0,.06.09.11.18.17.26h0s.02.02.03.04c1.55,2.32,3.73,4,6.34,5.29,0,0,7.81-3.12,7.7-16.4v-15.57c0-.33.02-.63.07-.95.05-.3.1-.61.17-.91.09-.41.19-.83.31-1.23.14-.5.3-1,.48-1.49.21-.56.44-1.12.7-1.66.29-.6.6-1.19.95-1.76.38-.62.79-1.21,1.24-1.78.48-.61,1.01-1.19,1.57-1.72.6-.58,1.25-1.11,1.93-1.59.74-.52,1.52-.98,2.34-1.38.89-.44,1.83-.8,2.78-1.09.94-.29,1.89-.58,2.86-.74-.56,0-15.28,0-15.28,0Z"/>
        </g>
      </g>
    </g>
    <g>
      <path class="st8" d="M126.95,69.42c0-1.38,0-3.23,0-4.77,0-.29,0-.49,0-.54,0,0,0,0,0,0,0-1.17,0-2.08,0-2.31,0-1.08-.42-2.4-.83-3.49-.26-.69-.55-1.37-.88-2.04,0,0,0,0,0,0-.02-.04-.04-.08-.07-.12-.76-1.53-1.69-2.97-2.86-4.21-.02-.02-.03-.03-.05-.05-.17-.17-.33-.35-.51-.51-.03-.03-.06-.05-.09-.07-.53-.5-1.1-.96-1.72-1.37-.01,0-.02-.02-.03-.03,0,0,0,0,0,0-.04-.03-.08-.05-.12-.08-.55-.37-1.13-.72-1.73-1.04-.09-.05-.18-.1-.27-.15-.1-.05-.19-.09-.29-.14-.21-.1-.43-.21-.64-.3-.04-.02-.08-.04-.13-.06-.18-.08-.37-.15-.55-.23,0,0,0,0,0,0-.21-.08-.42-.16-.63-.24-.15-.05-.3-.11-.45-.16-.07-.02-.15-.05-.22-.07-.22-.07-.44-.13-.67-.19-.07-.02-.15-.04-.22-.06-.16-.04-.32-.07-.49-.11-.18-.04-.35-.08-.53-.11-.03,0-.07-.01-.1-.02-.32-.06-.64-.1-.95-.13-.05,0-.09-.01-.14-.02,0,0-.01,0-.02,0-.72-.07-1.43-.04-2.14-.05h-.04c-.08,0-.27,0-.54,0-.28,0-.64,0-1.08,0h-.19c-.2,0-.42,0-.65,0-.14,0-.28,0-.44,0-.76,0-1.63,0-2.54,0-.17,0-.34,0-.52,0-.1,0-.2,0-.3,0-.9,0-1.68,0-2.24,0-.49,0-.98,0-1.45,0-1.38,0-3.23,0-4.77,0-.29,0-.49,0-.54,0,0,0,0,0,0,0-1.17,0-2.08,0-2.31,0-1.08,0-2.4.42-3.49.83-.69.26-1.37.55-2.03.88,0,0,0,0,0,0-.09.04-.18.09-.27.14-1.47.74-2.86,1.65-4.05,2.78-.04.04-.08.08-.13.12-.15.15-.31.29-.45.45-.02.02-.04.05-.07.08-.5.53-.96,1.11-1.38,1.73,0,.01-.02.02-.03.03,0,0,0,0,0,0-.03.04-.06.08-.08.13-.37.55-.71,1.12-1.03,1.72-.05.09-.1.18-.15.27-.05.09-.09.19-.14.29-.11.22-.21.44-.31.66-.02.04-.04.08-.05.12-.08.18-.15.36-.22.55-.09.23-.18.47-.26.7-.05.13-.09.26-.14.4-.02.07-.04.13-.06.2-.08.24-.15.48-.21.72-.02.06-.04.13-.05.19-.04.14-.06.28-.1.42-.05.21-.09.41-.13.61,0,.03-.01.05-.02.08-.05.28-.09.57-.12.85-.01.09-.03.17-.04.26-.07.72-.04,1.43-.05,2.14,0,0,0,3.68,0,7.43,0,.42,0,.8,0,1.1,0,.49,0,.98,0,1.45,0,1.38,0,3.23,0,4.77,0,.29,0,.49,0,.54,0,0,0,0,0,0,0,1.17,0,2.08,0,2.31,0,1.08.42,2.4.83,3.49.26.69.55,1.37.88,2.03,0,0,0,0,0,0,.04.08.08.15.12.23.74,1.49,1.66,2.89,2.79,4.09.05.05.09.09.14.14.14.15.28.3.43.44.02.02.05.04.07.06.54.5,1.11.97,1.73,1.38.01,0,.02.02.03.03,0,0,0,0,0,0,.05.03.09.06.14.09.53.36,1.1.7,1.68,1.01.1.05.2.11.3.16.1.05.21.1.32.15.2.1.4.19.6.28.05.02.1.05.14.07.18.08.37.15.55.23.01,0,.02,0,.03.01.19.07.37.15.56.21.17.06.33.12.5.17.08.03.16.05.25.08.21.07.42.13.63.18.08.02.15.04.23.06.17.04.34.08.51.12.17.04.33.07.5.11.03,0,.07.02.1.02.32.06.64.1.95.13.05,0,.1.02.15.02.72.07,1.43.04,2.14.05h.04c.08,0,.27,0,.54,0,.09,0,.2,0,.3,0,.14,0,.3,0,.47,0,.1,0,.2,0,.31,0,.05,0,.11,0,.17,0,.4,0,.86,0,1.35,0,.7,0,1.48,0,2.29,0,.17,0,.34,0,.52,0,.1,0,.2,0,.3,0,.9,0,1.68,0,2.24,0,.49,0,.98,0,1.45,0,1.38,0,3.23,0,4.77,0,.29,0,.49,0,.54,0,0,0,0,0,0,0,1.17,0,2.08,0,2.31,0,1.08,0,2.4-.42,3.49-.83.69-.26,1.37-.55,2.03-.88,0,0,0,0,0,0,.11-.05.21-.11.32-.17.21-.11.42-.21.62-.33.02,0,.03-.02.05-.03,1.2-.66,2.32-1.45,3.31-2.38.08-.07.15-.15.22-.22.12-.12.25-.24.37-.37.02-.02.04-.04.05-.06.51-.54.97-1.11,1.39-1.74,0-.01.02-.02.03-.03h0c.04-.05.07-.11.1-.16.1-.15.19-.3.29-.45,0,0,0,0,0-.01,0,0,0,0,0-.01.24-.38.46-.76.68-1.16.06-.11.12-.21.17-.32.06-.11.11-.23.16-.34.09-.19.18-.37.26-.56.02-.05.05-.11.07-.16.08-.18.15-.37.23-.55,0-.02.01-.03.02-.05.07-.17.13-.34.19-.51.06-.18.13-.36.18-.54.03-.09.05-.18.08-.27.06-.2.12-.4.18-.6.02-.08.05-.16.07-.24.05-.18.08-.36.12-.54.03-.16.07-.31.1-.47,0-.04.02-.07.02-.11.06-.32.1-.64.13-.95,0-.05.02-.1.02-.15.07-.72.04-1.43.05-2.14h0v-.04h0c0-.08,0-.27,0-.55,0-.28,0-.64,0-1.08,0-.05,0-.11,0-.16,0-.41,0-.87,0-1.37,0-.7,0-1.47,0-2.29,0-.17,0-.34,0-.52,0-.1,0-.2,0-.3,0-.9,0-1.68,0-2.24,0-.49,0-.98,0-1.45ZM109.49,79.51h-14.41c-.3,0-.59,0-.88,0v-14.65c0-.3,0-.59,0-.88h14.65c.3,0,.59,0,.89,0v14.65c0,.3,0,.59,0,.88h-.25Z"/>
      <g>
        <g>
          <polygon class="st0" points="95.99 44.01 95.99 42.26 107.76 42.26 107.76 44.01 111.09 44.01 111.09 45.92 92.66 45.92 92.66 44.01 95.99 44.01"/>
          <path class="st0" d="M92.83,100.12h2.73c.09.32.2.63.38.91.47.74,1.21,1.21,2.14,1.37l.97,6.11c.06.35.62.35.57,0l-.96-6.06s.06,0,.09,0h.97l.96,6.05c.06.35.62.35.57,0l-.96-6.05h1.07l.96,6.05c.06.35.62.35.57,0l-.96-6.05h1.07l.96,6.05c.06.35.62.35.57,0l-.96-6.05h1.07l.96,6.05c.06.35.62.35.57,0l-.96-6.05h1.07l.96,6.05c.03.18.18.27.33.27s.27-.09.24-.27l-.97-6.07c1.23-.13,2.05-1.1,1.94-2.32,0,0,0,0,0,0h2.58v-2.26h-18.5v2.26ZM96.56,100.12h11.2c.02.79-.51,1.37-1.33,1.39h-7.55c-.62,0-1.2,0-1.74-.45-.33-.28-.49-.6-.58-.94Z"/>
        </g>
        <g>
          <path class="st7" d="M106.76,95.99c-.95-.29-1.88-.65-2.78-1.09-.81-.4-1.6-.86-2.34-1.38-.68-.48-1.33-1.01-1.93-1.59-.56-.54-1.09-1.11-1.57-1.72-.45-.57-.86-1.16-1.24-1.78-.35-.57-.66-1.16-.95-1.76-.26-.54-.49-1.1-.7-1.66-.18-.49-.34-.99-.48-1.49-.12-.41-.22-.82-.31-1.23-.06-.3-.12-.6-.17-.91-.05-.32-.07-.62-.07-.95v-15.57c0-.3,0-.59,0-.88h11.16v-.77c0-.29-.02-.56-.07-.84-.05-.27-.1-.54-.17-.8-.09-.37-.19-.73-.31-1.09-.14-.44-.3-.88-.48-1.32-.21-.5-.44-.99-.7-1.47-.18-.34-.38-.67-.59-1h-9.99c-2.15-6.46-6.53-8.21-6.53-8.21-2.61,1.29-4.79,2.97-6.34,5.29,0,.01-.02.02-.03.03,0,0,0,0,0,0-.06.09-.12.17-.17.26,0,0,0,0,0,0-.08.12-.15.24-.23.37-.21.34-.42.68-.61,1.04-.08.15-.17.3-.25.46-.09.18-.18.37-.26.55-.08.17-.16.34-.24.51-.08.18-.15.37-.23.55-.07.18-.14.36-.21.54-.07.18-.13.36-.19.55-.06.19-.12.39-.18.58-.05.18-.1.35-.15.53-.05.22-.1.43-.15.65-.03.16-.07.31-.1.47-.06.32-.1.64-.13.95,0,.05-.02.1-.02.15-.07.72-.04,1.43-.05,2.14h0v.04c0,.08,0,.27,0,.55,0,.28,0,.64,0,1.08,0,.38,0,.8,0,1.27,0,.76,0,1.63,0,2.54,0,.17,0,.34,0,.52,0,.1,0,.2,0,.3,0,.9,0,1.68,0,2.24,0,.49,0,.98,0,1.45,0,1.38,0,3.23,0,4.77,0,.29,0,.49,0,.54,0,0,0,0,0,0,0,1.17,0,2.08,0,2.31,0,1.08.42,2.4.83,3.49.97,2.56,2.35,5.05,4.36,6.93,2.55,2.39,6.38,4.22,10,4.58.72.07,1.43.04,2.14.05,0,0,14.73,0,15.28,0-.96-.16-1.92-.45-2.86-.74Z"/>
          <path class="st2" d="M126.98,79.4c-.01.72.02,1.42-.05,2.14-.36,3.62-2.19,7.44-4.58,10-1.88,2.01-4.37,3.39-6.93,4.36-1.09.41-2.4.83-3.49.83-.23,0-1.14,0-2.31,0,0,0,0,0,0,0-.05,0-.25,0-.54,0-1.54,0-3.38,0-4.77,0-.47,0-.96,0-1.45,0-.56,0-1.34,0-2.24,0-.1,0-.2,0-.3,0-.17,0-.35,0-.52,0-.91,0-1.78,0-2.54,0-.47,0-.89,0-1.27,0-.44,0-.8,0-1.08,0-.28,0-.47,0-.55,0h-.04c-.72-.01-1.42.02-2.14-.05-.05,0-.1-.02-.15-.02-.32-.03-.63-.08-.95-.13-.16-.03-.31-.06-.47-.1-.22-.05-.43-.09-.65-.15-.18-.04-.35-.09-.53-.15-.19-.06-.39-.11-.58-.18-.18-.06-.37-.12-.55-.19-.18-.07-.36-.14-.54-.21-.19-.07-.37-.15-.55-.23-.17-.08-.34-.16-.51-.24-.18-.09-.37-.17-.55-.26-.15-.08-.3-.17-.46-.25-.35-.19-.7-.4-1.04-.61-.12-.08-.25-.15-.37-.23,0,0,0,0,0,0-.09-.06-.18-.11-.26-.17,0,0,0,0,0,0-.01,0-.02-.02-.03-.03-2.32-1.55-4-3.73-5.29-6.34,0,0,3.12-7.81,16.4-7.7h15.58c.33,0,.63-.02.95-.07.3-.05.61-.1.91-.17.41-.09.83-.19,1.23-.31.5-.14,1-.3,1.49-.48.56-.21,1.12-.44,1.66-.7.6-.29,1.19-.6,1.76-.95.62-.38,1.21-.79,1.78-1.24.61-.48,1.19-1.01,1.72-1.57.58-.6,1.11-1.25,1.59-1.93.52-.74.98-1.52,1.38-2.34.44-.89.8-1.83,1.09-2.78.29-.94.58-1.89.74-2.86,0,.56,0,15.28,0,15.28Z"/>
          <path class="st3" d="M109.64,46.76c.72.01,1.42-.02,2.14.05,3.62.36,7.44,2.19,10,4.58,2.01,1.88,3.39,4.37,4.36,6.93.41,1.09.83,2.4.83,3.49,0,.23,0,1.14,0,2.31,0,0,0,0,0,0,0,.05,0,.25,0,.54,0,1.54,0,3.38,0,4.77,0,.47,0,.96,0,1.45,0,.56,0,1.34,0,2.24,0,.1,0,.2,0,.3,0,.17,0,.35,0,.52,0,.91,0,1.78,0,2.54,0,.47,0,.89,0,1.27,0,.44,0,.8,0,1.08,0,.28,0,.47,0,.55v.03h0c-.01.73.02,1.43-.05,2.15,0,.05-.02.1-.02.15-.03.32-.08.63-.13.95-.03.16-.06.31-.1.47-.05.22-.09.43-.15.65-.04.18-.09.35-.15.53-.06.19-.11.39-.18.58-.06.18-.12.37-.19.55-.07.18-.14.36-.21.54-.07.19-.15.37-.23.55-.08.17-.16.34-.24.51-.09.18-.17.37-.26.55-.08.15-.17.3-.25.46-.19.35-.4.7-.61,1.04-.08.12-.15.25-.23.37,0,0,0,0,0,0-.06.09-.11.18-.17.26,0,0,0,0,0,0,0,.01-.02.02-.03.03-1.55,2.32-3.73,4-6.34,5.29,0,0-7.81-3.12-7.7-16.4v-15.57c0-.33-.02-.63-.07-.95-.05-.3-.1-.61-.17-.91-.09-.41-.19-.83-.31-1.23-.14-.5-.3-1-.48-1.49-.21-.56-.44-1.12-.7-1.66-.29-.6-.6-1.19-.95-1.76-.38-.62-.79-1.21-1.24-1.78-.48-.61-1.01-1.19-1.57-1.72-.6-.58-1.25-1.11-1.93-1.59-.74-.52-1.52-.98-2.34-1.38-.89-.44-1.83-.8-2.78-1.09-.94-.29-1.89-.58-2.86-.74.56,0,15.28,0,15.28,0Z"/>
          <path class="st5" d="M77,64.09c.01-.72-.02-1.42.05-2.14.36-3.62,2.19-7.44,4.58-10,1.88-2.01,4.37-3.39,6.93-4.36,1.09-.41,2.4-.83,3.49-.83.23,0,1.14,0,2.31,0,0,0,0,0,0,0,.05,0,.25,0,.54,0,1.54,0,3.38,0,4.77,0,.47,0,.96,0,1.45,0,.56,0,1.34,0,2.24,0,.1,0,.2,0,.3,0,.17,0,.35,0,.52,0,.91,0,1.78,0,2.54,0,.47,0,.89,0,1.27,0,.44,0,.8,0,1.08,0,.28,0,.47,0,.55,0h.04c.72.01,1.42-.02,2.14.05.05,0,.1.02.15.02.32.03.63.08.95.13.16.03.31.06.47.1.22.05.43.09.65.15.18.04.35.09.53.15.19.06.39.11.58.18.18.06.37.12.55.19.18.07.36.14.54.21.19.07.37.15.55.23.17.08.34.16.51.24.18.09.37.17.55.26.15.08.3.17.46.25.35.19.7.4,1.04.61.12.08.25.15.37.23,0,0,0,0,0,0,.09.06.18.11.26.17,0,0,0,0,0,0,.01,0,.02.02.03.03,2.32,1.55,4,3.73,5.29,6.34,0,0-3.12,7.81-16.4,7.7h-15.57c-.33,0-.63.02-.95.07-.3.05-.61.1-.91.17-.41.09-.83.19-1.23.31-.5.14-1,.3-1.49.48-.56.21-1.12.44-1.66.7-.6.29-1.19.6-1.76.95-.62.38-1.21.79-1.78,1.24-.61.48-1.19,1.01-1.72,1.57-.58.6-1.11,1.25-1.59,1.93-.52.74-.98,1.52-1.38,2.34-.44.89-.8,1.83-1.09,2.78-.29.94-.58,1.89-.74,2.86,0-.56,0-15.28,0-15.28Z"/>
        </g>
      </g>
    </g>
  </g>
</svg>