<?xml version="1.0" encoding="UTF-8"?>
<svg id="_圖層_1" data-name="圖層_1" xmlns="http://www.w3.org/2000/svg" xmlns:xlink="http://www.w3.org/1999/xlink" version="1.1" viewBox="0 0 453.65 151.05">
  <!-- Generator: Adobe Illustrator 30.0.0, SVG Export Plug-In . SVG Version: 2.1.1 Build 123)  -->
  <defs>
    <style>
      .st0 {
        fill: url(#_未命名漸層_445);
      }

      .st0, .st1 {
        opacity: .65;
      }

      .st2 {
        fill: url(#_未命名漸層_436);
      }

      .st2, .st3 {
        opacity: .6;
      }

      .st4 {
        fill: url(#_未命名漸層_317);
      }

      .st4, .st5 {
        opacity: .45;
      }

      .st6 {
        fill: url(#_未命名漸層_318);
      }

      .st6, .st7, .st8, .st9 {
        opacity: .44;
      }

      .st10 {
        fill: url(#_未命名漸層_439);
      }

      .st10, .st11 {
        opacity: .7;
      }

      .st12 {
        fill: url(#_未命名漸層_4342);
      }

      .st13 {
        fill: url(#_未命名漸層_4341);
      }

      .st14 {
        fill: url(#_未命名漸層_4343);
      }

      .st15 {
        fill: #fff;
      }

      .st11 {
        fill: url(#_未命名漸層_4391);
      }

      .st7 {
        fill: url(#_未命名漸層_3181);
      }

      .st8 {
        fill: url(#_未命名漸層_3183);
      }

      .st9 {
        fill: url(#_未命名漸層_3182);
      }

      .st5 {
        fill: url(#_未命名漸層_3171);
      }

      .st1 {
        fill: url(#_未命名漸層_4451);
      }

      .st3 {
        fill: url(#_未命名漸層_4361);
      }

      .st16 {
        fill: url(#_未命名漸層_434);
      }

      .st17 {
        fill: #c1a30a;
      }
    </style>
    <linearGradient id="_未命名漸層_434" data-name="未命名漸層 434" x1="75.99" y1="109.41" x2="75.99" y2="78.09" gradientUnits="userSpaceOnUse">
      <stop offset="0" stop-color="#b82d7b"/>
      <stop offset=".22" stop-color="#c6377b"/>
      <stop offset=".71" stop-color="#df4b7b"/>
      <stop offset="1" stop-color="#e9537b"/>
    </linearGradient>
    <linearGradient id="_未命名漸層_318" data-name="未命名漸層 318" x1="90.49" y1="80.98" x2="66.71" y2="57.86" gradientUnits="userSpaceOnUse">
      <stop offset="0" stop-color="#f6bcb8" stop-opacity=".4"/>
      <stop offset=".14" stop-color="#f4b2b2" stop-opacity=".45"/>
      <stop offset=".39" stop-color="#f197a2" stop-opacity=".58"/>
      <stop offset=".72" stop-color="#ec6d89" stop-opacity=".8"/>
      <stop offset="1" stop-color="#e84572"/>
    </linearGradient>
    <linearGradient id="_未命名漸層_445" data-name="未命名漸層 445" x1="31.62" y1="85.46" x2="74.23" y2="104.26" gradientUnits="userSpaceOnUse">
      <stop offset="0" stop-color="#25814e"/>
      <stop offset=".11" stop-color="#318747"/>
      <stop offset=".31" stop-color="#519936"/>
      <stop offset=".57" stop-color="#85b61b"/>
      <stop offset=".84" stop-color="#abb927" stop-opacity=".37"/>
      <stop offset=".99" stop-color="#c2bc2f" stop-opacity="0"/>
    </linearGradient>
    <linearGradient id="_未命名漸層_439" data-name="未命名漸層 439" x1="51.76" y1="90.09" x2="51.76" y2="44.52" gradientUnits="userSpaceOnUse">
      <stop offset="0" stop-color="#0092c2" stop-opacity=".7"/>
      <stop offset=".27" stop-color="#008fc3" stop-opacity=".76"/>
      <stop offset=".75" stop-color="#0087c6" stop-opacity=".91"/>
      <stop offset="1" stop-color="#0083c9"/>
    </linearGradient>
    <linearGradient id="_未命名漸層_4341" data-name="未命名漸層 434" x1="124.38" x2="124.38" xlink:href="#_未命名漸層_434"/>
    <linearGradient id="_未命名漸層_436" data-name="未命名漸層 436" x1="178.16" y1="87.7" x2="121.37" y2="92.88" gradientUnits="userSpaceOnUse">
      <stop offset=".3" stop-color="#ea5530"/>
      <stop offset=".36" stop-color="#e95232" stop-opacity=".98"/>
      <stop offset=".45" stop-color="#e84b38" stop-opacity=".91"/>
      <stop offset=".54" stop-color="#e73f43" stop-opacity=".8"/>
      <stop offset=".65" stop-color="#e52f52" stop-opacity=".65"/>
      <stop offset=".75" stop-color="#e31b65" stop-opacity=".45"/>
      <stop offset=".86" stop-color="#e0027d" stop-opacity=".22"/>
      <stop offset=".87" stop-color="#e0007f" stop-opacity=".2"/>
    </linearGradient>
    <linearGradient id="_未命名漸層_317" data-name="未命名漸層 317" x1="1803.7" y1="90.09" x2="1803.7" y2="44.52" gradientTransform="translate(1952.32) rotate(-180) scale(1 -1)" gradientUnits="userSpaceOnUse">
      <stop offset="0" stop-color="#fac03d"/>
      <stop offset=".24" stop-color="#f6ab2d"/>
      <stop offset="1" stop-color="#ed6c00"/>
    </linearGradient>
    <linearGradient id="_未命名漸層_3181" data-name="未命名漸層 318" x1="1850.22" y1="65.03" x2="1818.33" y2="65.03" gradientTransform="translate(1952.32) rotate(-180) scale(1 -1)" xlink:href="#_未命名漸層_318"/>
    <linearGradient id="_未命名漸層_4342" data-name="未命名漸層 434" x1="213.74" y1="102.57" x2="213.74" y2="88.12" xlink:href="#_未命名漸層_434"/>
    <linearGradient id="_未命名漸層_3182" data-name="未命名漸層 318" x1="220.43" y1="89.45" x2="209.46" y2="78.79" xlink:href="#_未命名漸層_318"/>
    <linearGradient id="_未命名漸層_4451" data-name="未命名漸層 445" x1="193.28" y1="91.52" x2="212.03" y2="99.8" xlink:href="#_未命名漸層_445"/>
    <linearGradient id="_未命名漸層_4391" data-name="未命名漸層 439" x1="202.57" y1="93.65" x2="202.57" y2="72.64" xlink:href="#_未命名漸層_439"/>
    <linearGradient id="_未命名漸層_4343" data-name="未命名漸層 434" x1="1614.15" y1="85.68" x2="1614.15" y2="78" gradientTransform="translate(1952.32) rotate(-180) scale(1 -1)" xlink:href="#_未命名漸層_434"/>
    <linearGradient id="_未命名漸層_4361" data-name="未命名漸層 436" x1="351.36" y1="80.36" x2="337.43" y2="81.63" xlink:href="#_未命名漸層_436"/>
    <linearGradient id="_未命名漸層_3171" data-name="未命名漸層 317" x1="1608.2" y1="80.94" x2="1608.2" y2="69.77" xlink:href="#_未命名漸層_317"/>
    <linearGradient id="_未命名漸層_3183" data-name="未命名漸層 318" x1="1619.61" y1="74.8" x2="1611.79" y2="74.8" gradientTransform="translate(1952.32) rotate(-180) scale(1 -1)" xlink:href="#_未命名漸層_318"/>
  </defs>
  <g>
    <g>
      <path class="st15" d="M98.76,76.83c0-5.23,0-10.37,0-10.37-.01-1,.02-1.99-.07-2.99-.01-.12-.04-.24-.05-.36-.05-.39-.1-.79-.17-1.19,0-.04-.02-.07-.02-.11-.05-.29-.12-.57-.18-.86-.04-.2-.08-.4-.13-.59-.02-.09-.05-.18-.07-.27-.09-.34-.19-.67-.29-1.01-.03-.09-.05-.18-.08-.27-.06-.19-.12-.37-.19-.55-.12-.33-.24-.66-.37-.98-.1-.26-.2-.51-.31-.76-.02-.06-.05-.11-.08-.16-.14-.31-.28-.62-.43-.92-.06-.13-.12-.27-.19-.4-.06-.13-.13-.25-.2-.37-.44-.83-.92-1.64-1.44-2.4-.04-.06-.08-.12-.12-.18,0,0,0,0,0,0-.01-.02-.02-.03-.04-.05-.58-.87-1.23-1.66-1.93-2.41-.03-.03-.06-.07-.09-.11-.2-.22-.42-.42-.63-.62-.06-.06-.12-.12-.18-.17-1.66-1.57-3.6-2.84-5.66-3.88-.12-.06-.24-.13-.37-.19,0,0,0,0,0,0-.93-.45-1.88-.86-2.84-1.22-1.52-.58-3.35-1.16-4.87-1.16-.32,0-1.59,0-3.22,0,0,0,0,0,0,0-.08,0-.34,0-.75,0-2.15,0-4.72,0-6.65,0-.66,0-1.34,0-2.02,0-.78,0-1.88,0-3.13,0-.14,0-.28,0-.41,0-.24,0-.48,0-.72,0-1.27,0-2.48,0-3.55,0-.21,0-.41,0-.61,0-.32,0-.62,0-.9,0-.08,0-.18,0-.26,0-.61,0-1.12,0-1.51,0-.39,0-.65,0-.76,0h-.06c-1,.01-1.99-.02-2.99.07,0,0-.02,0-.02,0-.06,0-.13.02-.19.03-.44.05-.88.11-1.33.19-.05,0-.09.02-.14.03-.25.05-.49.1-.74.16-.23.05-.45.1-.68.15-.1.03-.2.06-.31.08-.31.08-.62.17-.93.27-.1.03-.21.06-.31.1-.21.07-.42.14-.63.22-.3.1-.59.22-.88.33,0,0,0,0-.01,0-.26.1-.52.21-.77.32-.06.03-.12.06-.18.08-.3.13-.6.28-.9.42-.14.06-.27.13-.41.19-.13.07-.25.14-.38.21-.84.45-1.64.93-2.41,1.45-.05.04-.11.07-.16.11,0,0,0,0,0,0-.02.01-.03.02-.05.04-.86.58-1.66,1.22-2.4,1.92-.04.04-.08.07-.12.1-.25.23-.48.47-.71.72-.02.02-.05.04-.07.07-1.63,1.72-2.94,3.73-4,5.87-.03.06-.06.11-.09.17,0,0,0,0,0,0-.45.93-.86,1.88-1.22,2.84-.58,1.52-1.16,3.35-1.16,4.87,0,.32,0,1.59,0,3.22,0,0,0,0,0,0,0,.08,0,.34,0,.75,0,2.15,0,4.72,0,6.65,0,.66,0,1.34,0,2.02,0,.78,0,1.88,0,3.13,0,.14,0,.28,0,.41,0,.24,0,.48,0,.72,0,1.27,0,2.48,0,3.55,0,.2,0,.39,0,.58,0,.34,0,.67,0,.97,0,.07,0,.15,0,.22,0,.61,0,1.12,0,1.51,0,.38,0,.65,0,.76h0v.05h0c.01,1.01-.02,2,.08,3,0,.07.02.14.03.21.05.44.11.88.19,1.33,0,.05.02.1.03.15.04.22.09.44.14.66.05.25.11.5.17.75.03.11.06.22.09.34.08.28.16.56.24.84.04.12.07.25.11.37.08.25.17.5.26.75.09.24.18.47.27.71,0,.02.02.04.03.07.1.26.2.52.32.77.03.07.07.15.1.22.12.27.24.53.37.79.07.16.15.32.23.48.08.15.16.3.24.44.3.56.61,1.1.95,1.62,0,0,0,.01,0,.02,0,0,0,.01.01.02.13.21.27.43.41.63.05.07.1.15.15.22,0,0,0,0,0,0,.01.02.02.03.04.05.58.87,1.24,1.68,1.95,2.43.03.03.05.06.07.09.17.18.34.34.52.51.1.1.2.21.31.3,1.38,1.3,2.95,2.4,4.62,3.32.02.01.05.03.07.04.29.16.58.31.87.46.15.08.29.16.45.23,0,0,0,0,0,0,.93.45,1.88.86,2.84,1.22,1.52.58,3.35,1.16,4.87,1.16.32,0,1.59,0,3.22,0,0,0,0,0,0,0,.08,0,.35,0,.75,0,2.15,0,4.72,0,6.65,0,.66,0,1.34,0,2.02,0,.78,0,1.88,0,3.13,0,.14,0,.28,0,.41,0,.24,0,.48,0,.72,0,1.14,0,2.22,0,3.2,0,.68,0,1.32,0,1.88,0h.24c.16,0,.29,0,.43,0,.24,0,.45,0,.65,0,.14,0,.3,0,.42,0,.38,0,.65,0,.76,0h.06c1-.01,1.99.02,2.99-.07.07,0,.14-.02.21-.03.44-.05.88-.11,1.33-.19.05,0,.1-.02.15-.03.23-.04.46-.1.7-.15.24-.05.48-.1.72-.16.11-.03.21-.06.32-.09.3-.08.59-.17.88-.26.11-.04.23-.07.34-.1.23-.08.47-.16.7-.24.26-.09.52-.19.79-.3.01,0,.03-.01.04-.02.26-.1.52-.2.77-.32.07-.03.13-.06.2-.09.28-.13.56-.26.84-.39.15-.07.3-.14.44-.21.14-.07.28-.15.41-.23.81-.43,1.6-.9,2.35-1.41.06-.04.13-.08.19-.13,0,0,0,0,0,0,.02-.01.03-.02.05-.04.87-.58,1.67-1.23,2.42-1.93.03-.03.07-.06.1-.09.21-.2.4-.4.6-.61.06-.07.13-.13.2-.2,1.58-1.68,2.86-3.63,3.9-5.7.05-.11.11-.21.17-.32,0,0,0,0,0,0,.45-.93.86-1.88,1.22-2.84.58-1.52,1.16-3.35,1.16-4.87,0-.32,0-1.59,0-3.22,0,0,0,0,0,0,0-.08,0-.35,0-.75,0-2.15,0-4.72,0-6.65,0-.66,0-1.34,0-2.02,0-.43,0-.95,0-1.54ZM53.02,87.98c0-.41.02-.81.01-1.23v-20.46c.41,0,.81.02,1.24.01h20.45c0,.41-.02.81-.01,1.23v20.46c-.41,0-.81-.02-1.23-.01h-20.46Z"/>
      <g>
        <g>
          <polygon class="st17" points="72.44 38.43 72.44 35.99 56.02 35.99 56.02 38.43 51.37 38.43 51.37 41.1 77.09 41.1 77.09 38.43 72.44 38.43"/>
          <path class="st17" d="M76.85,113.61h-25.82v3.15h3.61s0,0,0,0c-.15,1.71.98,3.06,2.7,3.25l-1.35,8.48c-.04.25.14.38.33.38s.42-.13.45-.38l1.34-8.45h1.49l-1.34,8.45c-.08.49.71.49.79,0l1.34-8.45h1.49l-1.34,8.45c-.08.49.71.49.79,0l1.34-8.45h1.49l-1.34,8.45c-.08.49.71.49.79,0l1.34-8.45h1.49l-1.34,8.45c-.08.49.71.49.79,0l1.34-8.45h1.36s.09,0,.13,0l-1.34,8.46c-.08.49.71.49.79,0l1.36-8.53c1.31-.22,2.34-.88,2.99-1.91.25-.4.42-.83.54-1.28h3.81v-3.15ZM70.83,118.07c-.75.64-1.57.63-2.43.63h-.24s-10.3,0-10.3,0c-1.14-.02-1.88-.84-1.85-1.94h15.63c-.13.48-.36.93-.81,1.31Z"/>
        </g>
        <g>
          <path class="st16" d="M98.68,63.47c0-.07-.02-.14-.03-.21-.05-.44-.11-.88-.19-1.33-.04-.22-.09-.44-.14-.66-.06-.3-.13-.6-.2-.9-.06-.25-.13-.49-.2-.74-.08-.27-.16-.54-.25-.81-.08-.26-.17-.51-.26-.77-.09-.25-.19-.51-.29-.76-.1-.26-.2-.52-.32-.77-.1-.24-.22-.48-.33-.71-.12-.26-.24-.52-.37-.77-.11-.22-.23-.42-.35-.64-.27-.49-.55-.98-.85-1.45-.11-.17-.21-.35-.32-.51,0,0,0,0,0,0-.08-.12-.16-.25-.24-.36,0,0,0,0,0,0-.01-.02-.02-.03-.04-.05-2.17-3.24-5.21-5.59-8.85-7.38,0,0-6.12,2.45-9.12,11.47h-13.95c-.29.46-.56.92-.82,1.4-.36.67-.68,1.36-.98,2.05-.25.6-.48,1.22-.68,1.84-.16.5-.31,1.01-.43,1.53-.09.37-.17.75-.23,1.12-.07.4-.1.77-.1,1.18v1.08h15.58c0,.41-.02.81-.01,1.23v21.74c0,.45-.03.88-.1,1.33-.07.42-.14.85-.23,1.26-.12.58-.27,1.15-.43,1.72-.2.7-.42,1.39-.68,2.08-.29.79-.61,1.56-.97,2.32-.4.84-.84,1.66-1.33,2.46-.53.86-1.1,1.69-1.73,2.48-.67.85-1.41,1.65-2.19,2.4-.84.81-1.75,1.55-2.7,2.22-1.03.73-2.13,1.37-3.26,1.92-1.25.61-2.55,1.11-3.88,1.52-1.31.4-2.64.8-3.99,1.03.78,0,21.33,0,21.33,0,1-.01,1.99.02,2.99-.07,5.05-.5,10.39-3.06,13.95-6.39,2.8-2.62,4.73-6.1,6.08-9.68.58-1.52,1.16-3.35,1.16-4.87,0-.32,0-1.59,0-3.22,0,0,0,0,0,0,0-.08,0-.34,0-.75,0-2.15,0-4.72,0-6.65,0-.66,0-1.34,0-2.02,0-.78,0-1.88,0-3.13,0-.14,0-.28,0-.41,0-.24,0-.48,0-.72,0-1.27,0-2.48,0-3.55,0-.65,0-1.25,0-1.77,0-.61,0-1.12,0-1.51,0-.39,0-.65,0-.76v-.05h0c-.01-1.01.02-2-.07-3Z"/>
          <path class="st6" d="M98.76,66.46c-.01-1,.02-1.99-.07-2.99-.5-5.05-3.06-10.39-6.39-13.95-2.63-2.8-6.1-4.73-9.68-6.08-1.52-.58-3.35-1.16-4.87-1.16-.32,0-1.59,0-3.22,0,0,0,0,0,0,0-.08,0-.34,0-.75,0-2.15,0-4.72,0-6.65,0-.66,0-1.34,0-2.02,0-.78,0-1.88,0-3.13,0-.14,0-.28,0-.41,0-.24,0-.48,0-.72,0-1.27,0-2.48,0-3.55,0-.65,0-1.25,0-1.77,0-.61,0-1.12,0-1.51,0-.39,0-.65,0-.76,0h-.06c-1,.01-1.99-.02-2.99.07-.07,0-.14.02-.21.03-.44.05-.88.11-1.33.19-.22.04-.44.09-.66.14-.3.06-.6.13-.9.2-.25.06-.49.13-.74.2-.27.08-.54.16-.81.25-.26.08-.51.17-.77.26-.26.09-.51.19-.76.29-.26.1-.52.21-.77.32-.24.1-.48.22-.71.33-.26.12-.52.24-.77.37-.22.11-.42.23-.64.35-.49.27-.98.55-1.45.85-.17.11-.35.21-.51.32,0,0,0,0,0,0-.12.08-.25.16-.36.24,0,0,0,0,0,0-.02.01-.03.02-.05.04-3.24,2.17-5.59,5.21-7.38,8.85,0,0,4.36,10.9,22.89,10.74h21.74c.45,0,.88.03,1.33.1.42.07.85.14,1.26.23.58.12,1.15.27,1.72.43.7.2,1.39.42,2.08.68.79.29,1.56.61,2.32.97.84.4,1.66.84,2.46,1.33.86.53,1.69,1.1,2.48,1.73.85.67,1.65,1.41,2.4,2.19.81.84,1.55,1.75,2.22,2.7.73,1.03,1.37,2.13,1.92,3.26.61,1.25,1.11,2.55,1.52,3.88.4,1.31.8,2.64,1.03,3.99,0-.78,0-21.33,0-21.33Z"/>
          <path class="st0" d="M28.99,87.83c.01,1-.02,1.99.07,2.99.5,5.05,3.06,10.39,6.39,13.95,2.63,2.8,6.1,4.73,9.68,6.09,1.52.58,3.35,1.16,4.87,1.16.32,0,1.59,0,3.22,0,0,0,0,0,0,0,.08,0,.34,0,.75,0,2.15,0,4.72,0,6.65,0,.66,0,1.34,0,2.02,0,.78,0,1.88,0,3.13,0,.14,0,.28,0,.41,0,.24,0,.48,0,.72,0,1.27,0,2.48,0,3.55,0,.65,0,1.25,0,1.77,0,.61,0,1.12,0,1.51,0,.39,0,.65,0,.76,0h.06c1-.01,1.99.02,2.99-.07.07,0,.14-.02.21-.03.44-.05.88-.11,1.33-.19.22-.04.44-.09.66-.14.3-.06.6-.13.9-.2.25-.06.49-.13.74-.2.27-.08.54-.16.81-.25.26-.08.51-.17.77-.26.25-.09.51-.19.76-.29.26-.1.52-.2.77-.32.24-.1.48-.22.71-.33.26-.12.52-.24.77-.37.22-.11.42-.23.64-.35.49-.27.98-.55,1.45-.85.17-.11.34-.21.51-.32,0,0,0,0,0,0,.12-.08.25-.16.36-.24,0,0,0,0,0,0,.02-.01.03-.02.05-.04,3.24-2.17,5.59-5.21,7.38-8.85,0,0-4.36-10.9-22.89-10.74h-21.74c-.45,0-.88-.03-1.33-.1-.42-.07-.85-.15-1.26-.23-.58-.12-1.15-.27-1.72-.43-.7-.2-1.39-.42-2.08-.68-.79-.29-1.56-.61-2.32-.97-.84-.4-1.66-.84-2.46-1.33-.86-.53-1.69-1.1-2.48-1.73-.85-.67-1.65-1.41-2.4-2.19-.81-.84-1.55-1.75-2.22-2.7-.73-1.03-1.37-2.13-1.92-3.26-.61-1.25-1.11-2.55-1.52-3.88-.4-1.31-.8-2.64-1.03-3.99,0,.78,0,21.33,0,21.33Z"/>
          <path class="st10" d="M53.19,42.26c-1,.01-1.99-.02-2.99.07-5.05.5-10.39,3.06-13.95,6.39-2.8,2.63-4.73,6.1-6.08,9.68-.58,1.52-1.16,3.35-1.16,4.87,0,.32,0,1.59,0,3.22,0,0,0,0,0,0,0,.08,0,.34,0,.75,0,2.15,0,4.72,0,6.65,0,.66,0,1.34,0,2.02,0,.78,0,1.88,0,3.13,0,.14,0,.28,0,.41,0,.24,0,.48,0,.72,0,1.27,0,2.48,0,3.55,0,.65,0,1.25,0,1.77,0,.61,0,1.12,0,1.51,0,.39,0,.65,0,.76v.05h0c.01,1.01-.02,2,.07,3,0,.07.02.14.03.21.05.44.11.88.19,1.33.04.22.09.44.14.66.06.3.13.6.2.9.06.25.13.49.2.74.08.27.16.54.25.81.08.26.17.51.26.77.09.25.19.51.29.76.1.26.21.52.32.77.1.24.22.48.33.71.12.26.24.52.37.77.11.22.23.42.35.64.27.49.55.98.85,1.45.11.17.21.35.32.51,0,0,0,0,0,0,.08.12.16.25.24.36,0,0,0,0,0,0,.01.02.02.03.04.05,2.17,3.24,5.21,5.59,8.85,7.38,0,0,10.9-4.36,10.74-22.89v-21.74c0-.45.03-.88.1-1.33.07-.42.14-.85.23-1.26.12-.58.27-1.15.43-1.72.2-.7.42-1.39.68-2.08.29-.79.61-1.56.97-2.32.4-.84.84-1.66,1.33-2.46.53-.86,1.1-1.69,1.73-2.48.67-.85,1.41-1.65,2.19-2.4.84-.81,1.75-1.55,2.7-2.22,1.03-.73,2.13-1.37,3.26-1.92,1.25-.61,2.55-1.11,3.88-1.52,1.31-.4,2.64-.8,3.99-1.03-.78,0-21.33,0-21.33,0Z"/>
        </g>
      </g>
    </g>
    <g>
      <path class="st15" d="M171.35,73.9c0-1.93,0-4.51,0-6.65,0-.41,0-.68,0-.75,0,0,0,0,0,0,0-1.63,0-2.9,0-3.22,0-1.51-.59-3.34-1.16-4.87-.36-.96-.77-1.91-1.22-2.84,0,0,0,0,0,0-.03-.06-.06-.12-.09-.17-1.06-2.14-2.36-4.15-4-5.87-.02-.02-.05-.04-.07-.07-.23-.24-.46-.49-.71-.72-.04-.04-.08-.07-.12-.1-.74-.7-1.54-1.34-2.4-1.92-.02-.01-.03-.02-.05-.04,0,0,0,0,0,0-.05-.04-.11-.07-.16-.11-.77-.52-1.57-1-2.41-1.45-.13-.07-.25-.14-.38-.21-.13-.07-.27-.13-.41-.19-.3-.15-.6-.29-.9-.42-.06-.03-.12-.06-.18-.08-.26-.11-.51-.21-.77-.32,0,0,0,0-.01,0-.29-.12-.58-.23-.88-.33-.21-.07-.42-.15-.63-.22-.1-.03-.21-.06-.31-.1-.31-.1-.62-.19-.93-.27-.1-.03-.2-.06-.31-.08-.23-.06-.45-.1-.68-.15-.25-.05-.49-.11-.74-.16-.05,0-.09-.02-.14-.03-.44-.08-.89-.14-1.33-.19-.06,0-.13-.02-.19-.03,0,0-.01,0-.02,0-1.01-.1-1.99-.06-2.99-.07h-.06c-.11,0-.37,0-.76,0-.39,0-.9,0-1.51,0-.08,0-.17,0-.26,0-.28,0-.59,0-.9,0-.2,0-.4,0-.61,0-1.07,0-2.27,0-3.55,0-.24,0-.48,0-.72,0-.14,0-.28,0-.41,0-1.26,0-2.35,0-3.13,0-.69,0-1.36,0-2.02,0-1.93,0-4.51,0-6.65,0-.41,0-.68,0-.75,0,0,0,0,0,0,0-1.63,0-2.9,0-3.22,0-1.51,0-3.34.59-4.87,1.16-.96.36-1.91.77-2.84,1.22,0,0,0,0,0,0-.13.06-.25.13-.37.19-2.06,1.03-3.99,2.3-5.66,3.88-.06.06-.12.12-.18.17-.21.21-.43.41-.63.62-.03.03-.06.07-.09.11-.7.75-1.35,1.54-1.93,2.41-.01.02-.02.03-.04.05,0,0,0,0,0,0-.04.06-.08.12-.12.18-.52.76-1,1.57-1.44,2.4-.07.12-.14.25-.2.37-.07.13-.13.27-.19.4-.15.3-.29.61-.43.92-.02.05-.05.11-.08.16-.11.25-.21.51-.31.76-.13.33-.25.65-.37.98-.06.18-.13.37-.19.55-.03.09-.05.18-.08.27-.11.34-.2.67-.29,1.01-.02.09-.05.18-.07.27-.05.2-.09.4-.13.59-.06.29-.13.57-.18.86,0,.04-.02.07-.02.11-.07.4-.12.79-.17,1.19-.01.12-.04.24-.05.36-.1,1.01-.06,1.99-.07,2.99,0,0,0,5.13,0,10.37,0,.59,0,1.11,0,1.54,0,.69,0,1.36,0,2.02,0,1.93,0,4.51,0,6.65,0,.41,0,.68,0,.75,0,0,0,0,0,0,0,1.63,0,2.9,0,3.22,0,1.51.59,3.34,1.16,4.87.36.96.77,1.91,1.22,2.84,0,0,0,0,0,0,.05.11.11.21.17.32,1.04,2.07,2.32,4.03,3.9,5.7.06.07.13.13.19.2.2.2.39.41.6.61.03.03.07.06.1.09.75.7,1.55,1.35,2.42,1.93.02.01.03.02.05.04,0,0,0,0,0,0,.06.04.13.09.19.13.75.51,1.53.97,2.34,1.41.14.08.27.15.41.23.15.07.3.14.44.21.28.14.56.27.84.39.07.03.13.06.2.09.26.11.51.21.77.32.01,0,.03.01.04.02.26.1.52.2.79.3.23.08.46.16.7.24.11.04.23.07.34.1.29.09.59.18.88.26.11.03.21.06.32.09.24.06.48.11.72.16.23.05.46.1.7.15.05,0,.1.02.15.03.44.08.89.14,1.33.19.07,0,.14.02.21.03,1.01.1,1.99.06,2.99.07h.06c.11,0,.37,0,.76,0,.12,0,.27,0,.42,0,.2,0,.41,0,.65,0,.14,0,.28,0,.43,0h.24c.56,0,1.2,0,1.88,0,.98,0,2.06,0,3.2,0,.24,0,.48,0,.72,0,.14,0,.28,0,.41,0,1.26,0,2.35,0,3.13,0,.69,0,1.36,0,2.02,0,1.93,0,4.51,0,6.65,0,.41,0,.68,0,.75,0,0,0,0,0,0,0,1.63,0,2.9,0,3.22,0,1.51,0,3.34-.59,4.87-1.16.96-.36,1.91-.77,2.84-1.22,0,0,0,0,0,0,.15-.07.3-.16.45-.23.29-.15.58-.3.87-.46.02-.01.05-.03.07-.04,1.67-.92,3.24-2.02,4.62-3.32.11-.1.2-.2.31-.3.17-.17.35-.33.52-.51.03-.03.05-.06.07-.09.71-.75,1.36-1.56,1.94-2.43.01-.02.02-.03.04-.05,0,0,0,0,0,0,.05-.07.1-.15.15-.22.14-.21.27-.42.41-.63,0,0,0-.01.01-.02,0,0,0-.01,0-.02.33-.53.65-1.07.95-1.62.08-.15.17-.29.24-.44.08-.16.15-.32.23-.48.13-.26.25-.52.37-.79.03-.07.07-.15.1-.22.11-.26.21-.51.32-.77,0-.02.02-.04.03-.07.09-.24.18-.47.27-.71.09-.25.18-.5.26-.75.04-.12.08-.25.11-.37.09-.28.17-.56.24-.84.03-.11.06-.22.09-.34.06-.25.12-.5.17-.75.05-.22.1-.44.14-.66,0-.05.02-.1.03-.15.08-.44.14-.89.19-1.33,0-.07.02-.14.03-.21.1-1.01.06-1.99.07-2.99h0v-.06h0c0-.12,0-.38,0-.76,0-.39,0-.9,0-1.51,0-.07,0-.15,0-.22,0-.57,0-1.21,0-1.91,0-.98,0-2.06,0-3.19,0-.24,0-.48,0-.72,0-.14,0-.27,0-.41,0-1.26,0-2.35,0-3.13,0-.69,0-1.36,0-2.02ZM146.97,87.98h-20.11c-.42,0-.83,0-1.23.01v-20.46c0-.42,0-.83-.01-1.23h20.45c.42,0,.83,0,1.24-.01v20.46c0,.42,0,.83.01,1.23h-.34Z"/>
      <g>
        <g>
          <polygon class="st17" points="128.13 38.43 128.13 35.99 144.56 35.99 144.56 38.43 149.2 38.43 149.2 41.1 123.48 41.1 123.48 38.43 128.13 38.43"/>
          <path class="st17" d="M123.73,116.76h3.81c.12.44.28.88.54,1.28.65,1.03,1.69,1.69,2.99,1.91l1.36,8.53c.08.49.87.49.79,0l-1.34-8.46s.09,0,.13,0h1.36l1.34,8.45c.08.49.87.49.79,0l-1.34-8.45h1.49l1.34,8.45c.08.49.87.49.79,0l-1.34-8.45h1.49l1.34,8.45c.08.49.87.49.79,0l-1.34-8.45h1.49l1.34,8.45c.08.49.87.49.79,0l-1.34-8.45h1.49l1.34,8.45c.04.25.26.38.45.38s.37-.13.33-.38l-1.35-8.48c1.72-.19,2.86-1.54,2.7-3.25,0,0,0,0,0,0h3.61v-3.15h-25.82v3.15ZM128.93,116.76h15.63c.03,1.1-.71,1.91-1.85,1.94h-10.54c-.87,0-1.68.01-2.43-.63-.46-.39-.68-.83-.81-1.31Z"/>
        </g>
        <g>
          <path class="st13" d="M143.17,111c-1.33-.41-2.63-.91-3.88-1.52-1.13-.55-2.23-1.2-3.26-1.92-.95-.67-1.86-1.41-2.7-2.22-.78-.75-1.51-1.55-2.19-2.4-.63-.79-1.2-1.62-1.73-2.48-.48-.79-.93-1.61-1.33-2.46-.36-.76-.68-1.53-.97-2.32-.25-.68-.48-1.38-.68-2.08-.16-.57-.31-1.14-.43-1.72-.09-.42-.17-.84-.23-1.26-.07-.45-.1-.87-.1-1.33v-21.74c0-.42,0-.83-.01-1.23h15.58v-1.08c0-.4-.03-.78-.1-1.18-.07-.38-.15-.75-.23-1.12-.12-.51-.27-1.02-.43-1.53-.2-.62-.42-1.23-.68-1.84-.29-.7-.62-1.38-.98-2.05-.25-.47-.53-.94-.82-1.4h-13.95c-3-9.02-9.12-11.47-9.12-11.47-3.64,1.79-6.69,4.15-8.85,7.38-.01.02-.02.03-.04.05,0,0,0,0,0,0-.08.12-.16.24-.24.36,0,0,0,0,0,0-.11.17-.21.34-.32.51-.3.47-.58.95-.85,1.45-.12.21-.24.42-.35.64-.13.25-.25.51-.37.77-.11.24-.23.47-.33.71-.11.26-.21.51-.32.77-.1.25-.2.5-.29.76-.09.25-.18.51-.26.77-.09.27-.17.54-.25.81-.07.25-.14.49-.2.74-.08.3-.14.6-.2.9-.05.22-.1.44-.14.66-.08.44-.14.89-.19,1.33,0,.07-.02.14-.03.21-.1,1.01-.06,1.99-.07,2.99h0v.06c0,.11,0,.37,0,.76,0,.39,0,.9,0,1.51,0,.53,0,1.12,0,1.77,0,1.07,0,2.27,0,3.55,0,.24,0,.48,0,.72,0,.14,0,.27,0,.41,0,1.26,0,2.35,0,3.13,0,.69,0,1.36,0,2.02,0,1.93,0,4.51,0,6.65,0,.41,0,.68,0,.75,0,0,0,0,0,0,0,1.63,0,2.9,0,3.22,0,1.51.59,3.34,1.16,4.87,1.35,3.58,3.28,7.05,6.08,9.68,3.56,3.34,8.9,5.9,13.95,6.39,1.01.1,1.99.06,2.99.07,0,0,20.56,0,21.33,0-1.35-.22-2.68-.63-3.99-1.03Z"/>
          <path class="st2" d="M171.38,87.83c-.01,1,.02,1.99-.07,2.99-.5,5.05-3.06,10.39-6.39,13.95-2.63,2.8-6.1,4.73-9.68,6.09-1.52.58-3.35,1.16-4.87,1.16-.32,0-1.59,0-3.22,0,0,0,0,0,0,0-.08,0-.34,0-.75,0-2.15,0-4.72,0-6.65,0-.66,0-1.34,0-2.02,0-.78,0-1.88,0-3.13,0-.14,0-.28,0-.41,0-.24,0-.48,0-.72,0-1.27,0-2.48,0-3.55,0-.65,0-1.25,0-1.77,0-.61,0-1.12,0-1.51,0-.39,0-.65,0-.76,0h-.06c-1-.01-1.99.02-2.99-.07-.07,0-.14-.02-.21-.03-.44-.05-.88-.11-1.33-.19-.22-.04-.44-.09-.66-.14-.3-.06-.6-.13-.9-.2-.25-.06-.49-.13-.74-.2-.27-.08-.54-.16-.81-.25-.26-.08-.51-.17-.77-.26-.25-.09-.51-.19-.76-.29-.26-.1-.52-.2-.77-.32-.24-.1-.48-.22-.71-.33-.26-.12-.52-.24-.77-.37-.22-.11-.42-.23-.64-.35-.49-.27-.98-.55-1.45-.85-.17-.11-.34-.21-.51-.32,0,0,0,0,0,0-.12-.08-.25-.16-.36-.24,0,0,0,0,0,0-.02-.01-.03-.02-.05-.04-3.24-2.17-5.59-5.21-7.38-8.85,0,0,4.36-10.9,22.89-10.74h21.74c.45,0,.88-.03,1.33-.1.42-.07.85-.15,1.26-.23.58-.12,1.15-.27,1.72-.43.7-.2,1.39-.42,2.08-.68.79-.29,1.56-.61,2.32-.97.84-.4,1.66-.84,2.46-1.33.86-.53,1.69-1.1,2.48-1.73.85-.67,1.65-1.41,2.4-2.19.81-.84,1.55-1.75,2.22-2.7.73-1.03,1.37-2.13,1.92-3.26.61-1.25,1.11-2.55,1.52-3.88.4-1.31.8-2.64,1.03-3.99,0,.78,0,21.33,0,21.33Z"/>
          <path class="st4" d="M147.18,42.26c1,.01,1.99-.02,2.99.07,5.05.5,10.39,3.06,13.95,6.39,2.8,2.63,4.73,6.1,6.08,9.68.58,1.52,1.16,3.35,1.16,4.87,0,.32,0,1.59,0,3.22,0,0,0,0,0,0,0,.08,0,.34,0,.75,0,2.15,0,4.72,0,6.65,0,.66,0,1.34,0,2.02,0,.78,0,1.88,0,3.13,0,.14,0,.28,0,.41,0,.24,0,.48,0,.72,0,1.27,0,2.48,0,3.55,0,.65,0,1.25,0,1.77,0,.61,0,1.12,0,1.51,0,.39,0,.65,0,.76v.05h0c-.01,1.01.02,2-.07,3,0,.07-.02.14-.03.21-.05.44-.11.88-.19,1.33-.04.22-.09.44-.14.66-.06.3-.13.6-.2.9-.06.25-.13.49-.2.74-.08.27-.16.54-.25.81-.08.26-.17.51-.26.77-.09.25-.19.51-.29.76-.1.26-.21.52-.32.77-.1.24-.22.48-.33.71-.12.26-.24.52-.37.77-.11.22-.23.42-.35.64-.27.49-.55.98-.85,1.45-.11.17-.21.35-.32.51,0,0,0,0,0,0-.08.12-.16.25-.24.36,0,0,0,0,0,0-.01.02-.02.03-.04.05-2.17,3.24-5.21,5.59-8.85,7.38,0,0-10.9-4.36-10.74-22.89v-21.74c0-.45-.03-.88-.1-1.33-.07-.42-.14-.85-.23-1.26-.12-.58-.27-1.15-.43-1.72-.2-.7-.42-1.39-.68-2.08-.29-.79-.61-1.56-.97-2.32-.4-.84-.84-1.66-1.33-2.46-.53-.86-1.1-1.69-1.73-2.48-.67-.85-1.41-1.65-2.19-2.4-.84-.81-1.75-1.55-2.7-2.22-1.03-.73-2.13-1.37-3.26-1.92-1.25-.61-2.55-1.11-3.88-1.52-1.31-.4-2.64-.8-3.99-1.03.78,0,21.33,0,21.33,0Z"/>
          <path class="st7" d="M101.61,66.46c.01-1-.02-1.99.07-2.99.5-5.05,3.06-10.39,6.39-13.95,2.63-2.8,6.1-4.73,9.68-6.08,1.52-.58,3.35-1.16,4.87-1.16.32,0,1.59,0,3.22,0,0,0,0,0,0,0,.08,0,.34,0,.75,0,2.15,0,4.72,0,6.65,0,.66,0,1.34,0,2.02,0,.78,0,1.88,0,3.13,0,.14,0,.28,0,.41,0,.24,0,.48,0,.72,0,1.27,0,2.48,0,3.55,0,.65,0,1.25,0,1.77,0,.61,0,1.12,0,1.51,0,.39,0,.65,0,.76,0h.06c1,.01,1.99-.02,2.99.07.07,0,.14.02.21.03.44.05.88.11,1.33.19.22.04.44.09.66.14.3.06.6.13.9.2.25.06.49.13.74.2.27.08.54.16.81.25.26.08.51.17.77.26.25.09.51.19.76.29.26.1.52.21.77.32.24.1.48.22.71.33.26.12.52.24.77.37.22.11.42.23.64.35.49.27.98.55,1.45.85.17.11.34.21.51.32,0,0,0,0,0,0,.12.08.25.16.36.24,0,0,0,0,0,0,.02.01.03.02.05.04,3.24,2.17,5.59,5.21,7.38,8.85,0,0-4.36,10.9-22.89,10.74h-21.74c-.45,0-.88.03-1.33.1-.42.07-.85.14-1.26.23-.58.12-1.15.27-1.72.43-.7.2-1.39.42-2.08.68-.79.29-1.56.61-2.32.97-.84.4-1.66.84-2.46,1.33-.86.53-1.69,1.1-2.48,1.73-.85.67-1.65,1.41-2.4,2.19-.81.84-1.55,1.75-2.22,2.7-.73,1.03-1.37,2.13-1.92,3.26-.61,1.25-1.11,2.55-1.52,3.88-.4,1.31-.8,2.64-1.03,3.99,0-.78,0-21.33,0-21.33Z"/>
        </g>
      </g>
    </g>
  </g>
  <path class="st15" d="M257.43,38.28c1.83.33,4.61.5,8.33.5.54,0,.81.1.81.28,0,.24-.16.45-.49.64-.43.33-.65.78-.65,1.35v45.91c.59-.43,1.16-.83,1.7-1.2.21,2.5.65,4.98,1.29,7.44-6.31,3.4-12.58,6.23-18.84,8.5-.32.52-.65.78-.97.78-.27,0-.46-.17-.57-.5-.76-2.22-1.81-4.44-3.15-6.66,3.23-.71,7.14-1.94,11.72-3.68.43-.19.78-.35,1.05-.5v-27.56h-10.11l-1.86-6.8h11.96v-14.03c0-1.42-.08-2.91-.24-4.46ZM269.8,38.63c1.72.28,4.28.43,7.68.43.59,0,.89.14.89.42s-.14.5-.4.64c-.32.24-.49.52-.49.85v15.8h12.53l-1.78,6.8h-10.75v30.68c0,.9.94,1.35,2.83,1.35,2.1,0,3.29-.69,3.56-2.05.21-.94.38-6.26.49-15.94v-2.9c1.99.71,4.5,1.32,7.52,1.84-.22,2.74-.35,5.43-.4,8.08-.16,6.52-.94,11.1-2.34,13.74-1.56,2.83-4.99,4.25-10.27,4.25-3.83,0-6.28-.57-7.36-1.7-.86-.85-1.29-2.31-1.29-4.39v-53.85c0-1.37-.14-2.72-.4-4.04Z"/>
  <path class="st15" d="M389.52,78.47v-3.97h-6.87v4.68h6.22c1.72,1.7,3.42,3.4,5.09,5.1h-11.32v11.97c1.78-.38,3.83-.83,6.14-1.35.16-.05.27-.07.32-.07-.86-2.93-1.81-5.67-2.83-8.22,2.05-.52,3.99-1.2,5.82-2.05,2.05,5.67,3.83,11.38,5.34,17.15-2.05.61-4.02,1.37-5.9,2.27-.27-1.28-.54-2.46-.81-3.54-5.61,1.18-10.99,2.24-16.17,3.19-.38.38-.65.57-.81.57-.32,0-.51-.19-.57-.57.11-.95.16-1.91.16-2.91s-.16-2.08-.48-3.26h2.51c.27,0,.54-.02.81-.07v-34.36c0-.85-.08-1.7-.24-2.55l6.71,5.6v3.76h6.87v-3.68l6.14-5.6c-.22.85-.32,1.68-.32,2.48v18.7c0,.85.05,1.7.16,2.55-1.99-1.94-3.99-3.87-5.98-5.81ZM380.15,38.93c1.83.33,4.1.54,6.79.64.59,0,.89.1.89.28,0,.28-.35.61-1.05.99-.54,1.56-1.05,3.05-1.54,4.46h11.16c-.16.95-.24,1.91-.24,2.9,0,.61.03,1.2.08,1.77,1.62-3.45,2.88-6.97,3.8-10.56,1.89.33,4.23.54,7.03.64.65,0,.97.12.97.35,0,.28-.35.61-1.05.99-.48,1.61-1,3.09-1.54,4.46h12.61c-.16.95-.24,1.91-.24,2.9s.08,1.98.24,2.98h-7.36l1.78,7.51h-6.63l-1.7-7.51h-1.13c-1.62,3.68-3.31,6.92-5.09,9.71l6.47,6.16v33.23c0,.99.08,2.01.24,3.05-2.48-.28-4.82-.24-7.03.14.21-1.09.32-2.15.32-3.19v-35.92c0-1.56-.19-2.86-.57-3.9-1.4-1.37-2.86-2.48-4.37-3.33l.32,1.13h-6.55l-2.43-7.72h-1.37c-1.4,3.35-2.91,6.33-4.53,8.93-1.67-1.75-3.48-3.14-5.42-4.18,3.23-5.2,5.6-10.84,7.11-16.93ZM388.88,65.57h-5.34l-6.31-5.1h17.06c-1.78,1.7-3.58,3.4-5.42,5.1ZM392.76,56.78c1.13-1.84,2.13-3.73,2.99-5.67h-4.69l1.7,5.67ZM398.9,60.75h16.57l-6.22,5.95h-4.12l-6.22-5.95ZM416.69,60.75c-.32,1.13-.48,2.29-.48,3.47v32.52c0,1.75-.67,3.05-2.02,3.9-.97.52-2.32.87-4.04,1.06-1.08.19-1.97.33-2.67.43-.32-1.98-1.08-4.28-2.26-6.87.75.14,1.4.21,1.94.21,1.72,0,2.59-.26,2.59-.78v-27.07l6.95-6.87Z"/>
  <path class="st15" d="M200.28,38.9c2.06.36,4.68.7,7.87,1.01.51.05.77.2.77.47,0,.18-.26.43-.77.74l-9.18,20.98c4.53-.45,10.9-1.22,19.13-2.3.62-.04,1.23-.09,1.85-.14-2.11-4.51-4.63-9.18-7.56-14.01,2.57-1.17,4.5-2.28,5.79-3.32,4.78,6.41,9.13,14.73,13.04,24.97-2.26.99-4.45,2.23-6.56,3.72-.62-1.76-1.29-3.52-2.01-5.28-11.52,1.31-22.68,2.5-33.48,3.59-.46.41-.77.61-.93.61-.36,0-.59-.2-.69-.61.2-1.04.31-2.1.31-3.18s-.18-2.28-.54-3.59h3.32c4.32-8.89,7.53-16.78,9.64-23.68Z"/>
  <g>
    <path class="st15" d="M347.72,96.71l1.21-8.71h-5.82l-1.21,8.71h-2.43l-1.05-8.57h-5.82l1.05,8.57h-5.25c-.54,1.84-1.08,3.68-1.62,5.53h28.38l-1.54-5.53h-5.9Z"/>
    <path class="st15" d="M357.02,49.74c-1.78-.85-3.4-1.72-4.85-2.62-1.29,2.98-2.86,5.81-4.69,8.5-.54-1.18-1.05-2.43-1.54-3.76,1.89-2.69,3.83-5.62,5.82-8.79.48-.09.73-.24.73-.43s-.16-.33-.48-.43c-1.78-.85-3.4-1.72-4.85-2.62-.86,2.27-1.94,4.44-3.23,6.52-.22-.66-.43-1.35-.65-2.05-.48.52-1.05,1.02-1.7,1.49.21-1.13.4-2.31.57-3.54h-13.99l1.54,5.53h5.34c-.38,2.27-.89,4.46-1.54,6.59-1.24-1.09-2.61-2.08-4.12-2.98-.48.76-1.02,1.49-1.62,2.2-1.24-.19-2.34-.4-3.31-.64-.16,2.46-.57,4.98-1.21,7.58-.16.61-.32,1.23-.49,1.84v-21.33c0-.33.08-.61.24-.85.27-.09.4-.28.4-.57s-.24-.43-.73-.43c-2.64,0-4.72-.07-6.22-.21.43,5.1.65,11.5.65,19.2,0,1.61-.03,3.21-.08,4.82-.86-4.53-1.89-9.09-3.07-13.67-1.51.71-3.1,1.28-4.77,1.7,1.72,6.66,3.13,13.77,4.2,21.33,1.08-.47,2.18-.92,3.31-1.35-.32,5.62-.92,10.68-1.78,15.16-.86,5.29-2.51,9.92-4.93,13.89,1.56.9,3.42,2.29,5.58,4.18,2.26-4.87,3.91-9.83,4.93-14.88,1.4,3.02,2.8,6.42,4.2,10.2,1.29-1.89,2.72-3.68,4.28-5.39-2.21-5.81-4.55-10.65-7.03-14.52.32-3.5.54-7.3.65-11.41.92.19,1.94.45,3.07.78,1.46-3.64,2.53-7.6,3.23-11.9.92.76,1.91,1.63,2.99,2.62-.22.71-.48,1.44-.81,2.2-2.05,4.44-4.23,7.58-6.55,9.42,1.35,1.51,2.53,3.19,3.56,5.03,1.08-.94,2.15-2.08,3.23-3.4v.02c1.19-1.47,2.02-2.71,2.02-2.71.81-1.18,1.56-2.55,2.26-4.11.05.28.13.64.24,1.06h10.51l.32-1.35c.86,1.7,1.81,3.35,2.83,4.96,0,0,0,0,0,0,1.33,2,3.15,4.89,3.15,4.89,1.18-1.94,2.56-3.64,4.12-5.1-2.48-2.69-4.77-6-6.87-9.92,2.15-3.02,4.45-6.33,6.87-9.92.48-.09.73-.24.73-.43s-.16-.33-.49-.42ZM337.29,61.92c1.08-2.88,2.05-6.09,2.91-9.64,1.46,3.31,2.94,6.52,4.45,9.64h-7.36Z"/>
  </g>
  <g>
    <path class="st15" d="M224.25,87.54c0-2.41,0-4.78,0-4.78,0-.46.01-.92-.03-1.38,0-.06-.02-.11-.02-.17-.02-.18-.04-.36-.08-.55,0-.02,0-.03-.01-.05-.02-.13-.05-.26-.08-.4-.02-.09-.04-.18-.06-.27-.01-.04-.02-.08-.03-.12-.04-.16-.09-.31-.14-.47-.01-.04-.02-.08-.04-.13-.03-.09-.06-.17-.09-.25-.05-.15-.11-.3-.17-.45-.05-.12-.09-.24-.14-.35-.01-.03-.02-.05-.03-.08-.06-.14-.13-.28-.2-.42-.03-.06-.06-.12-.09-.18-.03-.06-.06-.11-.09-.17-.2-.39-.43-.76-.67-1.11-.02-.03-.04-.05-.05-.08,0,0,0,0,0,0,0,0-.01-.01-.02-.02-.27-.4-.57-.77-.89-1.11-.01-.02-.03-.03-.04-.05-.09-.1-.19-.19-.29-.29-.03-.03-.05-.05-.08-.08-.77-.73-1.66-1.31-2.61-1.79-.06-.03-.11-.06-.17-.09,0,0,0,0,0,0-.43-.21-.87-.4-1.31-.56-.7-.27-1.55-.54-2.24-.54-.15,0-.73,0-1.48,0,0,0,0,0,0,0-.03,0-.16,0-.35,0-.99,0-2.18,0-3.07,0-.3,0-.62,0-.93,0-.36,0-.87,0-1.44,0-.06,0-.13,0-.19,0-.11,0-.22,0-.33,0-.59,0-1.14,0-1.64,0-.1,0-.19,0-.28,0-.15,0-.29,0-.42,0h-.12c-.28,0-.52,0-.69,0-.18,0-.3,0-.35,0h-.03c-.46,0-.92-.01-1.38.03,0,0,0,0-.01,0-.03,0-.06,0-.09.01-.2.02-.41.05-.61.09-.02,0-.04,0-.06.01-.11.02-.23.05-.34.07-.1.02-.21.04-.31.07-.05.01-.09.03-.14.04-.14.04-.29.08-.43.12-.05.01-.1.03-.14.04-.1.03-.19.07-.29.1-.14.05-.27.1-.4.15,0,0,0,0,0,0-.12.05-.24.09-.36.15-.03.01-.05.03-.08.04-.14.06-.28.13-.41.19-.06.03-.13.06-.19.09-.06.03-.12.06-.17.1-.39.21-.76.43-1.11.67-.02.02-.05.03-.07.05,0,0,0,0,0,0,0,0-.01.01-.02.02-.4.27-.76.56-1.11.88-.02.02-.04.03-.06.05-.11.11-.22.22-.33.33-.01.01-.02.02-.03.03-.75.79-1.36,1.72-1.84,2.71-.01.03-.03.05-.04.08,0,0,0,0,0,0-.21.43-.4.87-.56,1.31-.27.7-.54,1.55-.54,2.24,0,.15,0,.73,0,1.48,0,0,0,0,0,0,0,.03,0,.16,0,.35,0,.99,0,2.18,0,3.07,0,.31,0,.62,0,.93,0,.36,0,.87,0,1.44v.19c0,.11,0,.22,0,.33,0,.59,0,1.14,0,1.64,0,.09,0,.18,0,.27,0,.16,0,.31,0,.45v.1c0,.28,0,.52,0,.69,0,.18,0,.3,0,.35h0v.02h0c0,.47-.01.92.03,1.39,0,.03.01.07.01.1.02.2.05.41.09.61,0,.02,0,.05.01.07.02.1.04.2.06.3.02.12.05.23.08.35.01.05.03.1.04.16.03.13.07.26.11.39.02.06.03.11.05.17.04.12.08.23.12.35.04.11.08.22.12.33,0,.01,0,.02.01.03.05.12.09.24.15.36.01.03.03.07.05.1.05.12.11.24.17.36.03.07.07.15.11.22.04.07.07.14.11.2.14.26.28.51.44.75,0,0,0,0,0,0,0,0,0,0,0,0,.06.1.12.2.19.29.02.03.04.07.07.1,0,0,0,0,0,0,0,0,.01.01.02.02.27.4.57.77.9,1.12.01.01.02.03.03.04.08.08.16.16.24.24.05.05.09.09.14.14.64.6,1.36,1.11,2.13,1.53.01,0,.02.01.03.02.13.07.27.14.4.21.07.04.14.07.21.11,0,0,0,0,0,0,.43.21.87.4,1.31.56.7.27,1.55.54,2.24.54.15,0,.73,0,1.48,0,0,0,0,0,0,0h.35c.99,0,2.18,0,3.07,0,.3,0,.62,0,.93,0,.36,0,.87,0,1.44,0h.19c.11,0,.22,0,.33,0,.53,0,1.02,0,1.48,0,.32,0,.61,0,.87,0h.31c.11,0,.21,0,.3,0,.07,0,.14,0,.19,0,.18,0,.3,0,.35,0h.03c.46,0,.92.01,1.38-.03.03,0,.07-.01.1-.01.2-.02.41-.05.61-.09.02,0,.04,0,.07-.01.11-.02.21-.04.32-.07.11-.02.22-.05.33-.07.05-.01.1-.03.15-.04.14-.04.27-.08.41-.12.05-.02.11-.03.16-.05.11-.04.21-.07.32-.11.12-.04.24-.09.36-.14,0,0,.01,0,.02,0,.12-.05.24-.09.36-.15.03-.01.06-.03.09-.04.13-.06.26-.12.39-.18.07-.03.14-.06.2-.1.06-.03.13-.07.19-.1.38-.2.74-.42,1.08-.65.03-.02.06-.04.09-.06,0,0,0,0,0,0,0,0,.01-.01.02-.02.4-.27.77-.57,1.11-.89.01-.01.03-.03.05-.04.1-.09.19-.19.28-.28.03-.03.06-.06.09-.09.73-.77,1.32-1.67,1.8-2.63.03-.05.05-.1.08-.15,0,0,0,0,0,0,.21-.43.4-.87.56-1.31.27-.7.54-1.55.54-2.24,0-.15,0-.73,0-1.48,0,0,0,0,0,0,0-.03,0-.16,0-.35,0-.99,0-2.18,0-3.07,0-.3,0-.62,0-.93,0-.2,0-.44,0-.71ZM203.15,92.68c0-.19,0-.37,0-.57v-9.44c.19,0,.38,0,.57,0h9.43c0,.19,0,.37,0,.57v9.44c-.19,0-.37,0-.57,0h-9.44Z"/>
    <path class="st12" d="M213.08,103.78c.46,0,.92.01,1.38-.03,2.33-.23,4.79-1.41,6.44-2.95,1.29-1.21,2.18-2.81,2.81-4.46.27-.7.54-1.55.54-2.24,0-.15,0-.73,0-1.48,0,0,0,0,0,0,0-.03,0-.16,0-.35,0-.99,0-2.18,0-3.07,0-.3,0-.62,0-.93,0-.36,0-.87,0-1.44,0-.06,0-.13,0-.19,0-.11,0-.22,0-.33,0-.59,0-1.14,0-1.64,0-.3,0-.57,0-.82,0-.28,0-.52,0-.69,0-.18,0-.3,0-.35v-.02h0c0-.47.01-.92-.03-1.39,0-.03-.01-.07-.01-.1-.02-.2-.05-.41-.09-.61-.02-.1-.04-.2-.06-.3-.03-.14-.06-.28-.09-.42-.03-.11-.06-.23-.09-.34-.04-.13-.07-.25-.11-.37-.04-.12-.08-.24-.12-.35-.04-.12-.09-.23-.13-.35-.05-.12-.09-.24-.15-.36-.05-.11-.1-.22-.15-.33-.06-.12-.11-.24-.17-.36-.05-.1-.11-.2-.16-.29-.12-.23-.26-.45-.39-.67-.05-.08-.1-.16-.15-.24,0,0,0,0,0,0-.04-.06-.07-.11-.11-.17,0,0,0,0,0,0,0,0-.01-.01-.02-.02-1-1.49-2.4-2.58-4.08-3.41,0,0-5.03,2.01-4.96,10.56v10.03c0,.21-.02.41-.05.61-.03.2-.07.39-.11.58-.06.27-.12.53-.2.8-.09.32-.2.64-.31.96-.13.36-.28.72-.45,1.07-.18.39-.39.77-.61,1.13-.24.4-.51.78-.8,1.15-.31.39-.65.76-1.01,1.11-.39.37-.81.71-1.24,1.02-.48.34-.98.63-1.5.89-.58.28-1.18.51-1.79.7-.6.18-1.22.37-1.84.47.36,0,9.84,0,9.84,0Z"/>
    <path class="st9" d="M224.25,82.76c0-.46.01-.92-.03-1.38-.23-2.33-1.41-4.79-2.95-6.44-1.21-1.29-2.81-2.18-4.46-2.81-.7-.27-1.55-.54-2.24-.54-.15,0-.73,0-1.48,0,0,0,0,0,0,0-.03,0-.16,0-.35,0-.99,0-2.18,0-3.07,0-.3,0-.62,0-.93,0-.36,0-.87,0-1.44,0h-.19c-.11,0-.22,0-.33,0-.59,0-1.14,0-1.64,0-.3,0-.57,0-.82,0-.28,0-.52,0-.69,0-.18,0-.3,0-.35,0h-.03c-.46,0-.92-.01-1.38.03-.03,0-.07.01-.1.01-.2.02-.41.05-.61.09-.1.02-.2.04-.3.06-.14.03-.28.06-.42.09-.11.03-.23.06-.34.09-.13.04-.25.07-.37.11-.12.04-.24.08-.35.12-.12.04-.23.09-.35.13-.12.05-.24.09-.36.15-.11.05-.22.1-.33.15-.12.06-.24.11-.36.17-.1.05-.2.11-.29.16-.23.12-.45.26-.67.39-.08.05-.16.1-.24.15,0,0,0,0,0,0-.06.04-.11.07-.17.11,0,0,0,0,0,0,0,0-.01.01-.02.02-1.49,1-2.58,2.4-3.41,4.08,0,0,2.01,5.03,10.56,4.96h10.03c.21,0,.41.02.61.05.2.03.39.07.58.11.27.06.53.12.8.2.32.09.64.2.96.31.36.13.72.28,1.07.45.39.18.77.39,1.13.61.4.24.78.51,1.15.8.39.31.76.65,1.11,1.01.37.39.71.81,1.02,1.24.33.48.63.98.89,1.5.28.58.51,1.18.7,1.79.18.6.37,1.22.47,1.84,0-.36,0-9.84,0-9.84Z"/>
    <path class="st1" d="M192.06,92.61c0,.46-.01.92.03,1.38.23,2.33,1.41,4.79,2.95,6.44,1.21,1.29,2.81,2.18,4.46,2.81.7.27,1.55.54,2.24.54.15,0,.73,0,1.48,0,0,0,0,0,0,0h.35c.99,0,2.18,0,3.07,0,.3,0,.62,0,.93,0,.36,0,.87,0,1.44,0h.19c.11,0,.22,0,.33,0,.59,0,1.14,0,1.64,0,.3,0,.57,0,.82,0,.28,0,.52,0,.69,0,.18,0,.3,0,.35,0h.03c.46,0,.92.01,1.38-.03.03,0,.07-.01.1-.01.2-.02.41-.05.61-.09.1-.02.2-.04.3-.06.14-.03.28-.06.42-.09.11-.03.23-.06.34-.09.13-.04.25-.07.37-.11.12-.04.24-.08.35-.12.12-.04.23-.09.35-.13.12-.05.24-.09.36-.15.11-.05.22-.1.33-.15.12-.06.24-.11.36-.17.1-.05.2-.11.29-.16.23-.12.45-.26.67-.39.08-.05.16-.1.24-.15,0,0,0,0,0,0,.06-.04.11-.07.17-.11,0,0,0,0,0,0,0,0,.01-.01.02-.02,1.49-1,2.58-2.4,3.41-4.08,0,0-2.01-5.03-10.56-4.96h-10.03c-.21,0-.41-.02-.61-.05-.2-.03-.39-.07-.58-.11-.27-.06-.53-.12-.8-.2-.32-.09-.64-.2-.96-.31-.36-.13-.72-.28-1.07-.45-.39-.18-.77-.39-1.13-.61-.4-.24-.78-.51-1.15-.8-.39-.31-.76-.65-1.11-1.01-.37-.39-.71-.81-1.02-1.24-.33-.48-.63-.98-.89-1.5-.28-.58-.51-1.18-.7-1.79-.18-.6-.37-1.22-.47-1.84,0,.36,0,9.84,0,9.84Z"/>
    <path class="st11" d="M203.23,71.59c-.46,0-.92-.01-1.38.03-2.33.23-4.79,1.41-6.44,2.95-1.29,1.21-2.18,2.81-2.81,4.46-.27.7-.54,1.55-.54,2.24,0,.15,0,.73,0,1.48,0,0,0,0,0,0,0,.03,0,.16,0,.35,0,.99,0,2.18,0,3.07,0,.31,0,.62,0,.93,0,.36,0,.87,0,1.44v.19c0,.11,0,.22,0,.33,0,.59,0,1.14,0,1.64,0,.3,0,.57,0,.82,0,.28,0,.52,0,.69,0,.18,0,.3,0,.35v.02h0c0,.47-.01.92.03,1.39,0,.03.01.07.01.1.02.2.05.41.09.61.02.1.04.2.06.3.03.14.06.28.09.42.03.11.06.23.09.34.04.13.07.25.11.37.04.12.08.24.12.35.04.12.09.23.13.35.05.12.09.24.15.36.05.11.1.22.15.33.06.12.11.24.17.36.05.1.11.2.16.29.12.23.26.45.39.67.05.08.1.16.15.24,0,0,0,0,0,0,.04.06.07.11.11.17,0,0,0,0,0,0,0,0,.01.01.02.02,1,1.49,2.4,2.58,4.08,3.41,0,0,5.03-2.01,4.96-10.56v-10.03c0-.21.02-.41.05-.61.03-.2.07-.39.11-.58.06-.27.12-.53.2-.8.09-.32.2-.64.31-.96.13-.36.28-.72.45-1.07.18-.39.39-.77.61-1.13.24-.4.51-.78.8-1.15.31-.39.65-.76,1.01-1.11.39-.37.81-.71,1.24-1.02.48-.34.98-.63,1.5-.89.58-.28,1.18-.51,1.79-.7.6-.18,1.22-.37,1.84-.47-.36,0-9.84,0-9.84,0Z"/>
  </g>
  <g>
    <path class="st15" d="M349.69,76.97c0-.47,0-1.11,0-1.63,0-.1,0-.17,0-.18,0,0,0,0,0,0,0-.4,0-.71,0-.79,0-.37-.14-.82-.29-1.19-.09-.24-.19-.47-.3-.7,0,0,0,0,0,0,0-.01-.02-.03-.02-.04-.26-.52-.58-1.02-.98-1.44,0,0-.01-.01-.02-.02-.06-.06-.11-.12-.17-.18,0,0-.02-.02-.03-.03-.18-.17-.38-.33-.59-.47,0,0,0,0-.01,0,0,0,0,0,0,0-.01,0-.03-.02-.04-.03-.19-.13-.39-.25-.59-.36-.03-.02-.06-.03-.09-.05-.03-.02-.07-.03-.1-.05-.07-.04-.15-.07-.22-.1-.01,0-.03-.01-.04-.02-.06-.03-.13-.05-.19-.08,0,0,0,0,0,0-.07-.03-.14-.06-.22-.08-.05-.02-.1-.04-.16-.05-.03,0-.05-.02-.08-.02-.08-.02-.15-.05-.23-.07-.02,0-.05-.01-.07-.02-.06-.01-.11-.03-.17-.04-.06-.01-.12-.03-.18-.04-.01,0-.02,0-.03,0-.11-.02-.22-.03-.33-.05-.02,0-.03,0-.05,0,0,0,0,0,0,0-.25-.02-.49-.01-.73-.02h-.2c-.09,0-.22,0-.37,0h-.06c-.07,0-.14,0-.22,0h-.15c-.26,0-.56,0-.87,0h-.28c-.31,0-.58,0-.77,0-.17,0-.33,0-.5,0-.47,0-1.11,0-1.63,0h-.18s0,0,0,0c-.4,0-.71,0-.79,0-.37,0-.82.14-1.19.29-.23.09-.47.19-.7.3,0,0,0,0,0,0-.03.02-.06.03-.09.05-.5.25-.98.57-1.39.95-.01.01-.03.03-.04.04-.05.05-.1.1-.15.15,0,0-.01.02-.02.03-.17.18-.33.38-.47.59,0,0,0,0,0,.01,0,0,0,0,0,0,0,.01-.02.03-.03.04-.13.19-.24.38-.35.59-.02.03-.03.06-.05.09-.02.03-.03.07-.05.1-.04.07-.07.15-.11.23,0,.01-.01.03-.02.04-.03.06-.05.12-.08.19-.03.08-.06.16-.09.24-.02.05-.03.09-.05.14,0,.02-.01.04-.02.07-.03.08-.05.16-.07.25,0,.02-.01.04-.02.07-.01.05-.02.1-.03.15-.02.07-.03.14-.04.21,0,0,0,.02,0,.03-.02.1-.03.19-.04.29,0,.03-.01.06-.01.09-.02.25-.01.49-.02.73,0,0,0,1.26,0,2.54,0,.14,0,.27,0,.38,0,.17,0,.33,0,.5,0,.47,0,1.11,0,1.63,0,.1,0,.17,0,.19,0,0,0,0,0,0,0,.4,0,.71,0,.79,0,.37.14.82.29,1.19.09.24.19.47.3.7,0,0,0,0,0,0,.01.03.03.05.04.08.25.51.57.99.96,1.4.02.02.03.03.05.05.05.05.1.1.15.15,0,0,.02.01.03.02.18.17.38.33.59.47,0,0,0,0,.01,0h0s.03.02.05.03c.18.12.38.24.58.35.03.02.07.04.1.06.04.02.07.03.11.05.07.03.14.07.21.1.02,0,.03.02.05.02.06.03.13.05.19.08,0,0,0,0,.01,0,.06.03.13.05.19.07.06.02.11.04.17.06.03,0,.06.02.08.03.07.02.14.04.22.06.03,0,.05.02.08.02.06.01.12.03.18.04.06.01.11.03.17.04.01,0,.02,0,.04,0,.11.02.22.03.33.05.02,0,.03,0,.05,0,.25.02.49.01.73.02h.01s.09,0,.19,0h.1s.1,0,.16,0h.16c.14,0,.29,0,.46,0,.24,0,.51,0,.79,0,.06,0,.12,0,.18,0h.1c.31,0,.58,0,.77,0,.17,0,.33,0,.5,0,.47,0,1.11,0,1.63,0h.19s0,0,0,0c.4,0,.71,0,.79,0,.37,0,.82-.14,1.19-.29.23-.09.47-.19.7-.3,0,0,0,0,0,0,.04-.02.07-.04.11-.06.07-.04.14-.07.21-.11,0,0,.01,0,.02,0,.41-.23.79-.5,1.13-.81.03-.02.05-.05.08-.07.04-.04.09-.08.13-.13,0,0,.01-.01.02-.02.17-.18.33-.38.48-.6,0,0,0,0,0-.01,0,0,0,0,0,0,.01-.02.02-.04.04-.05.03-.05.07-.1.1-.16h0s0,0,0,0c.08-.13.16-.26.23-.4.02-.04.04-.07.06-.11.02-.04.04-.08.06-.12.03-.06.06-.13.09-.19,0-.02.02-.04.03-.05.03-.06.05-.13.08-.19,0,0,0-.01,0-.02.02-.06.05-.12.07-.17.02-.06.04-.12.06-.18,0-.03.02-.06.03-.09.02-.07.04-.14.06-.21,0-.03.02-.06.02-.08.02-.06.03-.12.04-.18.01-.05.02-.11.03-.16,0-.01,0-.02,0-.04.02-.11.03-.22.05-.33,0-.02,0-.03,0-.05.02-.25.01-.49.02-.73h0v-.2c0-.09,0-.22,0-.37,0-.02,0-.04,0-.05,0-.14,0-.3,0-.47,0-.24,0-.5,0-.78v-.18s0-.07,0-.1c0-.31,0-.58,0-.77,0-.17,0-.33,0-.5ZM343.71,80.43h-4.93c-.1,0-.2,0-.3,0v-5.02c0-.1,0-.2,0-.3h5.02c.1,0,.2,0,.3,0v5.02c0,.1,0,.2,0,.3h-.08Z"/>
    <path class="st14" d="M338.52,86.33c-.25,0-.49,0-.73-.02-1.24-.12-2.55-.75-3.42-1.57-.69-.64-1.16-1.5-1.49-2.37-.14-.37-.29-.82-.29-1.19,0-.08,0-.39,0-.79,0,0,0,0,0,0v-.19c0-.53,0-1.16,0-1.63,0-.16,0-.33,0-.5,0-.19,0-.46,0-.77v-.1c0-.06,0-.12,0-.18,0-.31,0-.61,0-.87,0-.16,0-.31,0-.43,0-.15,0-.27,0-.37,0-.09,0-.16,0-.19h0c0-.26,0-.5.02-.75,0-.02,0-.03,0-.05.01-.11.03-.22.05-.33,0-.05.02-.11.03-.16.02-.07.03-.15.05-.22.02-.06.03-.12.05-.18.02-.07.04-.13.06-.2.02-.06.04-.13.06-.19.02-.06.05-.12.07-.19.03-.06.05-.13.08-.19.03-.06.05-.12.08-.18.03-.06.06-.13.09-.19.03-.05.06-.1.09-.16.07-.12.14-.24.21-.35.03-.04.05-.08.08-.13,0,0,0,0,0,0,.02-.03.04-.06.06-.09h0s0,0,0-.01c.53-.79,1.28-1.37,2.17-1.81,0,0,2.67,1.07,2.64,5.61v5.33c0,.11,0,.22.03.33.02.1.04.21.06.31.03.14.07.28.11.42.05.17.1.34.17.51.07.19.15.38.24.57.1.21.21.41.33.6.13.21.27.42.42.61.17.21.34.41.54.59.21.2.43.38.66.54.25.18.52.34.8.47.31.15.62.27.95.37.32.1.65.2.98.25-.19,0-5.23,0-5.23,0Z"/>
    <path class="st3" d="M349.7,80.39c0,.25,0,.49-.02.73-.12,1.24-.75,2.55-1.57,3.42-.64.69-1.5,1.16-2.37,1.49-.37.14-.82.29-1.19.29-.08,0-.39,0-.79,0,0,0,0,0,0,0h-.18c-.53,0-1.16,0-1.63,0-.16,0-.33,0-.5,0-.19,0-.46,0-.77,0h-.1c-.06,0-.12,0-.18,0-.31,0-.61,0-.87,0-.16,0-.31,0-.43,0-.15,0-.27,0-.37,0-.09,0-.16,0-.19,0h-.01c-.25,0-.49,0-.73-.02-.02,0-.03,0-.05,0-.11-.01-.22-.03-.33-.05-.05,0-.11-.02-.16-.03-.07-.02-.15-.03-.22-.05-.06-.02-.12-.03-.18-.05-.07-.02-.13-.04-.2-.06-.06-.02-.13-.04-.19-.06-.06-.02-.12-.05-.19-.07-.06-.03-.13-.05-.19-.08-.06-.03-.12-.05-.17-.08-.06-.03-.13-.06-.19-.09-.05-.03-.1-.06-.16-.09-.12-.07-.24-.14-.35-.21-.04-.03-.08-.05-.13-.08,0,0,0,0,0,0-.03-.02-.06-.04-.09-.06,0,0,0,0,0,0,0,0,0,0-.01,0-.79-.53-1.37-1.28-1.81-2.17,0,0,1.07-2.67,5.61-2.64h5.33c.11,0,.22,0,.33-.03.1-.02.21-.04.31-.06.14-.03.28-.07.42-.11.17-.05.34-.1.51-.17.19-.07.38-.15.57-.24.21-.1.41-.21.6-.33.21-.13.42-.27.61-.42.21-.17.41-.34.59-.54.2-.21.38-.43.54-.66.18-.25.34-.52.47-.8.15-.31.27-.62.37-.95.1-.32.2-.65.25-.98,0,.19,0,5.23,0,5.23Z"/>
    <path class="st5" d="M343.76,69.22c.25,0,.49,0,.73.02,1.24.12,2.55.75,3.42,1.57.69.64,1.16,1.5,1.49,2.37.14.37.29.82.29,1.19,0,.08,0,.39,0,.79,0,0,0,0,0,0v.18c0,.53,0,1.16,0,1.63,0,.16,0,.33,0,.5,0,.19,0,.46,0,.77v.28c0,.31,0,.61,0,.87,0,.16,0,.31,0,.43,0,.15,0,.27,0,.37s0,.16,0,.19h0c0,.26,0,.5-.02.75,0,.02,0,.03,0,.05-.01.11-.03.22-.05.33,0,.05-.02.11-.03.16-.02.07-.03.15-.05.22-.02.06-.03.12-.05.18-.02.07-.04.13-.06.2-.02.06-.04.13-.06.19-.02.06-.05.12-.07.19-.03.06-.05.13-.08.19-.03.06-.05.12-.08.17-.03.06-.06.13-.09.19-.03.05-.06.1-.08.16-.07.12-.14.24-.21.35-.03.04-.05.08-.08.13,0,0,0,0,0,0-.02.03-.04.06-.06.09,0,0,0,0,0,0,0,0,0,0,0,.01-.53.79-1.28,1.37-2.17,1.81,0,0-2.67-1.07-2.64-5.61v-5.33c0-.11,0-.22-.03-.33-.02-.1-.04-.21-.06-.31-.03-.14-.07-.28-.11-.42-.05-.17-.1-.34-.17-.51-.07-.19-.15-.38-.24-.57-.1-.21-.21-.41-.33-.6-.13-.21-.27-.42-.42-.61-.17-.21-.34-.41-.54-.59-.21-.2-.43-.38-.66-.54-.25-.18-.52-.34-.8-.47-.31-.15-.62-.27-.95-.37-.32-.1-.65-.2-.98-.25.19,0,5.23,0,5.23,0Z"/>
    <path class="st8" d="M332.59,75.15c0-.25,0-.49.02-.73.12-1.24.75-2.55,1.57-3.42.64-.69,1.5-1.16,2.37-1.49.37-.14.82-.29,1.19-.29.08,0,.39,0,.79,0,0,0,0,0,0,0h.18c.53,0,1.16,0,1.63,0,.16,0,.33,0,.5,0,.19,0,.46,0,.77,0h.28c.31,0,.61,0,.87,0,.16,0,.31,0,.43,0,.15,0,.27,0,.37,0s.16,0,.19,0h.01c.25,0,.49,0,.73.02.02,0,.03,0,.05,0,.11.01.22.03.33.05.05,0,.11.02.16.03.07.02.15.03.22.05.06.02.12.03.18.05.07.02.13.04.2.06.06.02.13.04.19.06.06.02.12.05.19.07.06.03.13.05.19.08.06.03.12.05.18.08.06.03.13.06.19.09.05.03.1.06.16.09.12.07.24.14.35.21.04.03.08.05.13.08,0,0,0,0,0,0,.03.02.06.04.09.06,0,0,0,0,0,0,0,0,0,0,.01,0,.79.53,1.37,1.28,1.81,2.17,0,0-1.07,2.67-5.61,2.64h-5.33c-.11,0-.22,0-.33.03-.1.02-.21.04-.31.06-.14.03-.28.07-.42.11-.17.05-.34.1-.51.17-.19.07-.38.15-.57.24-.21.1-.41.21-.6.33-.21.13-.42.27-.61.42-.21.17-.41.34-.59.54-.2.21-.38.43-.54.66-.18.25-.34.52-.47.8-.15.31-.27.62-.37.95-.1.32-.2.65-.25.98,0-.19,0-5.23,0-5.23Z"/>
  </g>
  <g>
    <path class="st15" d="M191.3,117.74h-2.49l-.72-1.89h5.11l-1.89,1.89ZM195.98,117.74h-2.61v10.76h-1.91v-10.54l2.09-2.11h3.18l-.74,1.89Z"/>
    <path class="st15" d="M202.9,124.88h-1.81l-.4.46v1.13l-1.87,2.03v-3.96l1.39-1.41h3.46l-.76,1.75ZM204.16,122.05h-4.36l-.74-1.87h6.74l-1.63,1.87ZM199.18,128.52l1.71-1.87h3.3l1.65,1.87h-6.66ZM204.34,126.41v-4.14l1.83-2.07v8.31l-1.83-2.09Z"/>
    <path class="st15" d="M213.25,118.69h-1.25l-.46-.46v-1.31l.46-.4h1.19l.46.42v1.21l-.4.54ZM211.6,128.48v-8.25h1.99v8.25h-1.99Z"/>
    <path class="st15" d="M218.98,131.8v-11.6l1.87,2.05v9.55h-1.87ZM224.53,126.43v-3.88l-.42-.52h-3.1l-1.69-1.85h5.61l1.45,1.53v6.72l-1.85-1.99ZM221.41,128.5l.82-1.85h2.13l1.73,1.85h-4.69Z"/>
    <path class="st15" d="M229.13,128.48v-8.29l1.87,2.01v4.22l-1.87,2.05ZM234.58,123.09v-.54l-.42-.52h-3l-1.71-1.85h5.59l1.39,1.49v3.34l-1.85-1.91ZM229.49,128.5l1.65-1.85h4.34l.76,1.85h-6.76ZM231.5,125.04l.74-1.75h2.17l1.69,1.75h-4.61Z"/>
    <path class="st15" d="M243.52,118.69h-1.25l-.46-.46v-1.31l.46-.4h1.19l.46.42v1.21l-.4.54ZM241.87,128.48v-8.25h1.99v8.25h-1.99Z"/>
    <path class="st15" d="M259.46,128.5v-12.67l1.93.74v9.81l-1.93,2.11ZM259.87,128.5l1.75-1.91h4.4l.62,1.91h-6.78Z"/>
    <path class="st15" d="M273.54,124.88h-1.81l-.4.46v1.13l-1.87,2.03v-3.96l1.39-1.41h3.46l-.76,1.75ZM274.8,122.05h-4.36l-.74-1.87h6.74l-1.63,1.87ZM269.82,128.52l1.71-1.87h3.3l1.65,1.87h-6.66ZM274.98,126.41v-4.14l1.83-2.07v8.31l-1.83-2.09Z"/>
    <path class="st15" d="M279.5,128.5v-7.96l1.89,1.69v6.27h-1.89ZM285.08,128.5v-5.69l-.74-.78h-2.78l-2.03-1.85h5.91l1.51,1.55v6.78h-1.87Z"/>
    <path class="st15" d="M293.68,122.13v6.38h-1.93v-6.38h-.95v-1.89h.95v-3.4h1.93v3.4h1.85l.32,1.89h-2.17Z"/>
    <path class="st15" d="M299.77,128.48v-8.29l1.87,2.01v4.22l-1.87,2.05ZM305.22,123.09v-.54l-.42-.52h-3l-1.71-1.85h5.59l1.39,1.49v3.34l-1.85-1.91ZM300.13,128.5l1.65-1.85h4.34l.76,1.85h-6.76ZM302.14,125.04l.74-1.75h2.17l1.69,1.75h-4.61Z"/>
    <path class="st15" d="M314.95,122.19h-1.01l-.95,1.87v4.44h-2.03v-8.33h2.03v1.63l.7-1.63h2.35l-1.11,2.01Z"/>
    <path class="st15" d="M319.87,128.5v-7.96l1.89,1.69v6.27h-1.89ZM325.44,128.5v-5.69l-.74-.78h-2.78l-2.03-1.85h5.91l1.51,1.55v6.78h-1.87Z"/>
    <path class="st15" d="M341.7,122.65v5.83h-1.93v-12.63l1.93,2.21v2.72h4.04l.8,1.87h-4.85ZM347.05,117.76h-5.23l-1.63-1.91h7.58l-.72,1.91Z"/>
    <path class="st15" d="M350.23,128.48v-8.29l1.87,2.01v4.22l-1.87,2.05ZM355.68,123.09v-.54l-.42-.52h-3l-1.71-1.85h5.59l1.39,1.49v3.34l-1.85-1.91ZM350.59,128.5l1.65-1.85h4.34l.76,1.85h-6.76ZM352.6,125.04l.74-1.75h2.17l1.69,1.75h-4.6Z"/>
    <path class="st15" d="M360.38,128.5l.91-1.85h4.2l1.69,1.85h-6.8ZM366.83,122.05h-4.04l-.48.54v.66l-1.87,1.87v-3.44l1.29-1.51h5.83l-.72,1.87ZM365.67,126.49v-.56l-.74-.76h-4.18l1.71-1.69h3.3l1.77,1.65v3.36l-1.85-1.99Z"/>
    <path class="st15" d="M374.41,122.13v6.38h-1.93v-6.38h-.95v-1.89h.95v-3.4h1.93v3.4h1.85l.32,1.89h-2.17Z"/>
    <path class="st15" d="M384.8,118.69h-1.25l-.46-.46v-1.31l.46-.4h1.19l.46.42v1.21l-.4.54ZM383.15,128.48v-8.25h1.99v8.25h-1.99Z"/>
    <path class="st15" d="M393.01,128.5l-2.98-8.33h2.11l2.94,8.33h-2.07ZM395.28,128.28l-.87-2.47,1.89-5.63h2.13l-3.16,8.11Z"/>
    <path class="st15" d="M404.72,124.88h-1.81l-.4.46v1.13l-1.87,2.03v-3.96l1.39-1.41h3.46l-.76,1.75ZM405.99,122.05h-4.36l-.74-1.87h6.74l-1.63,1.87ZM401,128.52l1.71-1.87h3.3l1.65,1.87h-6.66ZM406.17,126.41v-4.14l1.83-2.07v8.31l-1.83-2.09Z"/>
    <path class="st15" d="M413.43,128.48v-12.63h1.99v12.63h-1.99Z"/>
  </g>
  <g>
    <path class="st15" d="M284.57,20.21h-5.56l-.74-1.7h8.11l-1.81,1.7ZM278.75,29.53v-6.19l1.7,1.82v2.73l-1.7,1.64ZM278.81,29.85l1.77-1.72h4.86l.98,1.72h-7.6ZM280.6,25.01l-1.59-1.68h5.6l1.54,1.68h-5.54ZM284.73,23.21v-2.84l1.68-1.55v6.16l-1.68-1.77Z"/>
    <path class="st15" d="M288.56,29.8v-11.04l1.7,1.61v7.46l-1.7,1.97ZM294.67,20.21h-4.26l-1.79-1.7h7.8l-1.75,1.7ZM288.89,29.82l1.46-1.73h4.34l1.52,1.73h-7.31ZM294.81,27.9v-7.53l1.66-1.64v11.05l-1.66-1.88Z"/>
    <path class="st15" d="M304.94,20.21h-5.56l-.74-1.7h8.11l-1.81,1.7ZM299.13,29.53v-6.19l1.7,1.82v2.73l-1.7,1.64ZM299.18,29.85l1.77-1.72h4.86l.98,1.72h-7.6ZM300.97,25.01l-1.59-1.68h5.6l1.54,1.68h-5.54ZM305.11,23.21v-2.84l1.68-1.55v6.16l-1.68-1.77Z"/>
    <path class="st15" d="M308.72,29.89l1.03-1.73h5.09l1.79,1.73h-7.91ZM309.12,24.82v-6l1.72,1.55v2.66l-1.72,1.79ZM316.32,20.21h-5.33l-1.84-1.7h7.93l-.76,1.7ZM314.82,24.85h-5.36l1.55-1.68h5.4l-1.59,1.68ZM314.99,27.9v-2.84l1.72-1.86v6.38l-1.72-1.68Z"/>
  </g>
</svg>