<?xml version="1.0" encoding="UTF-8"?>
<svg id="_圖層_1" xmlns="http://www.w3.org/2000/svg" xmlns:xlink="http://www.w3.org/1999/xlink" version="1.1" viewBox="0 0 376.94 88.94">
  <!-- Generator: Adobe Illustrator 30.0.0, SVG Export Plug-In . SVG Version: 2.1.1 Build 123)  -->
  <defs>
    <style>
      .st0 {
        fill: #c0a209;
      }

      .st1 {
        fill: url(#_未命名漸層_445);
        opacity: .65;
      }

      .st2 {
        fill: url(#_未命名漸層_436);
        opacity: .6;
      }

      .st3 {
        fill: url(#_未命名漸層_317);
        opacity: .45;
      }

      .st4 {
        fill: url(#_未命名漸層_318);
      }

      .st4, .st5 {
        opacity: .44;
      }

      .st6 {
        fill: url(#_未命名漸層_439);
        opacity: .7;
      }

      .st7 {
        fill: url(#_未命名漸層_4341);
      }

      .st8 {
        fill: #fff;
      }

      .st5 {
        fill: url(#_未命名漸層_3181);
      }

      .st9 {
        fill: url(#_未命名漸層_434);
      }
    </style>
    <linearGradient id="_未命名漸層_434" data-name="未命名漸層 434" x1="26.23" y1="56.16" x2="26.23" y2="43.63" gradientUnits="userSpaceOnUse">
      <stop offset="0" stop-color="#b72d7a"/>
      <stop offset=".22" stop-color="#c5377a"/>
      <stop offset=".71" stop-color="#de4b7a"/>
      <stop offset="1" stop-color="#e8537b"/>
    </linearGradient>
    <linearGradient id="_未命名漸層_318" data-name="未命名漸層 318" x1="32.03" y1="44.79" x2="22.52" y2="35.54" gradientUnits="userSpaceOnUse">
      <stop offset="0" stop-color="#f5bcb7" stop-opacity=".4"/>
      <stop offset=".14" stop-color="#f3b2b1" stop-opacity=".45"/>
      <stop offset=".4" stop-color="#f097a2" stop-opacity=".58"/>
      <stop offset=".73" stop-color="#eb6c89" stop-opacity=".8"/>
      <stop offset="1" stop-color="#e74473"/>
    </linearGradient>
    <linearGradient id="_未命名漸層_445" data-name="未命名漸層 445" x1="8.48" y1="46.58" x2="25.53" y2="54.1" gradientUnits="userSpaceOnUse">
      <stop offset="0" stop-color="#24804f"/>
      <stop offset=".11" stop-color="#308648"/>
      <stop offset=".31" stop-color="#509836"/>
      <stop offset=".57" stop-color="#83b51b"/>
      <stop offset=".84" stop-color="#aab827" stop-opacity=".37"/>
      <stop offset=".99" stop-color="#c1bb2f" stop-opacity="0"/>
    </linearGradient>
    <linearGradient id="_未命名漸層_439" data-name="未命名漸層 439" x1="16.54" y1="48.43" x2="16.54" y2="30.21" gradientUnits="userSpaceOnUse">
      <stop offset="0" stop-color="#0091c1" stop-opacity=".7"/>
      <stop offset=".27" stop-color="#008ec2" stop-opacity=".76"/>
      <stop offset=".75" stop-color="#0086c5" stop-opacity=".91"/>
      <stop offset="1" stop-color="#0082c8"/>
    </linearGradient>
    <linearGradient id="_未命名漸層_4341" data-name="未命名漸層 434" x1="45.59" x2="45.59" xlink:href="#_未命名漸層_434"/>
    <linearGradient id="_未命名漸層_436" data-name="未命名漸層 436" x1="67.1" y1="47.47" x2="44.38" y2="49.55" gradientUnits="userSpaceOnUse">
      <stop offset=".3" stop-color="#e95530"/>
      <stop offset=".36" stop-color="#e85232" stop-opacity=".98"/>
      <stop offset=".45" stop-color="#e74b38" stop-opacity=".91"/>
      <stop offset=".55" stop-color="#e63f43" stop-opacity=".8"/>
      <stop offset=".65" stop-color="#e52f52" stop-opacity=".65"/>
      <stop offset=".76" stop-color="#e21a66" stop-opacity=".45"/>
      <stop offset=".87" stop-color="#e0017d" stop-opacity=".21"/>
      <stop offset=".87" stop-color="#e0007f" stop-opacity=".2"/>
    </linearGradient>
    <linearGradient id="_未命名漸層_317" data-name="未命名漸層 317" x1="1473.58" y1="48.43" x2="1473.58" y2="30.21" gradientTransform="translate(1528.86) rotate(-180) scale(1 -1)" gradientUnits="userSpaceOnUse">
      <stop offset="0" stop-color="#f9bf3d"/>
      <stop offset=".23" stop-color="#f5ab2e"/>
      <stop offset="1" stop-color="#ec6c00"/>
    </linearGradient>
    <linearGradient id="_未命名漸層_3181" data-name="未命名漸層 318" x1="1492.19" y1="38.41" x2="1479.43" y2="38.41" gradientTransform="translate(1528.86) rotate(-180) scale(1 -1)" xlink:href="#_未命名漸層_318"/>
  </defs>
  <g>
    <g>
      <path class="st8" d="M35.34,43.13c0-2.09,0-4.15,0-4.15,0-.4,0-.8-.03-1.2,0-.05-.02-.1-.02-.14-.02-.16-.04-.32-.07-.47,0-.01,0-.03,0-.04-.02-.11-.05-.23-.07-.34-.02-.08-.03-.16-.05-.24,0-.04-.02-.07-.03-.11-.04-.14-.08-.27-.12-.4-.01-.04-.02-.07-.03-.11-.02-.07-.05-.15-.08-.22-.05-.13-.1-.26-.15-.39-.04-.1-.08-.2-.12-.31,0-.02-.02-.04-.03-.07-.06-.12-.11-.25-.17-.37-.03-.05-.05-.11-.08-.16-.03-.05-.05-.1-.08-.15-.18-.33-.37-.66-.58-.96-.02-.02-.03-.05-.05-.07,0,0,0,0,0,0,0,0,0-.01-.01-.02-.23-.35-.49-.67-.77-.96-.01-.01-.02-.03-.04-.04-.08-.09-.17-.17-.25-.25-.02-.02-.05-.05-.07-.07-.67-.63-1.44-1.14-2.26-1.55-.05-.03-.1-.05-.15-.08,0,0,0,0,0,0-.37-.18-.75-.34-1.13-.49-.61-.23-1.34-.47-1.95-.47-.13,0-.63,0-1.29,0,0,0,0,0,0,0-.03,0-.14,0-.3,0-.86,0-1.89,0-2.66,0-.26,0-.54,0-.81,0-.31,0-.75,0-1.25,0-.06,0-.11,0-.17,0-.1,0-.19,0-.29,0-.51,0-.99,0-1.42,0-.08,0-.16,0-.24,0-.13,0-.25,0-.36,0h-.1c-.24,0-.45,0-.6,0-.15,0-.26,0-.3,0h-.02c-.4,0-.8,0-1.2.03,0,0,0,0,0,0-.03,0-.05,0-.08.01-.18.02-.35.04-.53.08-.02,0-.04,0-.06.01-.1.02-.2.04-.3.06-.09.02-.18.04-.27.06-.04.01-.08.02-.12.03-.12.03-.25.07-.37.11-.04.01-.08.02-.13.04-.08.03-.17.06-.25.09-.12.04-.23.09-.35.13,0,0,0,0,0,0-.1.04-.21.08-.31.13-.02.01-.05.02-.07.03-.12.05-.24.11-.36.17-.05.03-.11.05-.16.08-.05.03-.1.05-.15.08-.33.18-.66.37-.96.58-.02.01-.04.03-.06.04,0,0,0,0,0,0,0,0-.01,0-.02.01-.34.23-.66.49-.96.77-.02.01-.03.03-.05.04-.1.09-.19.19-.28.29,0,0-.02.02-.03.03-.65.69-1.18,1.49-1.6,2.35-.01.02-.02.05-.04.07,0,0,0,0,0,0-.18.37-.34.75-.49,1.14-.23.61-.47,1.34-.47,1.95,0,.13,0,.63,0,1.29,0,0,0,0,0,0,0,.03,0,.14,0,.3,0,.86,0,1.89,0,2.66,0,.26,0,.54,0,.81,0,.31,0,.75,0,1.25,0,.06,0,.11,0,.17,0,.1,0,.19,0,.29,0,.51,0,.99,0,1.42,0,.08,0,.16,0,.23,0,.14,0,.27,0,.39,0,.03,0,.06,0,.09,0,.24,0,.45,0,.6,0,.15,0,.26,0,.3h0v.02h0c0,.41,0,.8.03,1.2,0,.03,0,.06.01.09.02.18.04.35.08.53,0,.02,0,.04.01.06.02.09.04.18.06.26.02.1.04.2.07.3.01.05.02.09.04.13.03.11.06.22.1.34.02.05.03.1.05.15.03.1.07.2.1.3.03.1.07.19.11.28,0,0,0,.02.01.03.04.1.08.21.13.31.01.03.03.06.04.09.05.11.1.21.15.31.03.06.06.13.09.19.03.06.06.12.1.18.12.22.25.44.38.65,0,0,0,0,0,0,0,0,0,0,0,0,.05.08.11.17.16.25.02.03.04.06.06.09,0,0,0,0,0,0,0,0,0,.01.01.02.23.35.5.67.78.97.01.01.02.02.03.03.07.07.14.14.21.2.04.04.08.08.12.12.55.52,1.18.96,1.85,1.33,0,0,.02.01.03.02.11.06.23.12.35.18.06.03.12.06.18.09,0,0,0,0,0,0,.37.18.75.34,1.13.49.61.23,1.34.47,1.95.47.13,0,.63,0,1.29,0,0,0,0,0,0,0,.03,0,.14,0,.3,0,.86,0,1.89,0,2.66,0,.26,0,.54,0,.81,0,.31,0,.75,0,1.25,0,.06,0,.11,0,.17,0,.1,0,.19,0,.29,0,.46,0,.89,0,1.28,0,.27,0,.53,0,.75,0,.03,0,.06,0,.09,0,.06,0,.12,0,.17,0,.1,0,.18,0,.26,0,.06,0,.12,0,.17,0,.15,0,.26,0,.3,0h.02c.4,0,.8,0,1.2-.03.03,0,.06,0,.09-.01.18-.02.35-.04.53-.08.02,0,.04,0,.06-.01.09-.02.19-.04.28-.06.1-.02.19-.04.29-.06.04-.01.09-.02.13-.04.12-.03.24-.07.35-.1.05-.01.09-.03.14-.04.09-.03.19-.06.28-.1.11-.04.21-.08.31-.12,0,0,.01,0,.02,0,.1-.04.21-.08.31-.13.03-.01.05-.02.08-.04.11-.05.22-.1.34-.16.06-.03.12-.06.18-.08.06-.03.11-.06.17-.09.33-.17.64-.36.94-.56.03-.02.05-.03.08-.05,0,0,0,0,0,0,0,0,.01,0,.02-.01.35-.23.67-.49.97-.77.01-.01.03-.02.04-.04.08-.08.16-.16.24-.24.03-.03.05-.05.08-.08.63-.67,1.14-1.45,1.56-2.28.02-.04.05-.08.07-.13,0,0,0,0,0,0,.18-.37.34-.75.49-1.14.23-.61.46-1.34.46-1.95,0-.13,0-.63,0-1.29,0,0,0,0,0,0,0-.03,0-.14,0-.3,0-.86,0-1.89,0-2.66,0-.26,0-.54,0-.81,0-.17,0-.38,0-.61ZM17.04,47.59c0-.16,0-.32,0-.49v-8.18c.16,0,.33,0,.49,0h8.18c0,.16,0,.32,0,.49v8.18c-.16,0-.33,0-.49,0h-8.18Z"/>
      <g>
        <g>
          <polygon class="st0" points="24.81 27.77 24.81 26.79 18.24 26.79 18.24 27.77 16.38 27.77 16.38 28.84 26.67 28.84 26.67 27.77 24.81 27.77"/>
          <path class="st0" d="M26.57,57.84h-10.33v1.26h1.44s0,0,0,0c-.06.68.39,1.22,1.08,1.3l-.54,3.39c-.02.1.06.15.13.15s.17-.05.18-.15l.54-3.38h.6l-.54,3.38c-.03.2.28.2.32,0l.54-3.38h.6l-.54,3.38c-.03.2.28.2.32,0l.54-3.38h.6l-.54,3.38c-.03.2.28.2.32,0l.54-3.38h.6l-.54,3.38c-.03.2.28.2.32,0l.54-3.38h.54s.03,0,.05,0l-.54,3.38c-.03.2.28.2.32,0l.54-3.41c.52-.09.94-.35,1.2-.76.1-.16.17-.33.21-.51h1.52v-1.26ZM24.17,59.63c-.3.25-.63.25-.97.25h-.09s-4.12,0-4.12,0c-.45-.01-.75-.34-.74-.78h6.25c-.05.19-.14.37-.33.53Z"/>
        </g>
        <g>
          <path class="st9" d="M35.31,37.78s0-.06-.01-.09c-.02-.18-.04-.35-.08-.53-.02-.09-.04-.17-.05-.26-.03-.12-.05-.24-.08-.36-.02-.1-.05-.2-.08-.29-.03-.11-.06-.22-.1-.32-.03-.1-.07-.2-.1-.31-.04-.1-.08-.2-.12-.3-.04-.1-.08-.21-.13-.31-.04-.1-.09-.19-.13-.29-.05-.1-.1-.21-.15-.31-.04-.09-.09-.17-.14-.25-.11-.2-.22-.39-.34-.58-.04-.07-.08-.14-.13-.2,0,0,0,0,0,0-.03-.05-.06-.1-.1-.15,0,0,0,0,0,0,0,0,0-.01-.01-.02-.87-1.29-2.09-2.24-3.54-2.95,0,0-2.45.98-3.65,4.59h-5.58c-.12.18-.23.37-.33.56-.14.27-.27.54-.39.82-.1.24-.19.49-.27.74-.06.2-.12.41-.17.61-.04.15-.07.3-.09.45-.03.16-.04.31-.04.47v.43h6.23c0,.16,0,.32,0,.49v8.7c0,.18-.01.35-.04.53-.03.17-.06.34-.09.51-.05.23-.11.46-.17.69-.08.28-.17.56-.27.83-.12.31-.25.62-.39.93-.16.34-.34.66-.53.98-.21.34-.44.68-.69.99-.27.34-.56.66-.88.96-.34.32-.7.62-1.08.89-.41.29-.85.55-1.3.77-.5.24-1.02.45-1.55.61-.52.16-1.06.32-1.59.41.31,0,8.53,0,8.53,0,.4,0,.8,0,1.2-.03,2.02-.2,4.16-1.22,5.58-2.56,1.12-1.05,1.89-2.44,2.43-3.87.23-.61.47-1.34.47-1.95,0-.13,0-.63,0-1.29,0,0,0,0,0,0,0-.03,0-.14,0-.3,0-.86,0-1.89,0-2.66,0-.26,0-.54,0-.81,0-.31,0-.75,0-1.25,0-.06,0-.11,0-.17,0-.1,0-.19,0-.29,0-.51,0-.99,0-1.42,0-.26,0-.5,0-.71,0-.24,0-.45,0-.6,0-.15,0-.26,0-.3v-.02h0c0-.41,0-.8-.03-1.2Z"/>
          <path class="st4" d="M35.34,38.98c0-.4,0-.8-.03-1.2-.2-2.02-1.22-4.16-2.56-5.58-1.05-1.12-2.44-1.89-3.87-2.43-.61-.23-1.34-.47-1.95-.47-.13,0-.63,0-1.29,0,0,0,0,0,0,0-.03,0-.14,0-.3,0-.86,0-1.89,0-2.66,0-.26,0-.54,0-.81,0-.31,0-.75,0-1.25,0-.06,0-.11,0-.17,0-.1,0-.19,0-.29,0-.51,0-.99,0-1.42,0-.26,0-.5,0-.71,0-.24,0-.45,0-.6,0-.15,0-.26,0-.3,0h-.02c-.4,0-.8,0-1.2.03-.03,0-.06,0-.09.01-.18.02-.35.04-.53.08-.09.02-.17.04-.26.05-.12.03-.24.05-.36.08-.1.02-.2.05-.29.08-.11.03-.22.06-.32.1-.1.03-.2.07-.31.1-.1.04-.2.08-.3.12-.1.04-.21.08-.31.13-.1.04-.19.09-.29.13-.1.05-.21.1-.31.15-.09.04-.17.09-.25.14-.2.11-.39.22-.58.34-.07.04-.14.08-.2.13,0,0,0,0,0,0-.05.03-.1.06-.15.1,0,0,0,0,0,0,0,0-.01,0-.02.01-1.29.87-2.24,2.09-2.95,3.54,0,0,1.74,4.36,9.16,4.3h8.7c.18,0,.35.01.53.04.17.03.34.06.51.09.23.05.46.11.69.17.28.08.56.17.83.27.31.12.62.25.93.39.34.16.66.34.98.53.34.21.68.44.99.69.34.27.66.56.96.88.32.34.62.7.89,1.08.29.41.55.85.77,1.3.24.5.45,1.02.61,1.55.16.52.32,1.06.41,1.59,0-.31,0-8.53,0-8.53Z"/>
          <path class="st1" d="M7.43,47.53c0,.4,0,.8.03,1.2.2,2.02,1.22,4.16,2.56,5.58,1.05,1.12,2.44,1.89,3.87,2.43.61.23,1.34.46,1.95.46.13,0,.63,0,1.29,0,0,0,0,0,0,0,.03,0,.14,0,.3,0,.86,0,1.89,0,2.66,0,.26,0,.54,0,.81,0,.31,0,.75,0,1.25,0,.06,0,.11,0,.17,0,.1,0,.19,0,.29,0,.51,0,.99,0,1.42,0,.26,0,.5,0,.71,0,.24,0,.45,0,.6,0,.15,0,.26,0,.3,0h.02c.4,0,.8,0,1.2-.03.03,0,.06,0,.09-.01.18-.02.35-.04.53-.08.09-.02.17-.04.26-.05.12-.03.24-.05.36-.08.1-.02.2-.05.29-.08.11-.03.22-.06.32-.1.1-.03.2-.07.31-.1.1-.04.2-.08.3-.12.1-.04.21-.08.31-.13.1-.04.19-.09.29-.13.1-.05.21-.1.31-.15.09-.04.17-.09.25-.14.2-.11.39-.22.58-.34.07-.04.14-.08.2-.13,0,0,0,0,0,0,.05-.03.1-.06.15-.1,0,0,0,0,0,0,0,0,.01,0,.02-.01,1.29-.87,2.24-2.09,2.95-3.54,0,0-1.74-4.36-9.16-4.3h-8.7c-.18,0-.35-.01-.53-.04-.17-.03-.34-.06-.51-.09-.23-.05-.46-.11-.69-.17-.28-.08-.56-.17-.83-.27-.31-.12-.62-.25-.93-.39-.34-.16-.66-.34-.98-.53-.34-.21-.68-.44-.99-.69-.34-.27-.66-.56-.96-.88-.32-.34-.62-.7-.89-1.08-.29-.41-.55-.85-.77-1.3-.24-.5-.45-1.02-.61-1.55-.16-.52-.32-1.06-.41-1.59,0,.31,0,8.53,0,8.53Z"/>
          <path class="st6" d="M17.11,29.3c-.4,0-.8,0-1.2.03-2.02.2-4.16,1.22-5.58,2.56-1.12,1.05-1.89,2.44-2.43,3.87-.23.61-.47,1.34-.47,1.95,0,.13,0,.63,0,1.29,0,0,0,0,0,0,0,.03,0,.14,0,.3,0,.86,0,1.89,0,2.66,0,.26,0,.54,0,.81,0,.31,0,.75,0,1.25,0,.06,0,.11,0,.17,0,.1,0,.19,0,.29,0,.51,0,.99,0,1.42,0,.26,0,.5,0,.71,0,.24,0,.45,0,.6,0,.15,0,.26,0,.3v.02h0c0,.41,0,.8.03,1.2,0,.03,0,.06.01.09.02.18.04.35.08.53.02.09.04.17.05.26.03.12.05.24.08.36.02.1.05.2.08.29.03.11.06.22.1.32.03.1.07.2.1.31.04.1.08.2.12.3.04.1.08.21.13.31.04.1.09.19.13.29.05.1.1.21.15.31.04.09.09.17.14.25.11.2.22.39.34.58.04.07.08.14.13.2,0,0,0,0,0,0,.03.05.06.1.1.15h0s0,.01.01.02c.87,1.29,2.09,2.24,3.54,2.95,0,0,4.36-1.74,4.3-9.16v-8.7c0-.18.01-.35.04-.53.03-.17.06-.34.09-.51.05-.23.11-.46.17-.69.08-.28.17-.56.27-.83.12-.31.25-.62.39-.93.16-.34.34-.66.53-.98.21-.34.44-.68.69-.99.27-.34.56-.66.88-.96.34-.32.7-.62,1.08-.89.41-.29.85-.55,1.3-.77.5-.24,1.02-.45,1.55-.61.52-.16,1.06-.32,1.59-.41-.31,0-8.53,0-8.53,0Z"/>
        </g>
      </g>
    </g>
    <g>
      <path class="st8" d="M64.38,41.96c0-.77,0-1.8,0-2.66,0-.16,0-.27,0-.3,0,0,0,0,0,0,0-.65,0-1.16,0-1.29,0-.6-.23-1.34-.46-1.95-.15-.38-.31-.76-.49-1.14,0,0,0,0,0,0-.01-.02-.02-.05-.04-.07-.42-.86-.95-1.66-1.6-2.35,0,0-.02-.02-.03-.03-.09-.1-.18-.19-.28-.29-.02-.01-.03-.03-.05-.04-.3-.28-.62-.54-.96-.77,0,0-.01,0-.02-.01,0,0,0,0,0,0-.02-.01-.04-.03-.06-.04-.31-.21-.63-.4-.96-.58-.05-.03-.1-.06-.15-.08-.05-.03-.11-.05-.16-.08-.12-.06-.24-.11-.36-.17-.02-.01-.05-.02-.07-.03-.1-.04-.21-.09-.31-.13,0,0,0,0,0,0-.12-.05-.23-.09-.35-.13-.08-.03-.17-.06-.25-.09-.04-.01-.08-.03-.13-.04-.12-.04-.25-.08-.37-.11-.04-.01-.08-.02-.12-.03-.09-.02-.18-.04-.27-.06-.1-.02-.2-.04-.3-.06-.02,0-.04,0-.06-.01-.18-.03-.35-.06-.53-.08-.03,0-.05,0-.08-.01,0,0,0,0,0,0-.4-.04-.8-.02-1.2-.03h-.02s-.15,0-.3,0c-.15,0-.36,0-.6,0h-.1c-.11,0-.24,0-.36,0-.08,0-.16,0-.24,0-.43,0-.91,0-1.42,0-.1,0-.19,0-.29,0-.06,0-.11,0-.17,0-.5,0-.94,0-1.25,0-.27,0-.55,0-.81,0-.77,0-1.8,0-2.66,0-.16,0-.27,0-.3,0,0,0,0,0,0,0-.65,0-1.16,0-1.29,0-.6,0-1.34.23-1.95.47-.38.15-.76.31-1.13.49,0,0,0,0,0,0-.05.02-.1.05-.15.08-.82.41-1.6.92-2.26,1.55-.02.02-.05.05-.07.07-.08.08-.17.16-.25.25-.01.01-.02.03-.04.04-.28.3-.54.62-.77.96,0,0,0,.01-.01.02,0,0,0,0,0,0-.02.02-.03.05-.05.07-.21.31-.4.63-.58.96-.03.05-.06.1-.08.15-.03.05-.05.11-.08.16-.06.12-.12.24-.17.37,0,.02-.02.04-.03.07-.04.1-.08.2-.12.31-.05.13-.1.26-.15.39-.03.07-.05.15-.08.22-.01.04-.02.07-.03.11-.04.13-.08.27-.12.4,0,.04-.02.07-.03.11-.02.08-.04.16-.05.24-.03.11-.05.23-.07.34,0,.01,0,.03,0,.04-.03.16-.05.32-.07.47,0,.05-.02.1-.02.14-.04.4-.02.8-.03,1.2,0,0,0,2.05,0,4.15,0,.23,0,.44,0,.61,0,.27,0,.55,0,.81,0,.77,0,1.8,0,2.66,0,.16,0,.27,0,.3,0,0,0,0,0,0,0,.65,0,1.16,0,1.29,0,.6.23,1.34.46,1.95.15.38.31.76.49,1.14,0,0,0,0,0,0,.02.04.05.09.07.13.42.83.93,1.61,1.56,2.28.03.03.05.05.08.08.08.08.16.17.24.24.01.01.03.02.04.04.3.28.62.54.97.77,0,0,.01,0,.02.01,0,0,0,0,0,0,.03.02.05.03.08.05.3.2.61.39.94.56.05.03.11.06.17.09.06.03.12.06.18.08.11.05.22.11.34.16.03.01.05.03.08.04.1.04.21.09.31.13,0,0,.01,0,.02,0,.1.04.21.08.31.12.09.03.19.07.28.1.05.01.09.03.14.04.12.04.23.07.35.1.04.01.09.02.13.04.1.02.19.04.29.06.09.02.19.04.28.06.02,0,.04,0,.06.01.18.03.35.06.53.08.03,0,.06,0,.09.01.4.04.8.02,1.2.03h.02s.15,0,.3,0c.05,0,.11,0,.17,0,.08,0,.17,0,.26,0,.06,0,.11,0,.17,0,.03,0,.06,0,.09,0,.22,0,.48,0,.75,0,.39,0,.82,0,1.28,0,.1,0,.19,0,.29,0,.06,0,.11,0,.17,0,.5,0,.94,0,1.25,0,.27,0,.55,0,.81,0,.77,0,1.8,0,2.66,0,.16,0,.27,0,.3,0,0,0,0,0,0,0,.65,0,1.16,0,1.29,0,.6,0,1.34-.23,1.95-.47.38-.15.76-.31,1.13-.49,0,0,0,0,0,0,.06-.03.12-.06.18-.09.12-.06.23-.12.35-.18,0,0,.02-.01.03-.02.67-.37,1.3-.81,1.85-1.33.04-.04.08-.08.12-.12.07-.07.14-.13.21-.2.01-.01.02-.02.03-.03.28-.3.54-.62.78-.97,0,0,0-.01.01-.02h0s.04-.06.06-.09c.06-.08.11-.17.16-.25,0,0,0,0,0,0,0,0,0,0,0,0,.13-.21.26-.43.38-.65.03-.06.07-.12.1-.18.03-.06.06-.13.09-.19.05-.1.1-.21.15-.31.01-.03.03-.06.04-.09.04-.1.09-.21.13-.31,0,0,0-.02.01-.03.04-.09.07-.19.11-.28.04-.1.07-.2.1-.3.02-.05.03-.1.05-.15.03-.11.07-.22.1-.34.01-.04.03-.09.04-.13.03-.1.05-.2.07-.3.02-.09.04-.18.06-.26,0-.02,0-.04.01-.06.03-.18.06-.35.08-.53,0-.03,0-.06.01-.09.04-.4.02-.8.03-1.2h0v-.02h0s0-.15,0-.3c0-.15,0-.36,0-.6,0-.03,0-.06,0-.09,0-.23,0-.48,0-.76,0-.39,0-.82,0-1.28,0-.1,0-.19,0-.29,0-.06,0-.11,0-.17,0-.5,0-.94,0-1.25,0-.27,0-.55,0-.81ZM54.63,47.59h-8.04c-.17,0-.33,0-.49,0v-8.18c0-.17,0-.33,0-.49h8.18c.17,0,.33,0,.49,0v8.18c0,.17,0,.33,0,.49h-.14Z"/>
      <g>
        <g>
          <polygon class="st0" points="47.09 27.77 47.09 26.79 53.66 26.79 53.66 27.77 55.52 27.77 55.52 28.84 45.23 28.84 45.23 27.77 47.09 27.77"/>
          <path class="st0" d="M45.33,59.1h1.52c.05.18.11.35.21.51.26.41.67.68,1.2.76l.54,3.41c.03.2.35.2.32,0l-.54-3.38s.03,0,.05,0h.54l.54,3.38c.03.2.35.2.32,0l-.54-3.38h.6l.54,3.38c.03.2.35.2.32,0l-.54-3.38h.6l.54,3.38c.03.2.35.2.32,0l-.54-3.38h.6l.54,3.38c.03.2.35.2.32,0l-.54-3.38h.6l.54,3.38c.02.1.1.15.18.15s.15-.05.13-.15l-.54-3.39c.69-.07,1.14-.61,1.08-1.3,0,0,0,0,0,0h1.44v-1.26h-10.33v1.26ZM47.41,59.1h6.25c.01.44-.29.77-.74.78h-4.22c-.35,0-.67,0-.97-.25-.18-.15-.27-.33-.32-.53Z"/>
        </g>
        <g>
          <path class="st7" d="M53.1,56.8c-.53-.16-1.05-.36-1.55-.61-.45-.22-.89-.48-1.3-.77-.38-.27-.74-.56-1.08-.89-.31-.3-.61-.62-.88-.96-.25-.32-.48-.65-.69-.99-.19-.32-.37-.65-.53-.98-.14-.3-.27-.61-.39-.93-.1-.27-.19-.55-.27-.83-.06-.23-.12-.46-.17-.69-.04-.17-.07-.34-.09-.51-.03-.18-.04-.35-.04-.53v-8.7c0-.17,0-.33,0-.49h6.23v-.43c0-.16-.01-.31-.04-.47-.03-.15-.06-.3-.09-.45-.05-.21-.11-.41-.17-.61-.08-.25-.17-.49-.27-.74-.12-.28-.25-.55-.39-.82-.1-.19-.21-.38-.33-.56h-5.58c-1.2-3.61-3.65-4.59-3.65-4.59-1.46.72-2.67,1.66-3.54,2.95,0,0,0,.01-.01.02,0,0,0,0,0,0-.03.05-.06.1-.1.15,0,0,0,0,0,0-.04.07-.08.14-.13.2-.12.19-.23.38-.34.58-.05.08-.09.17-.14.25-.05.1-.1.21-.15.31-.04.09-.09.19-.13.29-.04.1-.09.21-.13.31-.04.1-.08.2-.12.3-.04.1-.07.2-.1.31-.04.11-.07.22-.1.32-.03.1-.06.2-.08.29-.03.12-.06.24-.08.36-.02.09-.04.17-.05.26-.03.18-.06.35-.08.53,0,.03,0,.06-.01.09-.04.4-.02.8-.03,1.2h0v.02s0,.15,0,.3c0,.15,0,.36,0,.6,0,.21,0,.45,0,.71,0,.43,0,.91,0,1.42,0,.1,0,.19,0,.29,0,.06,0,.11,0,.17,0,.5,0,.94,0,1.25,0,.27,0,.55,0,.81,0,.77,0,1.8,0,2.66,0,.16,0,.27,0,.3,0,0,0,0,0,0,0,.65,0,1.16,0,1.29,0,.6.23,1.34.46,1.95.54,1.43,1.31,2.82,2.43,3.87,1.42,1.34,3.56,2.36,5.58,2.56.4.04.8.02,1.2.03,0,0,8.22,0,8.53,0-.54-.09-1.07-.25-1.59-.41Z"/>
          <path class="st2" d="M64.39,47.53c0,.4,0,.8-.03,1.2-.2,2.02-1.22,4.16-2.56,5.58-1.05,1.12-2.44,1.89-3.87,2.43-.61.23-1.34.46-1.95.46-.13,0-.63,0-1.29,0,0,0,0,0,0,0-.03,0-.14,0-.3,0-.86,0-1.89,0-2.66,0-.26,0-.54,0-.81,0-.31,0-.75,0-1.25,0-.06,0-.11,0-.17,0-.1,0-.19,0-.29,0-.51,0-.99,0-1.42,0-.26,0-.5,0-.71,0-.24,0-.45,0-.6,0-.15,0-.26,0-.3,0h-.02c-.4,0-.8,0-1.2-.03-.03,0-.06,0-.09-.01-.18-.02-.35-.04-.53-.08-.09-.02-.17-.04-.26-.05-.12-.03-.24-.05-.36-.08-.1-.02-.2-.05-.29-.08-.11-.03-.22-.06-.32-.1-.1-.03-.2-.07-.31-.1-.1-.04-.2-.08-.3-.12-.1-.04-.21-.08-.31-.13-.1-.04-.19-.09-.29-.13-.1-.05-.21-.1-.31-.15-.09-.04-.17-.09-.25-.14-.2-.11-.39-.22-.58-.34-.07-.04-.14-.08-.2-.13,0,0,0,0,0,0-.05-.03-.1-.06-.15-.1,0,0,0,0,0,0,0,0-.01,0-.02-.01-1.29-.87-2.24-2.09-2.95-3.54,0,0,1.74-4.36,9.16-4.3h8.7c.18,0,.35-.01.53-.04.17-.03.34-.06.51-.09.23-.05.46-.11.69-.17.28-.08.56-.17.83-.27.31-.12.62-.25.93-.39.34-.16.66-.34.98-.53.34-.21.68-.44.99-.69.34-.27.66-.56.96-.88.32-.34.62-.7.89-1.08.29-.41.55-.85.77-1.3.24-.5.45-1.02.61-1.55.16-.52.32-1.06.41-1.59,0,.31,0,8.53,0,8.53Z"/>
          <path class="st3" d="M54.71,29.3c.4,0,.8,0,1.2.03,2.02.2,4.16,1.22,5.58,2.56,1.12,1.05,1.89,2.44,2.43,3.87.23.61.46,1.34.46,1.95,0,.13,0,.63,0,1.29,0,0,0,0,0,0,0,.03,0,.14,0,.3,0,.86,0,1.89,0,2.66,0,.26,0,.54,0,.81,0,.31,0,.75,0,1.25,0,.06,0,.11,0,.17,0,.1,0,.19,0,.29,0,.51,0,.99,0,1.42,0,.26,0,.5,0,.71,0,.24,0,.45,0,.6,0,.15,0,.26,0,.3v.02h0c0,.41,0,.8-.03,1.2,0,.03,0,.06-.01.09-.02.18-.04.35-.08.53-.02.09-.04.17-.05.26-.03.12-.05.24-.08.36-.02.1-.05.2-.08.29-.03.11-.06.22-.1.32-.03.1-.07.2-.1.31-.04.1-.08.2-.12.3-.04.1-.08.21-.13.31-.04.1-.09.19-.13.29-.05.1-.1.21-.15.31-.04.09-.09.17-.14.25-.11.2-.22.39-.34.58-.04.07-.08.14-.13.2,0,0,0,0,0,0-.03.05-.06.1-.1.15,0,0,0,0,0,0,0,0,0,.01-.01.02-.87,1.29-2.09,2.24-3.54,2.95,0,0-4.36-1.74-4.3-9.16v-8.7c0-.18-.01-.35-.04-.53-.03-.17-.06-.34-.09-.51-.05-.23-.11-.46-.17-.69-.08-.28-.17-.56-.27-.83-.12-.31-.25-.62-.39-.93-.16-.34-.34-.66-.53-.98-.21-.34-.44-.68-.69-.99-.27-.34-.56-.66-.88-.96-.34-.32-.7-.62-1.08-.89-.41-.29-.85-.55-1.3-.77-.5-.24-1.02-.45-1.55-.61-.52-.16-1.06-.32-1.59-.41.31,0,8.53,0,8.53,0Z"/>
          <path class="st5" d="M36.48,38.98c0-.4,0-.8.03-1.2.2-2.02,1.22-4.16,2.56-5.58,1.05-1.12,2.44-1.89,3.87-2.43.61-.23,1.34-.47,1.95-.47.13,0,.63,0,1.29,0,0,0,0,0,0,0,.03,0,.14,0,.3,0,.86,0,1.89,0,2.66,0,.26,0,.54,0,.81,0,.31,0,.75,0,1.25,0,.06,0,.11,0,.17,0,.1,0,.19,0,.29,0,.51,0,.99,0,1.42,0,.26,0,.5,0,.71,0,.24,0,.45,0,.6,0,.15,0,.26,0,.3,0h.02c.4,0,.8,0,1.2.03.03,0,.06,0,.09.01.18.02.35.04.53.08.09.02.17.04.26.05.12.03.24.05.36.08.1.02.2.05.29.08.11.03.22.06.32.1.1.03.2.07.31.1.1.04.2.08.3.12.1.04.21.08.31.13.1.04.19.09.29.13.1.05.21.1.31.15.09.04.17.09.25.14.2.11.39.22.58.34.07.04.14.08.2.13,0,0,0,0,0,0,.05.03.1.06.15.1,0,0,0,0,0,0,0,0,.01,0,.02.01,1.29.87,2.24,2.09,2.95,3.54,0,0-1.74,4.36-9.16,4.3h-8.7c-.18,0-.35.01-.53.04-.17.03-.34.06-.51.09-.23.05-.46.11-.69.17-.28.08-.56.17-.83.27-.31.12-.62.25-.93.39-.34.16-.66.34-.98.53-.34.21-.68.44-.99.69-.34.27-.66.56-.96.88-.32.34-.62.7-.89,1.08-.29.41-.55.85-.77,1.3-.24.5-.45,1.02-.61,1.55-.16.52-.32,1.06-.41,1.59,0-.31,0-8.53,0-8.53Z"/>
        </g>
      </g>
    </g>
  </g>
  <g>
    <path class="st8" d="M87.21,35.47v4.31h-3.33v18.06h-5.15v-18.06h-3.33v-4.31h11.82Z"/>
    <path class="st8" d="M97.65,35.47l4.2,22.37h-5.4l-.48-3.98h-3.61l-.53,3.98h-5.15l4.14-22.37h6.83ZM94.21,38.94l-1.32,10.95h2.58l-1.2-10.95h-.06Z"/>
    <path class="st8" d="M108.52,35.47v22.37h-5.15v-22.37h5.15Z"/>
    <path class="st8" d="M117,35.47c5.8,0,7.48,1.57,7.48,6.69,0,4.84-1.99,6.8-5.32,6.8h-3.02v8.88h-5.15v-22.37h6.02ZM116.13,44.99h1.15c1.57,0,2.04-.45,2.04-2.83,0-1.96-.36-2.72-2.04-2.72h-1.15v5.54Z"/>
    <path class="st8" d="M138,35.47v4.31h-6.3v4.45h5.52v4.31h-5.52v4.98h6.55v4.31h-11.7v-22.37h11.45Z"/>
    <path class="st8" d="M145.87,35.47v22.37h-5.15v-22.37h5.15Z"/>
    <path class="st8" d="M160.48,35.47v18.06h5.6v4.31h-10.75v-22.37h5.15Z"/>
    <path class="st8" d="M177.79,35.47l4.2,22.37h-5.4l-.48-3.98h-3.61l-.53,3.98h-5.15l4.14-22.37h6.83ZM174.34,38.94l-1.32,10.95h2.58l-1.2-10.95h-.06Z"/>
    <path class="st8" d="M188.96,35.47l4.14,13.19h.06v-13.19h4.98v22.37h-5.6l-4.17-13.83h-.06v13.83h-4.98v-22.37h5.63Z"/>
    <path class="st8" d="M211.41,35.47v4.31h-3.33v18.06h-5.15v-18.06h-3.33v-4.31h11.82Z"/>
    <path class="st8" d="M224.32,35.47v4.31h-6.3v4.45h5.52v4.31h-5.52v4.98h6.55v4.31h-11.7v-22.37h11.45Z"/>
    <path class="st8" d="M233.81,35.47c4.48,0,6.38,1.43,6.38,5.43,0,3.53-.98,4.42-3.11,5.15v.06c1.9.39,3,1.76,3,3.47v5.38c0,1.18.11,2.41.53,2.88h-5.1c-.42-.48-.59-1.74-.59-3.98v-3.92c0-1.29-.59-1.76-2.07-1.76h-.84v9.66h-5.15v-22.37h6.94ZM232.02,44.37h1.32c.64,0,1.4-.17,1.62-1.15.08-.36.08-.9.08-1.48,0-1.88-.14-2.46-2.24-2.46h-.78v5.1Z"/>
    <path class="st8" d="M248.07,35.47l4.14,13.19h.06v-13.19h4.98v22.37h-5.6l-4.17-13.83h-.06v13.83h-4.98v-22.37h5.63Z"/>
    <path class="st8" d="M277.3,35.47v4.31h-5.6v4.45h5.01v4.31h-5.01v9.3h-5.15v-22.37h10.75Z"/>
    <path class="st8" d="M290.43,35.47v4.31h-6.3v4.45h5.52v4.31h-5.52v4.98h6.55v4.31h-11.7v-22.37h11.45Z"/>
    <path class="st8" d="M306.08,42.75h-4.82v-1.2c0-1.79-.56-2.46-1.62-2.46s-1.76.64-1.76,1.68c0,.67.62,1.57,1.85,2.58,1.18.98,2.69,2.13,3.81,3,2.02,1.6,2.91,3.33,2.91,6.13,0,1.15-.45,2.46-1.23,3.42-1.18,1.43-3.11,2.32-5.77,2.32-4.51,0-6.66-2.6-6.66-5.63v-2.32h4.98v1.71c0,1.51.53,2.27,1.74,2.27s1.79-.76,1.79-1.74c0-1.34-.92-2.44-2.86-3.86-1.6-1.18-2.72-2.02-3.72-3.02-1.18-1.2-1.65-2.6-1.65-4.23,0-4.4,2.46-6.27,6.58-6.27,4.68,0,6.44,2.41,6.44,5.54v2.1Z"/>
    <path class="st8" d="M319.52,35.47v4.31h-3.33v18.06h-5.15v-18.06h-3.33v-4.31h11.82Z"/>
    <path class="st8" d="M326.3,35.47v22.37h-5.15v-22.37h5.15Z"/>
    <path class="st8" d="M333.07,35.47l1.4,15.9.06-.03,1.71-15.88h5.18l-3.81,22.37h-6.38l-3.42-22.37h5.26Z"/>
    <path class="st8" d="M352.28,35.47l4.2,22.37h-5.4l-.48-3.98h-3.61l-.53,3.98h-5.15l4.14-22.37h6.83ZM348.84,38.94l-1.32,10.95h2.58l-1.2-10.95h-.06Z"/>
    <path class="st8" d="M362.98,35.47v18.06h5.6v4.31h-10.75v-22.37h5.15Z"/>
  </g>
</svg>