<?xml version="1.0" encoding="UTF-8"?>
<svg id="_圖層_1" xmlns="http://www.w3.org/2000/svg" xmlns:xlink="http://www.w3.org/1999/xlink" version="1.1" viewBox="0 0 376.94 88.94">
  <!-- Generator: Adobe Illustrator 30.0.0, SVG Export Plug-In . SVG Version: 2.1.1 Build 123)  -->
  <defs>
    <style>
      .st0 {
        fill: url(#_未命名漸層);
      }

      .st1 {
        fill: #fff;
      }

      .st2 {
        fill: url(#_未命名漸層_5);
      }

      .st3 {
        fill: url(#_未命名漸層_4);
        opacity: .7;
      }

      .st3, .st4, .st5, .st6, .st7, .st8 {
        isolation: isolate;
      }

      .st4 {
        fill: url(#_未命名漸層_7);
        opacity: .45;
      }

      .st5 {
        fill: url(#_未命名漸層_3);
        opacity: .65;
      }

      .st6 {
        fill: url(#_未命名漸層_2);
      }

      .st6, .st7 {
        opacity: .44;
      }

      .st7 {
        fill: url(#_未命名漸層_8);
      }

      .st8 {
        fill: url(#_未命名漸層_6);
        opacity: .6;
      }

      .st9 {
        fill: #c1a30a;
      }
    </style>
    <linearGradient id="_未命名漸層" data-name="未命名漸層" x1="36.84" y1="23.53" x2="36.84" y2="36.06" gradientTransform="translate(0 79.65) scale(1 -1)" gradientUnits="userSpaceOnUse">
      <stop offset="0" stop-color="#b82d7b"/>
      <stop offset=".22" stop-color="#c6377b"/>
      <stop offset=".71" stop-color="#df4b7b"/>
      <stop offset="1" stop-color="#e9537b"/>
    </linearGradient>
    <linearGradient id="_未命名漸層_2" data-name="未命名漸層 2" x1="42.61" y1="34.9" x2="33.1" y2="44.15" gradientTransform="translate(0 79.65) scale(1 -1)" gradientUnits="userSpaceOnUse">
      <stop offset="0" stop-color="#f6bcb8" stop-opacity=".4"/>
      <stop offset=".14" stop-color="#f4b2b2" stop-opacity=".45"/>
      <stop offset=".39" stop-color="#f197a2" stop-opacity=".58"/>
      <stop offset=".72" stop-color="#ec6d89" stop-opacity=".8"/>
      <stop offset="1" stop-color="#e84572"/>
    </linearGradient>
    <linearGradient id="_未命名漸層_3" data-name="未命名漸層 3" x1="19.06" y1="33.11" x2="36.11" y2="25.59" gradientTransform="translate(0 79.65) scale(1 -1)" gradientUnits="userSpaceOnUse">
      <stop offset="0" stop-color="#25814e"/>
      <stop offset=".11" stop-color="#318747"/>
      <stop offset=".31" stop-color="#519936"/>
      <stop offset=".57" stop-color="#85b61b"/>
      <stop offset=".84" stop-color="#abb927" stop-opacity=".37"/>
      <stop offset=".99" stop-color="#c2bc2f" stop-opacity="0"/>
    </linearGradient>
    <linearGradient id="_未命名漸層_4" data-name="未命名漸層 4" x1="27.11" y1="31.26" x2="27.11" y2="49.48" gradientTransform="translate(0 79.65) scale(1 -1)" gradientUnits="userSpaceOnUse">
      <stop offset="0" stop-color="#0092c2" stop-opacity=".7"/>
      <stop offset=".27" stop-color="#008fc3" stop-opacity=".76"/>
      <stop offset=".75" stop-color="#0087c6" stop-opacity=".91"/>
      <stop offset="1" stop-color="#0083c9"/>
    </linearGradient>
    <linearGradient id="_未命名漸層_5" data-name="未命名漸層 5" x1="56.18" y1="23.53" x2="56.18" y2="36.06" gradientTransform="translate(0 79.65) scale(1 -1)" gradientUnits="userSpaceOnUse">
      <stop offset="0" stop-color="#b82d7b"/>
      <stop offset=".22" stop-color="#c6377b"/>
      <stop offset=".71" stop-color="#df4b7b"/>
      <stop offset="1" stop-color="#e9537b"/>
    </linearGradient>
    <linearGradient id="_未命名漸層_6" data-name="未命名漸層 6" x1="77.68" y1="32.2" x2="54.96" y2="30.13" gradientTransform="translate(0 79.65) scale(1 -1)" gradientUnits="userSpaceOnUse">
      <stop offset=".3" stop-color="#ea5530"/>
      <stop offset=".36" stop-color="#e95232" stop-opacity=".98"/>
      <stop offset=".45" stop-color="#e84b38" stop-opacity=".91"/>
      <stop offset=".54" stop-color="#e73f43" stop-opacity=".8"/>
      <stop offset=".65" stop-color="#e52f52" stop-opacity=".65"/>
      <stop offset=".75" stop-color="#e31b65" stop-opacity=".45"/>
      <stop offset=".86" stop-color="#e0027d" stop-opacity=".22"/>
      <stop offset=".87" stop-color="#e0007f" stop-opacity=".2"/>
    </linearGradient>
    <linearGradient id="_未命名漸層_7" data-name="未命名漸層 7" x1="1483.64" y1="31.26" x2="1483.64" y2="49.48" gradientTransform="translate(1549.5 79.65) rotate(-180)" gradientUnits="userSpaceOnUse">
      <stop offset="0" stop-color="#fac03d"/>
      <stop offset=".24" stop-color="#f6ab2d"/>
      <stop offset="1" stop-color="#ed6c00"/>
    </linearGradient>
    <linearGradient id="_未命名漸層_8" data-name="未命名漸層 8" x1="1502.25" y1="41.29" x2="1489.49" y2="41.29" gradientTransform="translate(1549.5 79.65) rotate(-180)" gradientUnits="userSpaceOnUse">
      <stop offset="0" stop-color="#f6bcb8" stop-opacity=".4"/>
      <stop offset=".14" stop-color="#f4b2b2" stop-opacity=".45"/>
      <stop offset=".39" stop-color="#f197a2" stop-opacity=".58"/>
      <stop offset=".72" stop-color="#ec6d89" stop-opacity=".8"/>
      <stop offset="1" stop-color="#e84572"/>
    </linearGradient>
  </defs>
  <g>
    <g>
      <path class="st1" d="M45.92,43.09v-4.15c0-.4,0-.8-.03-1.2,0-.05-.02-.1-.02-.14-.02-.16-.04-.32-.07-.47v-.04c-.02-.11-.05-.23-.07-.34-.02-.08-.03-.16-.05-.24,0-.04-.02-.07-.03-.11-.04-.14-.08-.27-.12-.4,0-.04-.02-.07-.03-.11-.02-.07-.05-.15-.08-.22-.05-.13-.1-.26-.15-.39-.04-.1-.08-.2-.12-.31,0-.02-.02-.04-.03-.07-.06-.12-.11-.25-.17-.37-.03-.05-.05-.11-.08-.16s-.05-.1-.08-.15c-.18-.33-.37-.66-.58-.96-.02-.02-.03-.05-.05-.07h0s0,0,0-.02c-.23-.35-.49-.67-.77-.96,0,0-.02-.03-.04-.04-.08-.09-.17-.17-.25-.25-.02-.02-.05-.05-.07-.07-.67-.63-1.44-1.14-2.26-1.55-.05-.03-.1-.05-.15-.08h0c-.37-.18-.75-.34-1.13-.49-.61-.23-1.34-.47-1.95-.47h-9.81c-.4,0-.8,0-1.2.03h0s-.05,0-.08,0c-.18.02-.35.04-.53.08-.02,0-.04,0-.06,0-.1.02-.2.04-.3.06-.09.02-.18.04-.27.06l-.12.03c-.12.03-.25.07-.37.11-.04,0-.08.02-.13.04-.08.03-.17.06-.25.09-.12.04-.23.09-.35.13h0c-.1.04-.21.08-.31.13-.02,0-.05.02-.07.03-.12.05-.24.11-.36.17-.05.03-.11.05-.16.08-.05.03-.1.05-.15.08-.33.18-.66.37-.96.58-.02,0-.04.03-.06.04h0s0,0-.02,0c-.34.23-.66.49-.96.77-.02,0-.03.03-.05.04-.1.09-.19.19-.28.29,0,0-.02.02-.03.03-.65.69-1.18,1.49-1.6,2.35-.01.02-.02.05-.04.07h0c-.18.37-.34.75-.49,1.14-.23.61-.47,1.34-.47,1.95v1.29h0v8.51h0v.02h0c0,.41,0,.8.03,1.2,0,.03,0,.06.01.09.02.18.04.35.08.53,0,.02,0,.04.01.06.02.09.04.18.06.26.02.1.04.2.07.3.01.05.02.09.04.13.03.11.06.22.1.34.02.05.03.1.05.15.03.1.07.2.1.3.03.09.07.19.11.28,0,0,0,.02.01.03.04.1.08.21.13.31.01.03.03.06.04.09.05.11.1.21.15.31.03.06.06.13.09.19.03.06.06.12.1.18.12.22.25.44.38.65h0c.05.08.11.17.16.25.02.03.04.06.06.09h0s0,.01.01.02c.23.35.5.67.78.97,0,.01.02.02.03.03.07.07.14.14.21.2.04.04.08.08.12.12.55.52,1.18.96,1.85,1.33,0,0,.02.01.03.02.11.06.23.12.35.18l.18.09h0c.37.18.75.34,1.13.49.61.23,1.34.47,1.95.47h9.81c.4,0,.8,0,1.2-.03.03,0,.06,0,.09-.01.18-.02.35-.04.53-.08.02,0,.04,0,.06-.01.09-.02.19-.04.28-.06.1-.02.19-.04.29-.06.04-.01.09-.02.13-.04.12-.03.24-.07.35-.1.05-.01.09-.03.14-.04.09-.03.19-.06.28-.1.11-.04.21-.08.31-.12h.02c.1-.04.21-.08.31-.13.03-.01.05-.02.08-.04.11-.05.22-.1.34-.16.06-.03.12-.06.18-.08.06-.03.11-.06.17-.09.33-.17.64-.36.94-.56.03-.02.05-.03.08-.05h0s0,0,.02-.01c.35-.23.67-.49.97-.77,0-.01.03-.02.04-.04.08-.08.16-.16.24-.24l.08-.08c.63-.67,1.14-1.45,1.56-2.28.02-.04.05-.08.07-.13h0c.18-.37.34-.75.49-1.14.23-.61.46-1.34.46-1.95v-1.29h0v-4.38h-.07ZM27.62,47.55v-8.67h8.67v8.67h-8.67,0Z"/>
      <g>
        <g>
          <polygon class="st9" points="35.39 27.73 35.39 26.75 28.82 26.75 28.82 27.73 26.96 27.73 26.96 28.8 37.25 28.8 37.25 27.73 35.39 27.73"/>
          <path class="st9" d="M37.15,57.8h-10.33v1.26h1.44c-.06.68.39,1.22,1.08,1.3l-.54,3.39c-.02.1.06.15.13.15s.17-.05.18-.15l.54-3.38h.6l-.54,3.38c-.03.2.28.2.32,0l.54-3.38h.6l-.54,3.38c-.03.2.28.2.32,0l.54-3.38h.6l-.54,3.38c-.03.2.28.2.32,0l.54-3.38h.6l-.54,3.38c-.03.2.28.2.32,0l.54-3.38h.59l-.54,3.38c-.03.2.28.2.32,0l.54-3.41c.52-.09.94-.35,1.2-.76.1-.16.17-.33.21-.51h1.52v-1.26h-.02ZM34.75,59.59c-.3.25-.63.25-.97.25h-4.21c-.45-.01-.75-.34-.74-.78h6.25c-.05.19-.14.37-.33.53Z"/>
        </g>
        <g>
          <path class="st0" d="M45.89,37.74s0-.06,0-.09c-.02-.18-.04-.35-.08-.53-.02-.09-.04-.17-.05-.26-.03-.12-.05-.24-.08-.36-.02-.1-.05-.2-.08-.29-.03-.11-.06-.22-.1-.32-.03-.1-.07-.2-.1-.31-.04-.1-.08-.2-.12-.3s-.08-.21-.13-.31c-.04-.1-.09-.19-.13-.29-.05-.1-.1-.21-.15-.31-.04-.09-.09-.17-.14-.25-.11-.2-.22-.39-.34-.58-.04-.07-.08-.14-.13-.2h0s-.06-.1-.1-.15h0s0,0,0-.02c-.87-1.29-2.09-2.24-3.54-2.95,0,0-2.45.98-3.65,4.59h-5.58c-.12.18-.23.37-.33.56-.14.27-.27.54-.39.82-.1.24-.19.49-.27.74-.06.2-.12.41-.17.61-.04.15-.07.3-.09.45-.03.16-.04.31-.04.47v.43h6.23v9.19c0,.18,0,.35-.04.53-.03.17-.06.34-.09.51-.05.23-.11.46-.17.69-.08.28-.17.56-.27.83-.12.31-.25.62-.39.93-.16.34-.34.66-.53.98-.21.34-.44.68-.69.99-.27.34-.56.66-.88.96-.34.32-.7.62-1.08.89-.41.29-.85.55-1.3.77-.5.24-1.02.45-1.55.61-.52.16-1.06.32-1.59.41h8.53c.4,0,.8,0,1.2-.03,2.02-.2,4.16-1.22,5.58-2.56,1.12-1.05,1.89-2.44,2.43-3.87.23-.61.47-1.34.47-1.95v-1.29h0v-8.53h0c0-.41,0-.8-.03-1.2h-.02Z"/>
          <path class="st6" d="M45.92,38.94c0-.4,0-.8-.03-1.2-.2-2.02-1.22-4.16-2.56-5.58-1.05-1.12-2.44-1.89-3.87-2.43-.61-.23-1.34-.47-1.95-.47h-9.82c-.4,0-.8,0-1.2.03-.03,0-.06,0-.09,0-.18.02-.35.04-.53.08-.09.02-.17.04-.26.05-.12.03-.24.05-.36.08-.1.02-.2.05-.29.08-.11.03-.22.06-.32.1-.1.03-.2.07-.31.1-.1.04-.2.08-.3.12-.1.04-.21.08-.31.13-.1.04-.19.09-.29.13-.1.05-.21.1-.31.15-.09.04-.17.09-.25.14-.2.11-.39.22-.58.34-.07.04-.14.08-.2.13h0c-.05.03-.1.06-.15.1h0s0,0-.02,0c-1.29.87-2.24,2.09-2.95,3.54,0,0,1.74,4.36,9.16,4.3h8.7c.18,0,.35,0,.53.04.17.03.34.06.51.09.23.05.46.11.69.17.28.08.56.17.83.27.31.12.62.25.93.39.34.16.66.34.98.53.34.21.68.44.99.69.34.27.66.56.96.88.32.34.62.7.89,1.08.29.41.55.85.77,1.3.24.5.45,1.02.61,1.55.16.52.32,1.06.41,1.59v-8.53h-.01Z"/>
          <path class="st5" d="M18.01,47.49c0,.4,0,.8.03,1.2.2,2.02,1.22,4.16,2.56,5.58,1.05,1.12,2.44,1.89,3.87,2.43.61.23,1.34.47,1.95.47h9.82c.4,0,.8,0,1.2-.03.03,0,.06,0,.09-.01.18-.02.35-.04.53-.08.09-.02.17-.04.26-.05.12-.03.24-.05.36-.08.1-.02.2-.05.29-.08.11-.03.22-.06.32-.1.1-.03.2-.07.31-.1.1-.04.2-.08.3-.12s.21-.08.31-.13c.1-.04.19-.09.29-.13.1-.05.21-.1.31-.15.09-.04.17-.09.25-.14.2-.11.39-.22.58-.34.07-.04.14-.08.2-.13h0c.05-.03.1-.06.15-.1h0s0,0,.02-.01c1.29-.87,2.24-2.09,2.95-3.54,0,0-1.74-4.36-9.16-4.3h-8.7c-.18,0-.35-.01-.53-.04l-.51-.09c-.23-.05-.46-.11-.69-.17-.28-.08-.56-.17-.83-.27-.31-.12-.62-.25-.93-.39-.34-.16-.66-.34-.98-.53-.34-.21-.68-.44-.99-.69-.34-.27-.66-.56-.96-.88-.32-.34-.62-.7-.89-1.08-.29-.41-.55-.85-.77-1.3-.24-.5-.45-1.02-.61-1.55-.16-.52-.32-1.06-.41-1.59v8.53h.01Z"/>
          <path class="st3" d="M27.69,29.26c-.4,0-.8,0-1.2.03-2.02.2-4.16,1.22-5.58,2.56-1.12,1.05-1.89,2.44-2.43,3.87-.23.61-.47,1.34-.47,1.95v1.29h0v8.53h0c0,.41,0,.8.03,1.2,0,.03,0,.06.01.09.02.18.04.35.08.53.02.09.04.17.05.26.03.12.05.24.08.36.02.1.05.2.08.29.03.11.06.22.1.32.03.1.07.2.1.31.04.1.08.2.12.3.04.1.08.21.13.31.04.1.09.19.13.29.05.1.1.21.15.31.04.09.09.17.14.25.11.2.22.39.34.58.04.07.08.14.13.2h0c.03.05.06.1.1.15h0s0,.01.01.02c.87,1.29,2.09,2.24,3.54,2.95,0,0,4.36-1.74,4.3-9.16v-8.7c0-.18,0-.35.04-.53.03-.17.06-.34.09-.51.05-.23.11-.46.17-.69.08-.28.17-.56.27-.83.12-.31.25-.62.39-.93.16-.34.34-.66.53-.98.21-.34.44-.68.69-.99.27-.34.56-.66.88-.96.34-.32.7-.62,1.08-.89.41-.29.85-.55,1.3-.77.5-.24,1.02-.45,1.55-.61.52-.16,1.06-.32,1.59-.41h-8.53,0Z"/>
        </g>
      </g>
    </g>
    <g>
      <path class="st1" d="M74.96,41.92v-2.96h0v-1.29c0-.6-.23-1.34-.46-1.95-.15-.38-.31-.76-.49-1.14h0s-.02-.05-.04-.07c-.42-.86-.95-1.66-1.6-2.35,0,0-.02-.02-.03-.03-.09-.1-.18-.19-.28-.29-.02,0-.03-.03-.05-.04-.3-.28-.62-.54-.96-.77,0,0,0,0-.02,0h0s-.04-.03-.06-.04c-.31-.21-.63-.4-.96-.58-.05-.03-.1-.06-.15-.08-.05-.03-.11-.05-.16-.08-.12-.06-.24-.11-.36-.17-.02,0-.05-.02-.07-.03-.1-.04-.21-.09-.31-.13h0c-.12-.05-.23-.09-.35-.13-.08-.03-.17-.06-.25-.09-.04,0-.08-.03-.13-.04-.12-.04-.25-.08-.37-.11l-.12-.03c-.09-.02-.18-.04-.27-.06-.1-.02-.2-.04-.3-.06-.02,0-.04,0-.06,0-.18-.03-.35-.06-.53-.08-.03,0-.05,0-.08,0h0c-.4-.04-.8-.02-1.2-.03h-9.81c-.6,0-1.34.23-1.95.47-.38.15-.76.31-1.13.49h0c-.05.02-.1.05-.15.08-.82.41-1.6.92-2.26,1.55-.02.02-.05.05-.07.07-.08.08-.17.16-.25.25,0,0-.02.03-.04.04-.28.3-.54.62-.77.96,0,0,0,0,0,.02h0s-.03.05-.05.07c-.21.31-.4.63-.58.96-.03.05-.06.1-.08.15-.03.05-.05.11-.08.16-.06.12-.12.24-.17.37,0,.02-.02.04-.03.07-.04.1-.08.2-.12.31-.05.13-.1.26-.15.39-.03.07-.05.15-.08.22,0,.04-.02.07-.03.11-.04.13-.08.27-.12.4,0,.04-.02.07-.03.11-.02.08-.04.16-.05.24-.03.11-.05.23-.07.34v.04c-.03.16-.05.32-.07.47,0,.05-.02.1-.02.14-.04.4-.02.8-.03,1.2v8.53h0v1.29c0,.6.23,1.34.46,1.95.15.38.31.76.49,1.14h0s.05.09.07.13c.42.83.93,1.61,1.56,2.28l.08.08c.08.08.16.17.24.24,0,.01.03.02.04.04.3.28.62.54.97.77,0,0,0,0,.02.01h0s.05.03.08.05c.3.2.61.39.94.56.05.03.11.06.17.09s.12.06.18.08c.11.05.22.11.34.16.03.01.05.03.08.04.1.04.21.09.31.13h.02c.1.04.21.08.31.12.09.03.19.07.28.1.05.01.09.03.14.04.12.04.23.07.35.1.04.01.09.02.13.04.1.02.19.04.29.06.09.02.19.04.28.06.02,0,.04,0,.06.01.18.03.35.06.53.08.03,0,.06,0,.09.01.4.04.8.02,1.2.03h9.81c.6,0,1.34-.23,1.95-.47.38-.15.76-.31,1.13-.49h0l.18-.09c.12-.06.23-.12.35-.18,0,0,.02-.01.03-.02.67-.37,1.3-.81,1.85-1.33.04-.04.08-.08.12-.12.07-.07.14-.13.21-.2,0-.01.02-.02.03-.03.28-.3.54-.62.78-.97,0,0,0-.01,0-.02h0s.04-.06.06-.09c.06-.08.11-.17.16-.25h0c.13-.21.26-.43.38-.65.03-.06.07-.12.1-.18s.06-.13.09-.19c.05-.1.1-.21.15-.31,0-.03.03-.06.04-.09.04-.1.09-.21.13-.31,0,0,0-.02,0-.03.04-.09.07-.19.11-.28.04-.1.07-.2.1-.3.02-.05.03-.1.05-.15.03-.11.07-.22.1-.34,0-.04.03-.09.04-.13.03-.1.05-.2.07-.3.02-.09.04-.18.06-.26,0-.02,0-.04,0-.06.03-.18.06-.35.08-.53,0-.03,0-.06,0-.09.04-.4.02-.8.03-1.2h0v-.02h0v-5.55h-.08ZM65.2,47.55h-8.53v-8.67h8.67v8.67s-.14,0-.14,0Z"/>
      <g>
        <g>
          <polygon class="st9" points="57.67 27.73 57.67 26.75 64.24 26.75 64.24 27.73 66.1 27.73 66.1 28.8 55.81 28.8 55.81 27.73 57.67 27.73"/>
          <path class="st9" d="M55.91,59.06h1.52c.05.18.11.35.21.51.26.41.67.68,1.2.76l.54,3.41c.03.2.35.2.32,0l-.54-3.38h.59l.54,3.38c.03.2.35.2.32,0l-.54-3.38h.6l.54,3.38c.03.2.35.2.32,0l-.54-3.38h.6l.54,3.38c.03.2.35.2.32,0l-.54-3.38h.6l.54,3.38c.03.2.35.2.32,0l-.54-3.38h.6l.54,3.38c.02.1.1.15.18.15s.15-.05.13-.15l-.54-3.39c.69-.07,1.14-.61,1.08-1.3h1.44v-1.26h-10.33v1.26h-.02ZM57.99,59.06h6.25c0,.44-.29.77-.74.78h-4.22c-.35,0-.67,0-.97-.25-.18-.15-.27-.33-.32-.53h0Z"/>
        </g>
        <g>
          <path class="st2" d="M63.68,56.76c-.53-.16-1.05-.36-1.55-.61-.45-.22-.89-.48-1.3-.77-.38-.27-.74-.56-1.08-.89-.31-.3-.61-.62-.88-.96-.25-.32-.48-.65-.69-.99-.19-.32-.37-.65-.53-.98-.14-.3-.27-.61-.39-.93-.1-.27-.19-.55-.27-.83-.06-.23-.12-.46-.17-.69-.04-.17-.07-.34-.09-.51-.03-.18-.04-.35-.04-.53v-9.19h6.23v-.43c0-.16,0-.31-.04-.47-.03-.15-.06-.3-.09-.45-.05-.21-.11-.41-.17-.61-.08-.25-.17-.49-.27-.74-.12-.28-.25-.55-.39-.82-.1-.19-.21-.38-.33-.56h-5.58c-1.2-3.61-3.65-4.59-3.65-4.59-1.46.72-2.67,1.66-3.54,2.95,0,0,0,0,0,.02h0s-.06.1-.1.15h0c-.04.07-.08.14-.13.2-.12.19-.23.38-.34.58-.05.08-.09.17-.14.25-.05.1-.1.21-.15.31-.04.09-.09.19-.13.29-.04.1-.09.21-.13.31-.04.1-.08.2-.12.3s-.07.2-.1.31c-.04.11-.07.22-.1.32s-.06.2-.08.29c-.03.12-.06.24-.08.36-.02.09-.04.17-.05.26-.03.18-.06.35-.08.53,0,.03,0,.06,0,.09-.04.4-.02.8-.03,1.2h0v8.53h0v1.29c0,.6.23,1.34.46,1.95.54,1.43,1.31,2.82,2.43,3.87,1.42,1.34,3.56,2.36,5.58,2.56.4.04.8.02,1.2.03h8.53c-.54-.09-1.07-.25-1.59-.41h0Z"/>
          <path class="st8" d="M74.97,47.49c0,.4,0,.8-.03,1.2-.2,2.02-1.22,4.16-2.56,5.58-1.05,1.12-2.44,1.89-3.87,2.43-.61.23-1.34.47-1.95.47h-9.82c-.4,0-.8,0-1.2-.03-.03,0-.06,0-.09-.01-.18-.02-.35-.04-.53-.08-.09-.02-.17-.04-.26-.05-.12-.03-.24-.05-.36-.08-.1-.02-.2-.05-.29-.08-.11-.03-.22-.06-.32-.1-.1-.03-.2-.07-.31-.1-.1-.04-.2-.08-.3-.12s-.21-.08-.31-.13c-.1-.04-.19-.09-.29-.13-.1-.05-.21-.1-.31-.15-.09-.04-.17-.09-.25-.14-.2-.11-.39-.22-.58-.34-.07-.04-.14-.08-.2-.13h0c-.05-.03-.1-.06-.15-.1h0s0,0-.02-.01c-1.29-.87-2.24-2.09-2.95-3.54,0,0,1.74-4.36,9.16-4.3h8.7c.18,0,.35-.01.53-.04l.51-.09c.23-.05.46-.11.69-.17.28-.08.56-.17.83-.27.31-.12.62-.25.93-.39.34-.16.66-.34.98-.53.34-.21.68-.44.99-.69.34-.27.66-.56.96-.88.32-.34.62-.7.89-1.08.29-.41.55-.85.77-1.3.24-.5.45-1.02.61-1.55.16-.52.32-1.06.41-1.59v8.53h-.01Z"/>
          <path class="st4" d="M65.29,29.26c.4,0,.8,0,1.2.03,2.02.2,4.16,1.22,5.58,2.56,1.12,1.05,1.89,2.44,2.43,3.87.23.61.46,1.34.46,1.95v1.29h0v8.53h0c0,.41,0,.8-.03,1.2,0,.03,0,.06,0,.09-.02.18-.04.35-.08.53-.02.09-.04.17-.05.26-.03.12-.05.24-.08.36-.02.1-.05.2-.08.29-.03.11-.06.22-.1.32-.03.1-.07.2-.1.31-.04.1-.08.2-.12.3-.04.1-.08.21-.13.31-.04.1-.09.19-.13.29-.05.1-.1.21-.15.31-.04.09-.09.17-.14.25-.11.2-.22.39-.34.58-.04.07-.08.14-.13.2h0c-.03.05-.06.1-.1.15h0s0,.01,0,.02c-.87,1.29-2.09,2.24-3.54,2.95,0,0-4.36-1.74-4.3-9.16v-8.7c0-.18,0-.35-.04-.53-.03-.17-.06-.34-.09-.51-.05-.23-.11-.46-.17-.69-.08-.28-.17-.56-.27-.83-.12-.31-.25-.62-.39-.93-.16-.34-.34-.66-.53-.98-.21-.34-.44-.68-.69-.99-.27-.34-.56-.66-.88-.96-.34-.32-.7-.62-1.08-.89-.41-.29-.85-.55-1.3-.77-.5-.24-1.02-.45-1.55-.61-.52-.16-1.06-.32-1.59-.41h8.53Z"/>
          <path class="st7" d="M47.06,38.94c0-.4,0-.8.03-1.2.2-2.02,1.22-4.16,2.56-5.58,1.05-1.12,2.44-1.89,3.87-2.43.61-.23,1.34-.47,1.95-.47h9.82c.4,0,.8,0,1.2.03.03,0,.06,0,.09,0,.18.02.35.04.53.08.09.02.17.04.26.05.12.03.24.05.36.08.1.02.2.05.29.08.11.03.22.06.32.1.1.03.2.07.31.1.1.04.2.08.3.12.1.04.21.08.31.13.1.04.19.09.29.13.1.05.21.1.31.15.09.04.17.09.25.14.2.11.39.22.58.34.07.04.14.08.2.13h0c.05.03.1.06.15.1h0s0,0,.02,0c1.29.87,2.24,2.09,2.95,3.54,0,0-1.74,4.36-9.16,4.3h-8.7c-.18,0-.35,0-.53.04-.17.03-.34.06-.51.09-.23.05-.46.11-.69.17-.28.08-.56.17-.83.27-.31.12-.62.25-.93.39-.34.16-.66.34-.98.53-.34.21-.68.44-.99.69-.34.27-.66.56-.96.88-.32.34-.62.7-.89,1.08-.29.41-.55.85-.77,1.3-.24.5-.45,1.02-.61,1.55-.16.52-.32,1.06-.41,1.59v-8.53h.01Z"/>
        </g>
      </g>
    </g>
  </g>
  <g>
    <path class="st1" d="M97.79,35.43v4.31h-3.33v18.06h-5.15v-18.06h-3.33v-4.31h11.82-.01Z"/>
    <path class="st1" d="M108.23,35.43l4.2,22.37h-5.4l-.48-3.98h-3.61l-.53,3.98h-5.15l4.14-22.37h6.83,0ZM104.79,38.9l-1.32,10.95h2.58l-1.2-10.95h-.06Z"/>
    <path class="st1" d="M119.1,35.43v22.37h-5.15v-22.37s5.15,0,5.15,0Z"/>
    <path class="st1" d="M127.58,35.43c5.8,0,7.48,1.57,7.48,6.69,0,4.84-1.99,6.8-5.32,6.8h-3.02v8.88h-5.15v-22.37h6.02,0ZM126.71,44.95h1.15c1.57,0,2.04-.45,2.04-2.83,0-1.96-.36-2.72-2.04-2.72h-1.15v5.54h0Z"/>
    <path class="st1" d="M148.58,35.43v4.31h-6.3v4.45h5.52v4.31h-5.52v4.98h6.55v4.31h-11.7v-22.37h11.45Z"/>
    <path class="st1" d="M156.45,35.43v22.37h-5.15v-22.37s5.15,0,5.15,0Z"/>
    <path class="st1" d="M171.06,35.43v18.06h5.6v4.31h-10.75v-22.37s5.15,0,5.15,0Z"/>
    <path class="st1" d="M188.37,35.43l4.2,22.37h-5.4l-.48-3.98h-3.61l-.53,3.98h-5.15l4.14-22.37h6.83,0ZM184.92,38.9l-1.32,10.95h2.58l-1.2-10.95h-.06,0Z"/>
    <path class="st1" d="M199.54,35.43l4.14,13.19h.06v-13.19h4.98v22.37h-5.6l-4.17-13.83h-.06v13.83h-4.98v-22.37s5.63,0,5.63,0Z"/>
    <path class="st1" d="M221.99,35.43v4.31h-3.33v18.06h-5.15v-18.06h-3.33v-4.31h11.82-.01Z"/>
    <path class="st1" d="M234.9,35.43v4.31h-6.3v4.45h5.52v4.31h-5.52v4.98h6.55v4.31h-11.7v-22.37h11.45Z"/>
    <path class="st1" d="M244.39,35.43c4.48,0,6.38,1.43,6.38,5.43,0,3.53-.98,4.42-3.11,5.15v.06c1.9.39,3,1.76,3,3.47v5.38c0,1.18.11,2.41.53,2.88h-5.1c-.42-.48-.59-1.74-.59-3.98v-3.92c0-1.29-.59-1.76-2.07-1.76h-.84v9.66h-5.15v-22.37h6.95ZM242.6,44.33h1.32c.64,0,1.4-.17,1.62-1.15.08-.36.08-.9.08-1.48,0-1.88-.14-2.46-2.24-2.46h-.78v5.1h0Z"/>
    <path class="st1" d="M270.77,35.43v4.31h-5.6v4.45h5.01v4.31h-5.01v9.3h-5.15v-22.37s10.75,0,10.75,0Z"/>
    <path class="st1" d="M283.9,35.43v4.31h-6.3v4.45h5.52v4.31h-5.52v4.98h6.55v4.31h-11.7v-22.37h11.45Z"/>
    <path class="st1" d="M299.55,42.71h-4.82v-1.2c0-1.79-.56-2.46-1.62-2.46s-1.76.64-1.76,1.68c0,.67.62,1.57,1.85,2.58,1.18.98,2.69,2.13,3.81,3,2.02,1.6,2.91,3.33,2.91,6.13,0,1.15-.45,2.46-1.23,3.42-1.18,1.43-3.11,2.32-5.77,2.32-4.51,0-6.66-2.6-6.66-5.63v-2.32h4.98v1.71c0,1.51.53,2.27,1.74,2.27s1.79-.76,1.79-1.74c0-1.34-.92-2.44-2.86-3.86-1.6-1.18-2.72-2.02-3.72-3.02-1.18-1.2-1.65-2.6-1.65-4.23,0-4.4,2.46-6.27,6.58-6.27,4.68,0,6.44,2.41,6.44,5.54v2.1-.02Z"/>
    <path class="st1" d="M312.99,35.43v4.31h-3.33v18.06h-5.15v-18.06h-3.33v-4.31h11.82-.01Z"/>
    <path class="st1" d="M319.77,35.43v22.37h-5.15v-22.37s5.15,0,5.15,0Z"/>
    <path class="st1" d="M326.55,35.43l1.4,15.9.06-.03,1.71-15.88h5.18l-3.81,22.37h-6.38l-3.42-22.37h5.26Z"/>
    <path class="st1" d="M345.75,35.43l4.2,22.37h-5.4l-.48-3.98h-3.61l-.53,3.98h-5.15l4.14-22.37h6.83,0ZM342.31,38.9l-1.32,10.95h2.58l-1.2-10.95h-.06,0Z"/>
    <path class="st1" d="M356.45,35.43v18.06h5.6v4.31h-10.75v-22.37s5.15,0,5.15,0Z"/>
  </g>
</svg>